<?xml version="1.0" standalone="no"?>
<!DOCTYPE svg PUBLIC "-//W3C//DTD SVG 1.1//EN" "http://www.w3.org/Graphics/SVG/1.1/DTD/svg11.dtd" >
<svg xmlns="http://www.w3.org/2000/svg" xmlns:xlink="http://www.w3.org/1999/xlink" version="1.1">
<metadata>
Created by FontForge 20170731 at Fri Nov 16 11:55:06 2018
 By Aleksey,,,
Copyright 2016 Google Inc. &#38; Colophon Foundry. Copyright 2017 Florian Karsten. All rights reserved.
</metadata>
<defs>
<font id="SpaceGrotesk-Regular" horiz-adv-x="620" >
  <font-face 
    font-family="Space Grotesk"
    font-weight="400"
    font-stretch="normal"
    units-per-em="1000"
    panose-1="0 0 5 0 0 0 0 0 0 0"
    ascent="800"
    descent="-200"
    x-height="488"
    cap-height="700"
    bbox="-667 -283 985 1000"
    underline-thickness="50"
    underline-position="-200"
    unicode-range="U+0020-E133"
  />
<missing-glyph horiz-adv-x="865" 
d="M139.5 753q47.5 48 137.5 48h310q90 0 138 -48t48 -144v-528q0 -96 -48 -144t-138 -48h-310q-90 0 -137.5 48t-47.5 144v528q0 96 47.5 144zM160 85q0 -66 29 -99t91 -33h305q62 0 91 33t29 99v520q0 66 -29 99t-91 33h-305q-62 0 -91 -33t-29 -99v-520zM312.5 559
q47.5 39 122.5 39q71 0 119 -37.5t48 -97.5v-5q0 -50 -28 -80t-77 -51l-15 -7q-13 -5 -18.5 -14.5t-5.5 -27.5v-36h-63v38q0 32 11.5 52.5t43.5 34.5l16 7q39 17 56 35t17 51q0 38 -29.5 59.5t-74.5 21.5q-46 0 -76.5 -23.5t-30.5 -67.5v-25h-63v27q0 68 47.5 107z
M391.5 188q14.5 14 36.5 14t36.5 -14t14.5 -36q0 -21 -14.5 -35t-36.5 -14t-36.5 14t-14.5 35q0 22 14.5 36z" />
    <glyph glyph-name="f_f.liga" unicode="ff" horiz-adv-x="727" 
d="M700 488v-65h-155v-423h-76v423h-219v-423h-77v423h-152v65h152v133q0 36 21 57.5t56 21.5h129v-65h-101q-28 0 -28 -30v-117h219v133q0 36 20.5 57.5t55.5 21.5h129v-65h-101q-28 0 -28 -30v-117h155z" />
    <glyph glyph-name="f_f_i.liga" unicode="ffi" horiz-adv-x="914" 
d="M849 686q18 -18 18 -45q0 -28 -18 -46t-46 -18t-46.5 18t-18.5 46q0 27 18.5 45t46.5 18t46 -18zM841 488v-488h-77v423h-219v-423h-76v423h-219v-423h-77v423h-152v65h152v133q0 36 21 57.5t56 21.5h129v-65h-101q-28 0 -28 -30v-117h219v133q0 36 20.5 57.5t55.5 21.5
h120v-65h-92q-28 0 -28 -30v-117h296z" />
    <glyph glyph-name="f_f_j.liga" unicode="ffj" horiz-adv-x="914" 
d="M849 686q18 -18 18 -45q0 -28 -18 -46t-46 -18t-46.5 18t-18.5 46q0 27 18.5 45t46.5 18t46 -18zM841 488v-612q0 -35 -20.5 -55.5t-55.5 -20.5h-125v66h96q28 0 28 30v527h-219v-423h-76v423h-219v-423h-77v423h-152v65h152v133q0 36 21 57.5t56 21.5h129v-65h-101
q-28 0 -28 -30v-117h219v133q0 36 20.5 57.5t55.5 21.5h120v-65h-92q-28 0 -28 -30v-117h296z" />
    <glyph glyph-name="f_i.liga" unicode="fi" horiz-adv-x="618" 
d="M553 686q18 -18 18 -45q0 -28 -18 -46t-46 -18t-46 18t-18 46q0 27 18 45t46 18t46 -18zM545 488v-488h-76v423h-219v-423h-77v423h-152v65h152v133q0 36 21 57.5t56 21.5h120v-65h-92q-28 0 -28 -30v-117h295z" />
    <glyph glyph-name="f_j.liga" unicode="fj" horiz-adv-x="618" 
d="M553 686q18 -18 18 -45q0 -28 -18 -46t-46 -18t-46 18t-18 46q0 27 18 45t46 18t46 -18zM545 488v-612q0 -35 -20.5 -55.5t-55.5 -20.5h-125v66h97q28 0 28 30v527h-219v-423h-77v423h-152v65h152v133q0 36 21 57.5t56 21.5h120v-65h-92q-28 0 -28 -30v-117h295z" />
    <glyph glyph-name="f_l.liga" unicode="fl" horiz-adv-x="618" 
d="M173 488v133q0 36 21 57.5t56 21.5h119v-66h-91q-28 0 -28 -30v-116h141v-66h-141v-422h-77v422h-152v66h152zM545 700v-700h-76v700h76z" />
    <glyph glyph-name="f_lcaron.liga" unicode="f&#x13e;" horiz-adv-x="675" 
d="M173 488v133q0 36 21 57.5t56 21.5h119v-66h-91q-28 0 -28 -30v-116h141v-66h-141v-422h-77v422h-152v66h152zM545 0h-76v700h76v-700zM700 700l-49 -177h-45l11 177h83z" />
    <glyph glyph-name=".notdef" horiz-adv-x="865" 
d="M139.5 753q47.5 48 137.5 48h310q90 0 138 -48t48 -144v-528q0 -96 -48 -144t-138 -48h-310q-90 0 -137.5 48t-47.5 144v528q0 96 47.5 144zM160 85q0 -66 29 -99t91 -33h305q62 0 91 33t29 99v520q0 66 -29 99t-91 33h-305q-62 0 -91 -33t-29 -99v-520zM312.5 559
q47.5 39 122.5 39q71 0 119 -37.5t48 -97.5v-5q0 -50 -28 -80t-77 -51l-15 -7q-13 -5 -18.5 -14.5t-5.5 -27.5v-36h-63v38q0 32 11.5 52.5t43.5 34.5l16 7q39 17 56 35t17 51q0 38 -29.5 59.5t-74.5 21.5q-46 0 -76.5 -23.5t-30.5 -67.5v-25h-63v27q0 68 47.5 107z
M391.5 188q14.5 14 36.5 14t36.5 -14t14.5 -36q0 -21 -14.5 -35t-36.5 -14t-36.5 14t-14.5 35q0 22 14.5 36z" />
    <glyph glyph-name=".null" horiz-adv-x="0" 
 />
    <glyph glyph-name="nonmarkingreturn" horiz-adv-x="333" 
 />
    <glyph glyph-name="space" unicode=" " horiz-adv-x="309" 
 />
    <glyph glyph-name="exclam" unicode="!" horiz-adv-x="243" 
d="M162 700v-513h-81v513h81zM72.5 104.5q19.5 19.5 49.5 19.5q29 0 49 -19.5t20 -49.5t-20 -49.5t-49 -19.5q-30 0 -49.5 19.5t-19.5 49.5t19.5 49.5z" />
    <glyph glyph-name="quotedbl" unicode="&#x22;" horiz-adv-x="408" 
d="M72.5 696.5q19.5 19.5 49.5 19.5q29 0 49 -19.5t20 -49.5v-100q0 -34 -21 -54t-55 -20h-59v47h54q27 0 27 27v36q-6 -2 -17 -2q-29 0 -48 19t-19 47q0 30 19.5 49.5zM237.5 696.5q19.5 19.5 49.5 19.5q29 0 49 -19.5t20 -49.5v-100q0 -34 -21 -54t-55 -20h-59v47h54
q27 0 27 27v36q-6 -2 -17 -2q-29 0 -48 19t-19 47q0 30 19.5 49.5z" />
    <glyph glyph-name="numbersign" unicode="#" 
d="M165 497v203h73v-203h144v203h73v-203h125v-68h-125v-158h125v-68h-125v-203h-73v203h-144v-203h-73v203h-125v68h125v158h-125v68h125zM238 271h144v158h-144v-158z" />
    <glyph glyph-name="dollar" unicode="$" horiz-adv-x="612" 
d="M509.5 321.5q52.5 -45.5 52.5 -125.5v-8q0 -84 -58 -137.5t-152 -62.5v-104h-75v104q-112 9 -173.5 75.5t-61.5 180.5v25h82v-21q0 -83 39.5 -129.5t113.5 -55.5v268q-103 24 -154 66.5t-51 124.5v6q0 76 57.5 126.5t147.5 58.5v103h75v-105q93 -11 150 -65.5t57 -143.5
v-40h-81v35q0 58 -34.5 93.5t-91.5 44.5v-244l5 -1q100 -23 152.5 -68.5zM184 451.5q30 -24.5 93 -41.5v227q-54 -7 -88.5 -37t-34.5 -76q0 -48 30 -72.5zM446.5 106.5q33.5 34.5 33.5 83.5q0 48 -32 75.5t-96 45.5v-248q61 9 94.5 43.5z" />
    <glyph glyph-name="percent" unicode="%" horiz-adv-x="781" 
d="M94.5 671q42.5 42 118.5 42q74 0 117.5 -42.5t43.5 -116.5v-19q0 -74 -42.5 -116t-118.5 -42t-118.5 42t-42.5 116v19q0 75 42.5 117zM616 711l64 -48l-198 -237l-43 33zM119 531q0 -45 24.5 -71t69.5 -26t69.5 26t24.5 71v28q0 45 -24.5 71t-69.5 26t-69.5 -26
t-24.5 -71v-28zM449.5 281q42.5 42 118.5 42q74 0 117.5 -42.5t43.5 -116.5v-19q0 -74 -42.5 -116t-118.5 -42t-118.5 42t-42.5 116v19q0 75 42.5 117zM163 -10l-64 47l199 237l43 -32zM474 141q0 -45 24.5 -71t69.5 -26q46 0 70 26t24 71v28q0 45 -24 71t-70 26
q-45 0 -69.5 -26t-24.5 -71v-28z" />
    <glyph glyph-name="ampersand" unicode="&#x26;" horiz-adv-x="687" 
d="M81.5 296q33.5 50 83.5 86v12q-29 35 -44 68t-15 71v6q0 50 24 89.5t68 62.5t103 23q90 0 144 -51.5t54 -136.5v-30h-82v27q0 57 -31.5 87.5t-85.5 30.5q-51 0 -81.5 -28.5t-30.5 -75.5v-4q0 -31 15.5 -59t36.5 -51t72 -74l138 -135h13l106 193h88l-140 -247v-13
l150 -147h-105l-86 85h-13q-40 -48 -88.5 -74t-111.5 -26q-66 0 -114.5 27.5t-74.5 73.5t-26 100q0 60 33.5 110zM146.5 125q16.5 -30 48 -48t72.5 -18q45 0 79.5 19.5t64.5 57.5v13l-183 179h-12q-38 -25 -62 -59t-24 -76v-4q0 -34 16.5 -64z" />
    <glyph glyph-name="quotesingle" unicode="'" horiz-adv-x="243" 
d="M72.5 696.5q19.5 19.5 49.5 19.5q29 0 49 -19.5t20 -49.5v-100q0 -34 -21 -54t-55 -20h-59v47h54q27 0 27 27v36q-6 -2 -17 -2q-29 0 -48 19t-19 47q0 30 19.5 49.5z" />
    <glyph glyph-name="parenleft" unicode="(" horiz-adv-x="401" 
d="M136 543q0 136 65 200.5t180 64.5v-69q-85 -2 -126.5 -51.5t-41.5 -151.5v-512q0 -102 41.5 -151.5t126.5 -51.5v-69q-115 0 -180 64.5t-65 201.5v525z" />
    <glyph glyph-name="parenright" unicode=")" horiz-adv-x="401" 
d="M200 -183.5q-65 -64.5 -180 -64.5v69q85 2 127 52t42 151v512q0 101 -42 151t-127 52v69q115 0 180 -64.5t65 -200.5v-525q0 -137 -65 -201.5z" />
    <glyph glyph-name="asterisk" unicode="*" 
d="M198 488l44 -14l5 12l-50 28l-88 88l51 51l88 -88l28 -50l12 5l-14 44v136h72v-136l-14 -44l12 -5l28 50l88 88l51 -51l-88 -88l-50 -28l5 -12l44 14h136v-72h-136l-44 14l-5 -12l50 -28l88 -88l-51 -51l-88 88l-28 50l-12 -5l14 -44v-136h-72v136l14 44l-12 5l-28 -50
l-88 -88l-51 51l88 88l50 28l-5 12l-44 -14h-136v72h136z" />
    <glyph glyph-name="plus" unicode="+" 
d="M273 386v173h74v-173h172v-72h-172v-173h-74v173h-172v72h172z" />
    <glyph glyph-name="comma" unicode="," horiz-adv-x="243" 
d="M72.5 104.5q19.5 19.5 49.5 19.5q29 0 49 -19.5t20 -49.5v-100q0 -34 -21 -54t-55 -20h-59v47h54q27 0 27 27v36q-6 -2 -17 -2q-29 0 -48 19t-19 47q0 30 19.5 49.5z" />
    <glyph glyph-name="hyphen" unicode="-" horiz-adv-x="460" 
d="M82 292h296v-71h-296v71z" />
    <glyph glyph-name="period" unicode="." horiz-adv-x="243" 
d="M72.5 104.5q19.5 19.5 49.5 19.5q29 0 49 -19.5t20 -49.5t-20 -49.5t-49 -19.5q-30 0 -49.5 19.5t-19.5 49.5t19.5 49.5z" />
    <glyph glyph-name="slash" unicode="/" horiz-adv-x="473" 
d="M420 700l-294 -900h-77l294 900h77z" />
    <glyph glyph-name="zero" unicode="0" horiz-adv-x="614" 
d="M119.5 640q67.5 74 187.5 74t187.5 -74t67.5 -211v-158q0 -139 -67 -212t-188 -73t-188 73t-67 212v158q0 137 67.5 211zM133 266q0 -99 44 -153t130 -54q87 0 130.5 54.5t43.5 152.5v168q0 98 -45 153t-129 55t-129 -55t-45 -153v-168z" />
    <glyph glyph-name="one" unicode="1" horiz-adv-x="405" 
d="M331 700l-1 -700h-81v612h-12l-139 -215h-91l196 303h128z" />
    <glyph glyph-name="two" unicode="2" horiz-adv-x="580" 
d="M78.5 602.5q33.5 54.5 91 83t128.5 28.5q69 0 124 -28t86.5 -79.5t31.5 -118.5q0 -94 -57.5 -150t-168.5 -85q-70 -19 -108.5 -35.5t-59.5 -45.5t-21 -78v-21h416v-73h-497v86q0 100 58.5 151.5t172.5 79.5q91 23 137.5 63.5t46.5 108.5q0 71 -44 112t-117 41
q-77 0 -124.5 -45t-47.5 -128v-20h-81v24q0 75 33.5 129.5z" />
    <glyph glyph-name="three" unicode="3" horiz-adv-x="577" 
d="M533 700v-72l-233 -198v-11h24q60 0 108.5 -25t76.5 -72t28 -111q0 -66 -31.5 -117t-87 -79.5t-125.5 -28.5q-119 0 -188 63.5t-69 175.5v33h82v-33q0 -80 46.5 -123t128.5 -43q74 0 118.5 43.5t44.5 109.5q0 69 -45 106t-115 37h-99v77l226 194h-371v74h481z" />
    <glyph glyph-name="four" unicode="4" horiz-adv-x="597" 
d="M467 700v-485h120v-73h-120v-142h-82v142h-370v70l319 488h133zM102 215h283v411h-12z" />
    <glyph glyph-name="five" unicode="5" horiz-adv-x="576" 
d="M521 700v-73h-377v-250h12q49 94 170 94q59 0 107.5 -28.5t77 -81t28.5 -122.5q0 -74 -30.5 -131.5t-87 -89.5t-130.5 -32t-131 29.5t-88.5 83t-31.5 123.5v25h80v-19q0 -81 45.5 -125t123.5 -44q79 0 123 47t44 131q0 76 -40.5 120.5t-109.5 44.5q-88 0 -128 -78h-115
v376h458z" />
    <glyph glyph-name="six" unicode="6" horiz-adv-x="587" 
d="M515 103q-32 -55 -88.5 -86t-127.5 -31q-70 0 -126 30t-88.5 84t-32.5 125v243q0 75 31 130.5t88.5 85.5t133.5 30q74 0 127 -28t81 -77.5t28 -111.5h-82q0 67 -39.5 106t-114.5 39q-81 0 -126.5 -44t-45.5 -123v-98h12q21 37 63.5 63t111.5 26q64 0 115.5 -30t81.5 -84
t30 -123q0 -71 -32 -126zM179.5 353.5q-46.5 -47.5 -46.5 -124.5t46 -123.5t121 -46.5q74 0 120 46.5t46 123.5t-46 124.5t-120 47.5t-120.5 -47.5z" />
    <glyph glyph-name="seven" unicode="7" horiz-adv-x="541" 
d="M527 700v-70l-301 -630h-91l299 626h-421v74h514z" />
    <glyph glyph-name="eight" unicode="8" horiz-adv-x="578" 
d="M78.5 623q29.5 43 84 67t126.5 24t126.5 -24t84.5 -67t30 -97q0 -63 -36 -102t-87 -56v-12q31 -6 62 -26.5t52 -57t21 -86.5q0 -59 -32 -104.5t-89.5 -70.5t-131.5 -25t-131.5 25t-89.5 70.5t-32 104.5q0 50 21 86.5t52 57t62 26.5v12q-50 17 -86 56t-36 102
q0 54 29.5 97zM174.5 429.5q44.5 -32.5 114.5 -32.5t114.5 32.5t44.5 89.5t-44.5 90t-114.5 33t-114.5 -33t-44.5 -90t44.5 -89.5zM164.5 93.5q46.5 -34.5 124.5 -34.5t125 34.5t47 98.5q0 63 -47 98t-125 35t-124.5 -35t-46.5 -98q0 -64 46.5 -98.5z" />
    <glyph glyph-name="nine" unicode="9" horiz-adv-x="588" 
d="M73 598.5q33 55.5 90 85.5t128 30q69 0 124.5 -30t87.5 -84t32 -124v-244q0 -75 -31 -130.5t-88 -85.5t-133 -30q-74 0 -127.5 28t-81.5 77.5t-28 111.5h82q0 -66 39.5 -105t115.5 -39q81 0 126 43.5t45 122.5v98h-12q-20 -36 -63 -62t-112 -26q-63 0 -115 30t-82 84
t-30 123q0 71 33 126.5zM408 346.5q46 47.5 46 125.5q0 77 -46 123.5t-120 46.5q-75 0 -120.5 -46.5t-45.5 -123.5q0 -78 46 -125.5t120 -47.5t120 47.5z" />
    <glyph glyph-name="colon" unicode=":" horiz-adv-x="243" 
d="M72.5 104.5q19.5 19.5 49.5 19.5q29 0 49 -19.5t20 -49.5t-20 -49.5t-49 -19.5q-30 0 -49.5 19.5t-19.5 49.5t19.5 49.5zM72.5 490.5q19.5 19.5 49.5 19.5q29 0 49 -19.5t20 -49.5t-20 -49.5t-49 -19.5q-30 0 -49.5 19.5t-19.5 49.5t19.5 49.5z" />
    <glyph glyph-name="semicolon" unicode=";" horiz-adv-x="243" 
d="M72.5 490.5q19.5 19.5 49.5 19.5q29 0 49 -19.5t20 -49.5t-20 -49.5t-49 -19.5q-30 0 -49.5 19.5t-19.5 49.5t19.5 49.5zM72.5 104.5q19.5 19.5 49.5 19.5q29 0 49 -19.5t20 -49.5v-100q0 -34 -21 -54t-55 -20h-59v47h54q27 0 27 27v36q-6 -2 -17 -2q-29 0 -48 19t-19 47
q0 30 19.5 49.5z" />
    <glyph glyph-name="less" unicode="&#x3c;" 
d="M100 399l420 171v-83l-341 -131v-12l341 -131v-83l-420 171v98z" />
    <glyph glyph-name="equal" unicode="=" 
d="M101 457h418v-70h-418v70zM101 314h418v-71h-418v71z" />
    <glyph glyph-name="greater" unicode="&#x3e;" 
d="M100 130v83l342 131v12l-342 131v83l420 -171v-98z" />
    <glyph glyph-name="question" unicode="?" horiz-adv-x="610" 
d="M89.5 616q31.5 48 88 73t128.5 25q70 0 125.5 -25.5t86.5 -70.5t31 -101v-7q0 -75 -40.5 -120.5t-110.5 -74.5l-29 -12q-20 -9 -27.5 -22t-7.5 -38v-56h-81v58q0 48 15.5 74.5t59.5 45.5l28 12q58 24 84.5 53.5t26.5 81.5q0 60 -45.5 93.5t-115.5 33.5q-72 0 -119 -36
t-47 -105v-36h-82v40q0 66 31.5 114zM244 104.5q20 19.5 49 19.5q30 0 49.5 -19.5t19.5 -49.5t-19.5 -49.5t-49.5 -19.5q-29 0 -49 19.5t-20 49.5t20 49.5z" />
    <glyph glyph-name="at" unicode="@" horiz-adv-x="1027" 
d="M82 505q0 95 50.5 145t144.5 50h480q92 0 140 -47.5t48 -139.5v-424q0 -42 -23 -65.5t-66 -23.5h-130q-34 0 -53 18t-19 49v17h-12q-15 -40 -51 -69t-99 -29q-59 0 -106 32t-74 88.5t-27 125.5v17q0 70 26.5 126.5t73 88.5t104.5 32q62 0 97 -28.5t52 -67.5h13v82h74
v-389q0 -13 6 -19t19 -6h80q21 0 30 9.5t9 30.5v409q0 56 -28.5 84.5t-84.5 28.5h-470q-128 0 -128 -127v-506q0 -127 128 -127h643v-70h-652q-94 0 -144.5 50t-50.5 145v510zM402.5 105.5q39.5 -48.5 103.5 -48.5q65 0 104.5 48t39.5 130v11q0 82 -39.5 130.5t-104.5 48.5
q-64 0 -103.5 -48.5t-39.5 -129.5v-12q0 -81 39.5 -129.5z" />
    <glyph glyph-name="A" unicode="A" horiz-adv-x="607" 
d="M366 700l228 -700h-86l-57 178h-296l-56 -178h-87l228 700h126zM429 251l-120 376h-12l-120 -376h252z" />
    <glyph glyph-name="B" unicode="B" horiz-adv-x="619" 
d="M365 700q59 0 106 -22t73.5 -63.5t26.5 -97.5q0 -64 -36 -104.5t-88 -54.5v-12q52 -12 88 -53.5t36 -106.5q0 -86 -58.5 -136t-150.5 -50h-288v700h291zM155 388h204q62 0 97.5 33t35.5 89q0 53 -36.5 85t-97.5 32h-203v-239zM155 73h204q62 0 97.5 33.5t35.5 88.5
q0 56 -36 88t-101 32h-200v-242z" />
    <glyph glyph-name="C" unicode="C" horiz-adv-x="632" 
d="M85.5 578.5q33.5 65.5 96 100.5t147.5 35q124 0 191.5 -67t67.5 -184v-18h-81v18q0 84 -46 131.5t-132 47.5q-92 0 -144 -58.5t-52 -158.5v-150q0 -102 51.5 -159t144.5 -57q178 0 178 176v20h81v-20q0 -116 -68 -182.5t-191 -66.5q-129 0 -203 76.5t-74 215.5v144
q0 91 33.5 156.5z" />
    <glyph glyph-name="D" unicode="D" horiz-adv-x="628" 
d="M292 700q284 0 284 -281v-138q0 -281 -284 -281h-218v700h218zM155 73h136q108 0 155.5 47.5t47.5 155.5v148q0 108 -48.5 155.5t-154.5 47.5h-136v-554z" />
    <glyph glyph-name="E" unicode="E" horiz-adv-x="559" 
d="M513 700v-73h-358v-239h330v-73h-330v-242h363v-73h-444v700h439z" />
    <glyph glyph-name="F" unicode="F" horiz-adv-x="533" 
d="M503 700v-73h-348v-239h328v-74h-328v-314h-81v700h429z" />
    <glyph glyph-name="G" unicode="G" horiz-adv-x="638" 
d="M52 422q0 91 33.5 156.5t96 100.5t146.5 35q125 0 191.5 -67t66.5 -186v-9h-81v9q0 85 -45.5 133t-130.5 48q-92 0 -144 -58.5t-52 -158.5v-150q0 -102 51 -159t144 -57q177 0 177 176v27h-210v72h291v-96q0 -119 -68 -185.5t-190 -66.5q-129 0 -202.5 76.5t-73.5 215.5
v144z" />
    <glyph glyph-name="H" unicode="H" horiz-adv-x="641" 
d="M155 700v-312h332v312h81v-700h-81v314h-332v-314h-81v700h81z" />
    <glyph glyph-name="I" unicode="I" horiz-adv-x="229" 
d="M155 700v-700h-81v700h81z" />
    <glyph glyph-name="J" unicode="J" horiz-adv-x="537" 
d="M468 210q0 -109 -53.5 -166.5t-156.5 -57.5q-104 0 -163 58t-59 166v54h82v-54q0 -70 35.5 -110.5t104.5 -40.5q128 0 128 151v490h82v-490z" />
    <glyph glyph-name="K" unicode="K" horiz-adv-x="628" 
d="M328 415l296 -415h-100l-253 361l-116 -109v-252h-81v700h81v-336h12l352 336h112z" />
    <glyph glyph-name="L" unicode="L" horiz-adv-x="535" 
d="M155 700v-627h362v-73h-443v700h81z" />
    <glyph glyph-name="M" unicode="M" horiz-adv-x="870" 
d="M218 700l211 -611h12l210 611h145v-700h-80v609h-12l-209 -609h-121l-208 609h-12v-609h-80v700h144z" />
    <glyph glyph-name="N" unicode="N" horiz-adv-x="651" 
d="M215 700l270 -615h12v615h81v-700h-142l-269 615h-12v-615h-81v700h141z" />
    <glyph glyph-name="O" unicode="O" horiz-adv-x="652" 
d="M125.5 639q73.5 75 200.5 75t200.5 -75t73.5 -212v-154q0 -138 -73 -212.5t-201 -74.5t-201 74.5t-73 212.5v154q0 137 73.5 212zM133 269q0 -99 50.5 -154.5t142.5 -55.5t142 56t50 154v162q0 98 -51 154.5t-141 56.5q-91 0 -142 -57t-51 -154v-162z" />
    <glyph glyph-name="P" unicode="P" horiz-adv-x="586" 
d="M340 700q63 0 113 -25t78.5 -72.5t28.5 -110.5t-29 -110.5t-79 -73t-112 -25.5h-185v-283h-81v700h266zM155 357h176q69 0 108 35.5t39 99.5q0 63 -39 99t-108 36h-176v-270z" />
    <glyph glyph-name="Q" unicode="Q" horiz-adv-x="652" 
d="M526.5 639q73.5 -75 73.5 -212v-154q0 -127 -62 -200.5t-172 -84.5v-47q0 -30 28 -30h65v-72h-98q-35 0 -55.5 21t-20.5 56v72q-110 12 -171.5 85.5t-61.5 199.5v154q0 137 73.5 212t200.5 75t200.5 -75zM518 431q0 98 -51 154.5t-141 56.5q-91 0 -142 -57t-51 -154v-162
q0 -99 50.5 -154.5t142.5 -55.5t142 56t50 154v162z" />
    <glyph glyph-name="R" unicode="R" horiz-adv-x="615" 
d="M532 359q-48 -53 -127 -65l159 -294h-90l-152 290h-167v-290h-81v700h286q63 0 113 -25t78.5 -71t28.5 -109q0 -83 -48 -136zM155 363h196q69 0 108 35t39 97t-39 96.5t-108 34.5h-196v-263z" />
    <glyph glyph-name="S" unicode="S" horiz-adv-x="611" 
d="M435.5 689q56.5 -25 89 -72.5t32.5 -114.5v-40h-80v35q0 72 -48 108.5t-124 36.5q-65 0 -108.5 -32t-43.5 -85q0 -38 18.5 -61.5t50.5 -37t85 -26.5l49 -12q101 -24 152.5 -68.5t51.5 -127.5q0 -63 -32 -109.5t-87.5 -71.5t-126.5 -25q-129 0 -200.5 67.5t-71.5 190.5v25
h81v-22q0 -93 50 -141t141 -48q78 0 122 37t44 94q0 53 -39 82t-116 47l-49 11q-102 24 -153 67.5t-51 127.5q0 56 31 99t84.5 67t119.5 24q72 0 128.5 -25z" />
    <glyph glyph-name="T" unicode="T" horiz-adv-x="582" 
d="M565 700v-73h-233v-627h-81v627h-234v73h548z" />
    <glyph glyph-name="U" unicode="U" horiz-adv-x="653" 
d="M151 700v-468q0 -85 46 -129t130 -44t130 44t46 129v468h81v-466q0 -120 -69 -184t-188 -64t-188 64t-69 184v466h81z" />
    <glyph glyph-name="V" unicode="V" horiz-adv-x="605" 
d="M99 700l198 -621h12l197 621h86l-228 -700h-123l-227 700h85z" />
    <glyph glyph-name="W" unicode="W" horiz-adv-x="880" 
d="M111 700l109 -613h12l143 613h131l142 -613h12l109 613h83l-127 -700h-136l-143 613h-12l-143 -613h-135l-127 700h82z" />
    <glyph glyph-name="X" unicode="X" horiz-adv-x="621" 
d="M122 700l182 -287h13l182 287h94l-216 -341v-12l219 -347h-94l-185 293h-13l-185 -293h-94l220 347v12l-217 341h94z" />
    <glyph glyph-name="Y" unicode="Y" horiz-adv-x="617" 
d="M110 700l192 -336h14l191 336h94l-252 -436v-264h-81v264l-252 436h94z" />
    <glyph glyph-name="Z" unicode="Z" horiz-adv-x="580" 
d="M535 700v-68l-394 -559h402v-73h-502v69l395 559h-384v72h483z" />
    <glyph glyph-name="bracketleft" unicode="[" horiz-adv-x="353" 
d="M157.5 784q21.5 22 55.5 22h107v-69h-80q-27 0 -27 -30v-854q0 -30 27 -30h80v-69h-107q-34 0 -55.5 22t-21.5 55v898q0 33 21.5 55z" />
    <glyph glyph-name="backslash" unicode="\" horiz-adv-x="475" 
d="M426 -200h-77l-294 900h77z" />
    <glyph glyph-name="bracketright" unicode="]" horiz-adv-x="353" 
d="M217 -169q0 -33 -21.5 -55t-55.5 -22h-107v69h80q27 0 27 30v854q0 30 -27 30h-80v69h107q34 0 55.5 -22t21.5 -55v-898z" />
    <glyph glyph-name="asciicircum" unicode="^" 
d="M546 424h-92l-138 223h-12l-137 -223h-93l175 276h122z" />
    <glyph glyph-name="underscore" unicode="_" 
d="M77 -48h466v-71h-466v71z" />
    <glyph glyph-name="grave" unicode="`" horiz-adv-x="264" 
d="M211 570h-75l-83 130h92z" />
    <glyph glyph-name="a" unicode="a" horiz-adv-x="560" 
d="M140 461q57 41 146 41q97 0 152 -52t55 -140v-310h-74v81h-14q-27 -43 -70.5 -69t-114.5 -26q-82 0 -132.5 39.5t-50.5 104.5q0 64 44 99.5t120 42.5l216 21v21q0 56 -36 89.5t-99 33.5q-60 0 -101.5 -31t-65.5 -83l-65 36q33 61 90 102zM147 73q32 -22 85 -22
q81 0 133 46t52 124v8l-201 -19q-48 -5 -74.5 -25t-26.5 -54q0 -36 32 -58z" />
    <glyph glyph-name="b" unicode="b" horiz-adv-x="615" 
d="M150 700v-297h12q53 99 180 99q64 0 117 -32.5t84 -91.5t31 -134t-31 -134t-84 -91.5t-117 -32.5q-127 0 -180 99h-14v-85h-75v700h77zM198.5 381.5q-48.5 -51.5 -48.5 -137.5t48.5 -137.5t125.5 -51.5t124.5 51t47.5 138t-47.5 138t-124.5 51t-125.5 -51.5z" />
    <glyph glyph-name="c" unicode="c" horiz-adv-x="568" 
d="M75.5 377q33.5 59 91 92t127.5 33q93 0 156 -52t78 -133l-76 -18q-8 60 -50 97t-107 37q-49 0 -89 -24.5t-63 -67.5t-23 -97t22.5 -97t63 -67.5t90.5 -24.5q68 0 107.5 36t50.5 98l76 -17q-16 -82 -78 -134t-157 -52q-70 0 -128 33t-91.5 92t-33.5 133t33.5 133z" />
    <glyph glyph-name="d" unicode="d" horiz-adv-x="615" 
d="M542 0h-74v86h-14q-55 -99 -180 -99q-65 0 -118 32.5t-83.5 91.5t-30.5 134t30.5 134t83.5 91.5t118 32.5q125 0 180 -99h12v296h76v-700zM167.5 383q-47.5 -51 -47.5 -138t47.5 -138t123.5 -51q77 0 126 51.5t49 137.5q0 57 -22.5 99.5t-62 66t-90.5 23.5
q-76 0 -123.5 -51z" />
    <glyph glyph-name="e" unicode="e" horiz-adv-x="558" 
d="M72.5 378q31.5 58 87.5 91t126 33q69 0 122 -29.5t83 -83.5t30 -127v-40h-400q5 -77 51 -122.5t120 -45.5q109 0 153 99l67 -34q-31 -59 -81 -96t-138 -37q-74 0 -131 34t-89 94t-32 134q0 72 31.5 130zM441 285q-3 71 -44.5 110t-110.5 39t-113 -40t-52 -109h320z" />
    <glyph glyph-name="f" unicode="f" horiz-adv-x="432" 
d="M173 488v133q0 36 21 57.5t56 21.5h129v-65h-101q-28 0 -28 -30v-117h155v-65h-155v-423h-77v423h-152v65h152z" />
    <glyph glyph-name="g" unicode="g" horiz-adv-x="615" 
d="M542 488v-467q0 -68 -29 -121t-83.5 -83.5t-127.5 -30.5q-91 0 -151 36.5t-99 100.5l67 39q24 -47 69.5 -77.5t108.5 -30.5q76 0 122.5 44t46.5 128v70h-12q-55 -99 -180 -99q-65 0 -118 31.5t-83.5 89.5t-30.5 132t30.5 131.5t83.5 89t118 31.5q125 0 180 -99h14v85h74z
M417 116q49 50 49 134q0 83 -49 133t-126 50q-76 0 -123.5 -49.5t-47.5 -133.5q0 -85 47.5 -134.5t123.5 -49.5q77 0 126 50z" />
    <glyph glyph-name="h" unicode="h" horiz-adv-x="594" 
d="M150 700v-300h12q21 43 62 70.5t109 27.5q54 0 98 -23.5t70 -69t26 -109.5v-296h-76v289q0 70 -37 105t-103 35q-73 0 -117 -47t-44 -135v-247h-77v700h77z" />
    <glyph glyph-name="i" unicode="i" horiz-adv-x="222" 
d="M150 0h-77v488h77v-488zM65 686q18 18 46 18t46.5 -18t18.5 -45q0 -28 -18.5 -46t-46.5 -18t-46 18t-18 46q0 27 18 45z" />
    <glyph glyph-name="j" unicode="j" horiz-adv-x="229" 
d="M156 -124q0 -35 -20.5 -55.5t-55.5 -20.5h-125v66h97q28 0 28 30v592h76v-612zM71 686q18 18 46 18t46.5 -18t18.5 -45q0 -28 -18.5 -46t-46.5 -18t-46 18t-18 46q0 27 18 45z" />
    <glyph glyph-name="k" unicode="k" horiz-adv-x="553" 
d="M311 295l219 -295h-91l-183 248l-106 -91v-157h-77v700h77v-440h12l262 228h112z" />
    <glyph glyph-name="l" unicode="l" horiz-adv-x="222" 
d="M150 0h-77v700h77v-700z" />
    <glyph glyph-name="m" unicode="m" horiz-adv-x="838" 
d="M148 488v-69h14q40 79 139 79q51 0 87 -24.5t52 -65.5h14q44 90 151 90q73 0 119.5 -46t46.5 -119v-333h-77v326q0 47 -29.5 75t-80.5 28q-55 0 -89.5 -34.5t-34.5 -97.5v-297h-76v326q0 47 -30 75t-81 28q-54 0 -88.5 -34.5t-34.5 -97.5v-297h-77v488h75z" />
    <glyph glyph-name="n" unicode="n" horiz-adv-x="594" 
d="M148 488v-88h14q21 43 62 70.5t109 27.5q54 0 98 -23.5t70 -69t26 -109.5v-296h-76v289q0 70 -37 105t-103 35q-73 0 -117 -47t-44 -135v-247h-77v488h75z" />
    <glyph glyph-name="o" unicode="o" horiz-adv-x="582" 
d="M73.5 378q31.5 59 88 91.5t129.5 32.5t130 -32.5t88.5 -91.5t31.5 -134t-31.5 -133.5t-88.5 -91.5t-130 -33t-129.5 33t-88 91.5t-31.5 133.5t31.5 134zM165 106.5q47 -51.5 126 -51.5q78 0 125.5 52.5t47.5 136.5t-47.5 136.5t-125.5 52.5q-52 0 -91 -24.5t-60.5 -67.5
t-21.5 -97q0 -86 47 -137.5z" />
    <glyph glyph-name="p" unicode="p" horiz-adv-x="615" 
d="M73 488h75v-85h14q53 99 180 99q64 0 117 -32.5t84 -91.5t31 -134t-31 -134t-84 -91.5t-117 -32.5q-127 0 -180 99h-12v-285h-77v688zM448.5 106q47.5 51 47.5 138t-47.5 138t-124.5 51t-125.5 -51.5t-48.5 -137.5t48.5 -137.5t125.5 -51.5t124.5 51z" />
    <glyph glyph-name="q" unicode="q" horiz-adv-x="615" 
d="M466 -200v285h-12q-55 -99 -180 -99q-65 0 -118 32.5t-83.5 91.5t-30.5 134t30.5 134t83.5 91.5t118 32.5q125 0 180 -99h14v85h74v-688h-76zM381.5 78.5q39.5 23.5 62 66t22.5 99.5q0 86 -49 137.5t-126 51.5q-76 0 -123.5 -51t-47.5 -138t47.5 -138t123.5 -51
q51 0 90.5 23.5z" />
    <glyph glyph-name="r" unicode="r" horiz-adv-x="365" 
d="M148 423h14q14 36 43.5 51.5t78.5 15.5h63v-68h-79q-56 0 -87 -31t-31 -92v-299h-77v488h75v-65z" />
    <glyph glyph-name="s" unicode="s" horiz-adv-x="521" 
d="M107 464q51 38 132 38q76 0 136.5 -31t103.5 -85l-56 -44q-36 50 -83.5 73t-98.5 23q-49 0 -79.5 -19.5t-30.5 -53.5q0 -33 27 -50.5t80 -26.5l59 -10q86 -14 133.5 -46t47.5 -97q0 -67 -55.5 -108t-139.5 -41q-87 0 -154.5 38.5t-104.5 112.5l64 34q30 -65 81 -93
t112 -28q55 0 88.5 22t33.5 59q0 34 -29.5 52t-85.5 27l-59 10q-85 14 -129 47.5t-44 94.5q0 64 51 102z" />
    <glyph glyph-name="t" unicode="t" horiz-adv-x="436" 
d="M163 488v175h76v-175h161v-65h-161v-327q0 -30 28 -30h105v-66h-134q-34 0 -54.5 21t-20.5 56v346h-152v65h152z" />
    <glyph glyph-name="u" unicode="u" horiz-adv-x="594" 
d="M447 0v88h-14q-49 -97 -172 -97q-54 0 -98 23t-70 68.5t-26 109.5v296h77v-289q0 -70 36.5 -105t102.5 -35q73 0 117.5 47t44.5 135v247h76v-488h-74z" />
    <glyph glyph-name="v" unicode="v" horiz-adv-x="527" 
d="M104 488l153 -416h12l154 416h82l-187 -488h-109l-187 488h82z" />
    <glyph glyph-name="w" unicode="w" horiz-adv-x="778" 
d="M115 488l92 -414h12l115 414h109l115 -414h12l93 414h78l-117 -488h-114l-115 414h-12l-115 -414h-114l-117 488h78z" />
    <glyph glyph-name="x" unicode="x" horiz-adv-x="575" 
d="M134 488l147 -191h12l147 191h94l-187 -239l193 -249h-95l-152 198h-12l-151 -198h-95l192 249l-186 239h93z" />
    <glyph glyph-name="y" unicode="y" horiz-adv-x="548" 
d="M527 488l-293 -688h-82l81 187l-211 501h82l165 -397h10l165 397h83z" />
    <glyph glyph-name="z" unicode="z" horiz-adv-x="529" 
d="M480 488v-59l-328 -363h336v-66h-438v60l328 363h-319v65h421z" />
    <glyph glyph-name="braceleft" unicode="{" horiz-adv-x="381" 
d="M137 328q27 0 27 29v372q0 33 22 55t55 22h107v-69h-80q-27 0 -27 -30v-346q0 -34 -19 -54.5t-52 -20.5h-9v-12h9q33 0 52 -20.5t19 -54.5v-346q0 -30 27 -30h80v-69h-107q-33 0 -55 22t-22 55v372q0 29 -27 29h-57v96h57z" />
    <glyph glyph-name="bar" unicode="|" horiz-adv-x="224" 
d="M150 -246h-76v1052h76v-1052z" />
    <glyph glyph-name="braceright" unicode="}" horiz-adv-x="381" 
d="M302 232h-58q-27 0 -27 -29v-372q0 -33 -21.5 -55t-55.5 -22h-107v69h80q27 0 27 30v346q0 34 19 54.5t53 20.5h9v12h-9q-34 0 -53 20.5t-19 54.5v346q0 30 -27 30h-80v69h107q34 0 55.5 -22t21.5 -55v-372q0 -29 27 -29h58v-96z" />
    <glyph glyph-name="asciitilde" unicode="~" 
d="M343 344.5q7 -11.5 14 -16t16 -4.5t15 3.5t17 12.5l84 68l45 -55l-92 -74q-21 -18 -38 -27t-37 -9q-29 0 -47 13.5t-34 40.5q-13 21 -19.5 28t-18.5 7q-9 0 -16.5 -3.5t-16.5 -11.5l-84 -69l-45 56l92 73q21 17 38.5 26.5t37.5 9.5q29 0 46.5 -13.5t33.5 -40.5
q2 -3 9 -14.5z" />
    <glyph glyph-name="exclamdown" unicode="&#xa1;" horiz-adv-x="243" 
d="M72.5 490.5q19.5 19.5 49.5 19.5q29 0 49 -19.5t20 -49.5t-20 -49.5t-49 -19.5q-30 0 -49.5 19.5t-19.5 49.5t19.5 49.5zM81 309h81v-509h-81v509z" />
    <glyph glyph-name="cent" unicode="&#xa2;" horiz-adv-x="611" 
d="M485 448v13q0 73 -33.5 119.5t-96.5 57.5v-576q130 19 130 176v18h82v-21q0 -106 -55.5 -171.5t-156.5 -75.5v-104h-75v104q-107 11 -167.5 87t-60.5 204v142q0 126 60.5 202.5t167.5 88.5v104h75v-104q102 -10 157 -76t55 -173v-15h-82zM171 130q38 -56 109 -68v576
q-71 -12 -109 -68.5t-38 -145.5v-148q0 -90 38 -146z" />
    <glyph glyph-name="sterling" unicode="&#xa3;" horiz-adv-x="628" 
d="M133 378v120q0 105 56 160.5t154 55.5q100 0 158 -56.5t58 -159.5v-59h-80v59q0 66 -35.5 104.5t-98.5 38.5t-98 -38t-35 -105v-120h126v-70h-126v-235h351v-73h-504v73h74v235h-70v70h70z" />
    <glyph glyph-name="currency" unicode="&#xa4;" 
d="M102 609l59 -59q68 50 149 50t149 -50l59 59l51 -51l-59 -59q50 -68 50 -149t-50 -149l59 -59l-51 -51l-59 59q-62 -50 -149 -50t-149 50l-59 -59l-51 51l59 59q-50 62 -50 149t50 149l-59 59zM155.5 256.5q23.5 -41.5 64 -64.5t90.5 -23t90.5 23.5t64 64.5t23.5 93
t-23.5 93.5t-64 64.5t-90.5 23t-90.5 -23.5t-64 -64.5t-23.5 -93t23.5 -93.5z" />
    <glyph glyph-name="yen" unicode="&#xa5;" 
d="M395 341h117v-65h-161v-58h161v-65h-161v-153h-82v153h-161v65h161v58h-161v65h117l-207 359h94l192 -337h12l192 337h95z" />
    <glyph glyph-name="brokenbar" unicode="&#xa6;" horiz-adv-x="224" 
d="M74 366v440h76v-440h-76zM150 194v-440h-76v440h76z" />
    <glyph glyph-name="section" unicode="&#xa7;" horiz-adv-x="499" 
d="M118 673.5q51 40.5 128 40.5q87 0 140 -42.5t53 -119.5v-32h-73v26q0 48 -33.5 74.5t-85.5 26.5q-47 0 -76.5 -21t-29.5 -62q0 -45 32 -65.5t101 -34.5q88 -18 130 -51.5t42 -93.5q0 -49 -25 -83q23 -37 23 -80v-7q0 -74 -48.5 -118.5t-138.5 -44.5q-99 0 -156.5 53
t-57.5 145v21h73v-17q0 -63 36.5 -99t104.5 -36q54 0 84 26t30 69q0 42 -28.5 63t-98.5 33q-91 16 -134 52t-43 99q0 25 6 44t21 37q-27 35 -27 84v5q0 68 51 108.5zM362 282q9 14 9 33q0 35 -29 54t-96 31q-49 9 -95 31q-10 -15 -10 -36q0 -36 29.5 -55t100.5 -31
q57 -11 91 -27z" />
    <glyph glyph-name="dieresis" unicode="&#xa8;" horiz-adv-x="412" 
d="M71 686q18 18 46 18t46.5 -18t18.5 -45q0 -28 -18.5 -46t-46.5 -18t-46 18t-18 46q0 27 18 45zM248 686q18 18 46 18t46.5 -18t18.5 -45q0 -28 -18.5 -46t-46.5 -18t-46 18t-18 46q0 27 18 45z" />
    <glyph glyph-name="copyright" unicode="&#xa9;" horiz-adv-x="724" 
d="M121.5 652q47.5 48 137.5 48h206q90 0 137.5 -48t47.5 -144v-316q0 -96 -47.5 -144t-137.5 -48h-206q-90 0 -137.5 48t-47.5 144v316q0 96 47.5 144zM142 196q0 -66 29 -99t91 -33h200q62 0 91 33t29 99v308q0 66 -29 99.5t-91 33.5h-200q-62 0 -91 -33.5t-29 -99.5v-308
zM260 528q40 42 106 42q67 0 104 -39.5t37 -106.5v-19h-68v25q0 35 -17.5 56t-54.5 21q-36 0 -57 -22t-21 -63v-146q0 -38 22 -59.5t56 -21.5q35 0 53.5 19.5t18.5 59.5v21h68v-19q0 -66 -36 -105t-104 -39q-69 0 -108 40.5t-39 117.5v118q0 78 40 120z" />
    <glyph glyph-name="guillemotleft" unicode="&#xab;" horiz-adv-x="780" 
d="M382 470h6v-87l-243 -133v-12l243 -133v-87h-6l-314 183v86zM702 470h6v-87l-244 -133v-12l244 -133v-87h-6l-314 183v86z" />
    <glyph glyph-name="logicalnot" unicode="&#xac;" 
d="M101 386h418v-154h-70v82h-348v72z" />
    <glyph glyph-name="registered" unicode="&#xae;" 
d="M127.5 613.5q27.5 47.5 75.5 74t107 26.5t107 -26.5t75.5 -74t27.5 -107.5t-27.5 -107.5t-75.5 -74t-107 -26.5t-107 26.5t-75.5 74t-27.5 107.5t27.5 107.5zM187.5 383.5q46.5 -46.5 122.5 -46.5q77 0 123 46.5t46 122.5q0 77 -46 123t-123 46q-76 0 -122.5 -46
t-46.5 -123q0 -76 46.5 -122.5zM323 619q35 0 55 -18t20 -44q0 -42 -40 -56v-6q16 -1 24 -11t8 -23v-64h-39v61q0 10 -5.5 15.5t-15.5 5.5h-53v-82h-39v222h85zM277 515h47q16 0 25.5 10t9.5 25q0 14 -9.5 24t-25.5 10h-47v-69z" />
    <glyph glyph-name="macron" unicode="&#xaf;" horiz-adv-x="388" 
d="M335 570h-282v64h282v-64z" />
    <glyph glyph-name="degree" unicode="&#xb0;" horiz-adv-x="381" 
d="M70.5 649q18.5 31 50.5 49t70 18q59 0 98.5 -38t39.5 -98q0 -39 -19 -70t-50.5 -48t-68.5 -17t-69 18t-51 48.5t-19 68.5t18.5 69zM139.5 529q20.5 -20 51.5 -20q30 0 50.5 20t20.5 51q0 32 -20 51.5t-51 19.5t-51.5 -19.5t-20.5 -51.5q0 -31 20.5 -51z" />
    <glyph glyph-name="plusminus" unicode="&#xb1;" 
d="M101 386h173v173h72v-173h173v-72h-173v-173h-72v173h-173v72zM101 71h418v-71h-418v71z" />
    <glyph glyph-name="acute" unicode="&#xb4;" horiz-adv-x="264" 
d="M208 700l-77 -130h-74l57 130h94z" />
    <glyph glyph-name="uni00B5" unicode="&#xb5;" horiz-adv-x="594" 
d="M73 496h77v-289q0 -75 35 -113.5t104 -38.5q77 0 119.5 47.5t42.5 134.5v259h76v-496h-74v88h-12q-20 -50 -57.5 -76t-97.5 -26q-44 0 -75.5 16t-49.5 41h-11v-243h-77v696z" />
    <glyph glyph-name="paragraph" unicode="&#xb6;" horiz-adv-x="569" 
d="M89 645q61 51 159 51h247v-696h-73v629h-89v-629h-72v302h-15q-97 0 -157.5 52t-60.5 140v11q0 89 61 140zM101 496q0 -57 37 -92t107 -35h16v260h-16q-70 0 -107 -35t-37 -92v-6z" />
    <glyph glyph-name="periodcentered" unicode="&#xb7;" horiz-adv-x="243" 
d="M72.5 399.5q19.5 19.5 49.5 19.5q29 0 49 -19.5t20 -49.5t-20 -49.5t-49 -19.5q-30 0 -49.5 19.5t-19.5 49.5t19.5 49.5z" />
    <glyph glyph-name="cedilla" unicode="&#xb8;" horiz-adv-x="300" 
d="M131 32l-18 -93h6q18 20 50 20q33 0 55.5 -22t22.5 -60q0 -41 -26.5 -65.5t-68.5 -24.5q-64 0 -90 50l38 37q5 -16 18 -25.5t31 -9.5q17 0 28.5 10.5t11.5 28.5q0 17 -9.5 26.5t-25.5 9.5q-17 0 -29 -13h-72v6l26 125h52z" />
    <glyph glyph-name="guillemotright" unicode="&#xbb;" horiz-adv-x="780" 
d="M388 201l-314 -183h-6v87l244 133v12l-244 133v87h6l314 -183v-86zM708 201l-314 -183h-6v87l243 133v12l-243 133v87h6l314 -183v-86z" />
    <glyph glyph-name="onequarter" unicode="&#xbc;" horiz-adv-x="746" 
d="M202 700v-350h-66v268h-10l-50 -74h-63v10l98 146h91zM539 711l64 -48l-199 -237l-43 32zM86 -11l-64 48l198 237l43 -32zM620 350v-213h78v-54h-78v-83h-66v83h-216v50l180 217h102zM413 137h141v155h-9z" />
    <glyph glyph-name="onehalf" unicode="&#xbd;" horiz-adv-x="736" 
d="M202 700v-350h-66v268h-10l-50 -74h-63v10l98 146h91zM539 711l64 -48l-199 -237l-43 32zM86 -11l-64 48l198 237l43 -32zM645.5 330.5q41.5 -32.5 41.5 -86.5q0 -52 -33 -79.5t-101 -42.5q-55 -13 -79.5 -27.5t-28.5 -39.5h240v-55h-308v30q0 54 34.5 88t105.5 51
q56 12 80 28.5t24 46.5q0 29 -23.5 46.5t-60.5 17.5q-42 0 -67 -22t-26 -62h-65q1 65 45 102t114 37q66 0 107.5 -32.5z" />
    <glyph glyph-name="threequarters" unicode="&#xbe;" horiz-adv-x="812" 
d="M336 700v-46l-122 -81v-10q54 -2 89 -28.5t35 -75.5q0 -53 -45 -87.5t-111 -34.5q-73 0 -116.5 35t-44.5 98h65q1 -36 26.5 -56.5t67.5 -20.5q41 0 66.5 19t25.5 49q0 29 -24 45t-68 16h-61v45l113 78h-204v55h308zM630 711l64 -48l-199 -237l-43 32zM177 -11l-64 48
l198 237l43 -32zM711 350v-213h78v-54h-78v-83h-66v83h-216v50l180 217h102zM504 137h141v155h-9z" />
    <glyph glyph-name="questiondown" unicode="&#xbf;" horiz-adv-x="610" 
d="M266.5 490.5q19.5 19.5 49.5 19.5q29 0 49 -19.5t20 -49.5t-20 -49.5t-49 -19.5q-30 0 -49.5 19.5t-19.5 49.5t19.5 49.5zM519 -116.5q-32 -48.5 -88.5 -73.5t-128.5 -25q-70 0 -125 25.5t-86 70.5t-31 101v7q0 75 40.5 120.5t110.5 75.5l29 11q19 9 27 22.5t8 38.5v52
h81v-55q0 -48 -15.5 -74.5t-59.5 -45.5l-29 -12q-57 -24 -83.5 -53.5t-26.5 -81.5q0 -59 45.5 -93t114.5 -34q73 0 120 36.5t47 104.5v36h82v-39q0 -66 -32 -114.5z" />
    <glyph glyph-name="Agrave" unicode="&#xc0;" horiz-adv-x="607" 
d="M366 700l228 -700h-86l-57 178h-296l-56 -178h-87l228 700h126zM429 251l-120 376h-12l-120 -376h252zM361 767h-75l-83 113h94z" />
    <glyph glyph-name="Aacute" unicode="&#xc1;" horiz-adv-x="607" 
d="M366 700l228 -700h-86l-57 178h-296l-56 -178h-87l228 700h126zM429 251l-120 376h-12l-120 -376h252zM401 880l-79 -113h-74l57 113h96z" />
    <glyph glyph-name="Acircumflex" unicode="&#xc2;" horiz-adv-x="607" 
d="M366 700l228 -700h-86l-57 178h-296l-56 -178h-87l228 700h126zM429 251l-120 376h-12l-120 -376h252zM308 834h-10l-58 -67h-85l100 113h96l100 -113h-85z" />
    <glyph glyph-name="Atilde" unicode="&#xc3;" horiz-adv-x="607" 
d="M366 700l228 -700h-86l-57 178h-296l-56 -178h-87l228 700h126zM429 251l-120 376h-12l-120 -376h252zM179 853q14 21 30.5 31.5t39.5 10.5q22 0 39 -11t34 -34q12 -17 18 -22.5t16 -5.5q11 0 17.5 5t14.5 17l26 38l51 -37l-35 -49q-14 -21 -30 -31.5t-40 -10.5
q-22 0 -39 11t-34 33q-12 17 -18.5 22.5t-16.5 5.5t-16.5 -5t-14.5 -16l-27 -38l-50 36z" />
    <glyph glyph-name="Adieresis" unicode="&#xc4;" horiz-adv-x="607" 
d="M366 700l228 -700h-86l-57 178h-296l-56 -178h-87l228 700h126zM429 251l-120 376h-12l-120 -376h252zM165 863q18 18 46 18t46.5 -18t18.5 -45q0 -28 -18.5 -46t-46.5 -18t-46 18t-18 46q0 27 18 45zM348 863q18 18 46 18t46.5 -18t18.5 -45q0 -28 -18.5 -46t-46.5 -18
t-46 18t-18 46q0 27 18 45z" />
    <glyph glyph-name="Aring" unicode="&#xc5;" horiz-adv-x="607" 
d="M366 700l228 -700h-86l-57 178h-296l-56 -178h-87l228 700h126zM429 251l-120 376h-12l-120 -376h252zM232.5 907.5q28.5 27.5 71.5 27.5t71.5 -27.5t28.5 -69.5t-29 -69.5t-71 -27.5t-71 27.5t-29 69.5t28.5 69.5zM273 806.5q12 -12.5 31 -12.5t31.5 12.5t12.5 31.5
q0 20 -12.5 32t-31.5 12t-31 -12t-12 -32q0 -19 12 -31.5z" />
    <glyph glyph-name="AE" unicode="&#xc6;" horiz-adv-x="560" 
d="M519 75v-75h-228v177h-141l-53 -177h-85l210 700h292v-75h-142v-237h117v-74h-117v-239h147zM291 625h-12l-109 -374h121v374z" />
    <glyph glyph-name="Ccedilla" unicode="&#xc7;" horiz-adv-x="632" 
d="M507 445v18q0 84 -46 131.5t-132 47.5q-92 0 -144 -58.5t-52 -158.5v-150q0 -102 51.5 -159t144.5 -57q178 0 178 176v20h81v-20q0 -112 -63 -177.5t-177 -71.5l-9 -47h6q18 20 50 20q33 0 56 -22t23 -60q0 -41 -27 -65.5t-69 -24.5q-65 0 -89 50l37 37q5 -16 18 -25.5
t31 -9.5t29.5 10.5t11.5 28.5q0 17 -10 26.5t-26 9.5q-17 0 -29 -13h-72v6l17 80q-115 10 -179.5 85.5t-64.5 205.5v144q0 91 33.5 156.5t96 100.5t147.5 35q124 0 191.5 -67t67.5 -184v-18h-81z" />
    <glyph glyph-name="Egrave" unicode="&#xc8;" horiz-adv-x="559" 
d="M513 700v-73h-358v-239h330v-73h-330v-242h363v-73h-444v700h439zM357 767h-75l-83 113h94z" />
    <glyph glyph-name="Eacute" unicode="&#xc9;" horiz-adv-x="559" 
d="M513 700v-73h-358v-239h330v-73h-330v-242h363v-73h-444v700h439zM397 880l-79 -113h-74l57 113h96z" />
    <glyph glyph-name="Ecircumflex" unicode="&#xca;" horiz-adv-x="559" 
d="M513 700v-73h-358v-239h330v-73h-330v-242h363v-73h-444v700h439zM304 834h-10l-58 -67h-85l100 113h96l100 -113h-85z" />
    <glyph glyph-name="Edieresis" unicode="&#xcb;" horiz-adv-x="559" 
d="M513 700v-73h-358v-239h330v-73h-330v-242h363v-73h-444v700h439zM162 863q18 18 46 18t46.5 -18t18.5 -45q0 -28 -18.5 -46t-46.5 -18t-46 18t-18 46q0 27 18 45zM345 863q18 18 46 18t46.5 -18t18.5 -45q0 -28 -18.5 -46t-46.5 -18t-46 18t-18 46q0 27 18 45z" />
    <glyph glyph-name="Igrave" unicode="&#xcc;" horiz-adv-x="229" 
d="M155 700v-700h-81v700h81zM172 767h-75l-83 113h94z" />
    <glyph glyph-name="Iacute" unicode="&#xcd;" horiz-adv-x="229" 
d="M155 700v-700h-81v700h81zM212 880l-79 -113h-74l57 113h96z" />
    <glyph glyph-name="Icircumflex" unicode="&#xce;" horiz-adv-x="229" 
d="M155 700v-700h-81v700h81zM119 834h-10l-58 -67h-85l100 113h96l100 -113h-85z" />
    <glyph glyph-name="Idieresis" unicode="&#xcf;" horiz-adv-x="229" 
d="M155 700v-700h-81v700h81zM-24 863q18 18 46 18t46.5 -18t18.5 -45q0 -28 -18.5 -46t-46.5 -18t-46 18t-18 46q0 27 18 45zM159 863q18 18 46 18t46.5 -18t18.5 -45q0 -28 -18.5 -46t-46.5 -18t-46 18t-18 46q0 27 18 45z" />
    <glyph glyph-name="Eth" unicode="&#xd0;" horiz-adv-x="628" 
d="M576 419v-138q0 -281 -284 -281h-218v319h-82v68h82v313h218q284 0 284 -281zM494 424q0 108 -48.5 155.5t-154.5 47.5h-136v-240h140v-68h-140v-246h136q108 0 155.5 47.5t47.5 155.5v148z" />
    <glyph glyph-name="Ntilde" unicode="&#xd1;" horiz-adv-x="651" 
d="M215 700l270 -615h12v615h81v-700h-142l-269 615h-12v-615h-81v700h141zM204 853q14 21 30.5 31.5t39.5 10.5q22 0 39 -11t34 -34q12 -17 18 -22.5t16 -5.5q11 0 17.5 5t14.5 17l26 38l51 -37l-35 -49q-14 -21 -30 -31.5t-40 -10.5q-22 0 -39 11t-34 33
q-12 17 -18.5 22.5t-16.5 5.5t-16.5 -5t-14.5 -16l-27 -38l-50 36z" />
    <glyph glyph-name="Ograve" unicode="&#xd2;" horiz-adv-x="652" 
d="M125.5 639q73.5 75 200.5 75t200.5 -75t73.5 -212v-154q0 -138 -73 -212.5t-201 -74.5t-201 74.5t-73 212.5v154q0 137 73.5 212zM133 269q0 -99 50.5 -154.5t142.5 -55.5t142 56t50 154v162q0 98 -51 154.5t-141 56.5q-91 0 -142 -57t-51 -154v-162zM384 767h-75
l-83 113h94z" />
    <glyph glyph-name="Oacute" unicode="&#xd3;" horiz-adv-x="652" 
d="M125.5 639q73.5 75 200.5 75t200.5 -75t73.5 -212v-154q0 -138 -73 -212.5t-201 -74.5t-201 74.5t-73 212.5v154q0 137 73.5 212zM133 269q0 -99 50.5 -154.5t142.5 -55.5t142 56t50 154v162q0 98 -51 154.5t-141 56.5q-91 0 -142 -57t-51 -154v-162zM424 880l-79 -113
h-74l57 113h96z" />
    <glyph glyph-name="Ocircumflex" unicode="&#xd4;" horiz-adv-x="652" 
d="M125.5 639q73.5 75 200.5 75t200.5 -75t73.5 -212v-154q0 -138 -73 -212.5t-201 -74.5t-201 74.5t-73 212.5v154q0 137 73.5 212zM133 269q0 -99 50.5 -154.5t142.5 -55.5t142 56t50 154v162q0 98 -51 154.5t-141 56.5q-91 0 -142 -57t-51 -154v-162zM331 834h-10
l-58 -67h-85l100 113h96l100 -113h-85z" />
    <glyph glyph-name="Otilde" unicode="&#xd5;" horiz-adv-x="652" 
d="M125.5 639q73.5 75 200.5 75t200.5 -75t73.5 -212v-154q0 -138 -73 -212.5t-201 -74.5t-201 74.5t-73 212.5v154q0 137 73.5 212zM133 269q0 -99 50.5 -154.5t142.5 -55.5t142 56t50 154v162q0 98 -51 154.5t-141 56.5q-91 0 -142 -57t-51 -154v-162zM201 853
q14 21 30.5 31.5t39.5 10.5q22 0 39 -11t34 -34q12 -17 18 -22.5t16 -5.5q11 0 17.5 5t14.5 17l26 38l51 -37l-35 -49q-14 -21 -30 -31.5t-40 -10.5q-22 0 -39 11t-34 33q-12 17 -18.5 22.5t-16.5 5.5t-16.5 -5t-14.5 -16l-27 -38l-50 36z" />
    <glyph glyph-name="Odieresis" unicode="&#xd6;" horiz-adv-x="652" 
d="M125.5 639q73.5 75 200.5 75t200.5 -75t73.5 -212v-154q0 -138 -73 -212.5t-201 -74.5t-201 74.5t-73 212.5v154q0 137 73.5 212zM133 269q0 -99 50.5 -154.5t142.5 -55.5t142 56t50 154v162q0 98 -51 154.5t-141 56.5q-91 0 -142 -57t-51 -154v-162zM188 863
q18 18 46 18t46.5 -18t18.5 -45q0 -28 -18.5 -46t-46.5 -18t-46 18t-18 46q0 27 18 45zM371 863q18 18 46 18t46.5 -18t18.5 -45q0 -28 -18.5 -46t-46.5 -18t-46 18t-18 46q0 27 18 45z" />
    <glyph glyph-name="multiply" unicode="&#xd7;" 
d="M163 548l147 -148l147 148l51 -51l-148 -147l148 -147l-51 -51l-147 148l-147 -148l-51 51l148 147l-148 147z" />
    <glyph glyph-name="Oslash" unicode="&#xd8;" horiz-adv-x="652" 
d="M567.5 581q32.5 -64 32.5 -154v-154q0 -138 -73 -212.5t-201 -74.5q-38 0 -78 8l-26 -80l-69 22l27 83q-62 34 -95 98t-33 156v154q0 137 73.5 212t200.5 75q43 0 81 -9l23 69l69 -22l-24 -73q60 -34 92.5 -98zM151.5 165.5q18.5 -44.5 53.5 -70.5l179 540q-25 7 -58 7
q-91 0 -142 -57t-51 -154v-162q0 -59 18.5 -103.5zM518 431q0 57 -17.5 100.5t-50.5 70.5l-178 -537q24 -6 54 -6q92 0 142 56t50 154v162z" />
    <glyph glyph-name="Ugrave" unicode="&#xd9;" horiz-adv-x="653" 
d="M151 700v-468q0 -85 46 -129t130 -44t130 44t46 129v468h81v-466q0 -120 -69 -184t-188 -64t-188 64t-69 184v466h81zM385 767h-75l-83 113h94z" />
    <glyph glyph-name="Uacute" unicode="&#xda;" horiz-adv-x="653" 
d="M151 700v-468q0 -85 46 -129t130 -44t130 44t46 129v468h81v-466q0 -120 -69 -184t-188 -64t-188 64t-69 184v466h81zM425 880l-79 -113h-74l57 113h96z" />
    <glyph glyph-name="Ucircumflex" unicode="&#xdb;" horiz-adv-x="653" 
d="M151 700v-468q0 -85 46 -129t130 -44t130 44t46 129v468h81v-466q0 -120 -69 -184t-188 -64t-188 64t-69 184v466h81zM332 834h-10l-58 -67h-85l100 113h96l100 -113h-85z" />
    <glyph glyph-name="Udieresis" unicode="&#xdc;" horiz-adv-x="653" 
d="M151 700v-468q0 -85 46 -129t130 -44t130 44t46 129v468h81v-466q0 -120 -69 -184t-188 -64t-188 64t-69 184v466h81zM189 863q18 18 46 18t46.5 -18t18.5 -45q0 -28 -18.5 -46t-46.5 -18t-46 18t-18 46q0 27 18 45zM372 863q18 18 46 18t46.5 -18t18.5 -45
q0 -28 -18.5 -46t-46.5 -18t-46 18t-18 46q0 27 18 45z" />
    <glyph glyph-name="Yacute" unicode="&#xdd;" horiz-adv-x="617" 
d="M110 700l192 -336h14l191 336h94l-252 -436v-264h-81v264l-252 436h94zM406 880l-79 -113h-74l57 113h96z" />
    <glyph glyph-name="Thorn" unicode="&#xde;" horiz-adv-x="586" 
d="M155 700v-132h185q63 0 113 -25t78.5 -72.5t28.5 -110.5t-29 -110.5t-79 -72.5t-112 -25h-185v-152h-81v700h81zM155 226h176q69 0 108 35.5t39 98.5t-39 98.5t-108 35.5h-176v-268z" />
    <glyph glyph-name="germandbls" unicode="&#xdf;" horiz-adv-x="607" 
d="M67 442q0 84 31.5 145.5t87.5 94t130 32.5q57 0 101 -21t68.5 -57t24.5 -79q0 -55 -28.5 -91.5t-79.5 -71.5q-14 -9 -20 -17t-6 -18t7 -17.5t23 -14.5l25 -12q71 -32 110.5 -69.5t39.5 -99.5q0 -71 -50.5 -115.5t-132.5 -44.5q-69 0 -122.5 37.5t-84.5 89.5l58 41
q23 -42 62.5 -72t86.5 -30q48 0 77.5 25t29.5 68q0 36 -26 60t-74 46l-37 17q-70 30 -70 86q0 31 16 50.5t50 42.5q33 24 51.5 49t18.5 60q0 41 -33.5 66.5t-84.5 25.5q-43 0 -82.5 -21t-64.5 -66.5t-25 -114.5v-446h-77v442z" />
    <glyph glyph-name="agrave" unicode="&#xe0;" horiz-adv-x="560" 
d="M140 461q57 41 146 41q97 0 152 -52t55 -140v-310h-74v81h-14q-27 -43 -70.5 -69t-114.5 -26q-82 0 -132.5 39.5t-50.5 104.5q0 64 44 99.5t120 42.5l216 21v21q0 56 -36 89.5t-99 33.5q-60 0 -101.5 -31t-65.5 -83l-65 36q33 61 90 102zM147 73q32 -22 85 -22
q81 0 133 46t52 124v8l-201 -19q-48 -5 -74.5 -25t-26.5 -54q0 -36 32 -58zM337 570h-75l-83 130h92z" />
    <glyph glyph-name="aacute" unicode="&#xe1;" horiz-adv-x="560" 
d="M140 461q57 41 146 41q97 0 152 -52t55 -140v-310h-74v81h-14q-27 -43 -70.5 -69t-114.5 -26q-82 0 -132.5 39.5t-50.5 104.5q0 64 44 99.5t120 42.5l216 21v21q0 56 -36 89.5t-99 33.5q-60 0 -101.5 -31t-65.5 -83l-65 36q33 61 90 102zM147 73q32 -22 85 -22
q81 0 133 46t52 124v8l-201 -19q-48 -5 -74.5 -25t-26.5 -54q0 -36 32 -58zM378 700l-77 -130h-74l57 130h94z" />
    <glyph glyph-name="acircumflex" unicode="&#xe2;" horiz-adv-x="560" 
d="M140 461q57 41 146 41q97 0 152 -52t55 -140v-310h-74v81h-14q-27 -43 -70.5 -69t-114.5 -26q-82 0 -132.5 39.5t-50.5 104.5q0 64 44 99.5t120 42.5l216 21v21q0 56 -36 89.5t-99 33.5q-60 0 -101.5 -31t-65.5 -83l-65 36q33 61 90 102zM147 73q32 -22 85 -22
q81 0 133 46t52 124v8l-201 -19q-48 -5 -74.5 -25t-26.5 -54q0 -36 32 -58zM285 651h-10l-60 -81h-83l99 130h98l99 -130h-83z" />
    <glyph glyph-name="atilde" unicode="&#xe3;" horiz-adv-x="560" 
d="M140 461q57 41 146 41q97 0 152 -52t55 -140v-310h-74v81h-14q-27 -43 -70.5 -69t-114.5 -26q-82 0 -132.5 39.5t-50.5 104.5q0 64 44 99.5t120 42.5l216 21v21q0 56 -36 89.5t-99 33.5q-60 0 -101.5 -31t-65.5 -83l-65 36q33 61 90 102zM147 73q32 -22 85 -22
q81 0 133 46t52 124v8l-201 -19q-48 -5 -74.5 -25t-26.5 -54q0 -36 32 -58zM153 670q15 20 32.5 31t41.5 11q21 0 36.5 -11t33.5 -37q12 -17 18.5 -23.5t17.5 -6.5q10 0 16.5 5t14.5 16l32 45l51 -37l-41 -56q-14 -20 -31.5 -31t-41.5 -11q-21 0 -36.5 11t-33.5 36
q-14 19 -20 25t-16 6q-11 0 -17 -5t-15 -17l-32 -44l-50 37z" />
    <glyph glyph-name="adieresis" unicode="&#xe4;" horiz-adv-x="560" 
d="M140 461q57 41 146 41q97 0 152 -52t55 -140v-310h-74v81h-14q-27 -43 -70.5 -69t-114.5 -26q-82 0 -132.5 39.5t-50.5 104.5q0 64 44 99.5t120 42.5l216 21v21q0 56 -36 89.5t-99 33.5q-60 0 -101.5 -31t-65.5 -83l-65 36q33 61 90 102zM147 73q32 -22 85 -22
q81 0 133 46t52 124v8l-201 -19q-48 -5 -74.5 -25t-26.5 -54q0 -36 32 -58zM145 686q18 18 46 18t46.5 -18t18.5 -45q0 -28 -18.5 -46t-46.5 -18t-46 18t-18 46q0 27 18 45zM322 686q18 18 46 18t46.5 -18t18.5 -45q0 -28 -18.5 -46t-46.5 -18t-46 18t-18 46q0 27 18 45z
" />
    <glyph glyph-name="aring" unicode="&#xe5;" horiz-adv-x="560" 
d="M140 461q57 41 146 41q97 0 152 -52t55 -140v-310h-74v81h-14q-27 -43 -70.5 -69t-114.5 -26q-82 0 -132.5 39.5t-50.5 104.5q0 64 44 99.5t120 42.5l216 21v21q0 56 -36 89.5t-99 33.5q-60 0 -101.5 -31t-65.5 -83l-65 36q33 61 90 102zM147 73q32 -22 85 -22
q81 0 133 46t52 124v8l-201 -19q-48 -5 -74.5 -25t-26.5 -54q0 -36 32 -58zM208.5 708.5q28.5 27.5 71.5 27.5t71.5 -27.5t28.5 -69.5t-29 -69.5t-71 -27.5t-71 27.5t-29 69.5t28.5 69.5zM249 607.5q12 -12.5 31 -12.5t31.5 12.5t12.5 31.5t-12.5 31.5t-31.5 12.5t-31 -12.5
t-12 -31.5t12 -31.5z" />
    <glyph glyph-name="ae" unicode="&#xe6;" horiz-adv-x="936" 
d="M81.5 230q44.5 35 119.5 40l216 16v28q0 56 -36 89.5t-99 33.5q-60 0 -101.5 -31t-65.5 -83l-65 36q33 61 89.5 102t144.5 41q66 0 110.5 -26.5t66.5 -74.5h12q31 47 81 74t111 27q68 0 121 -29.5t82.5 -83.5t29.5 -127v-40h-399q5 -77 51 -122.5t119 -45.5q110 0 154 99
l67 -34q-32 -59 -81.5 -96t-136.5 -37q-71 0 -125 32t-84 89h-12q-30 -56 -85 -88.5t-136 -32.5q-86 0 -139.5 41t-53.5 107q0 61 44.5 96zM819 285q-4 71 -45.5 110t-110.5 39q-68 0 -112 -40.5t-52 -108.5h320zM148 73.5q33 -22.5 86 -22.5q83 0 133 44t50 122v6l-201 -15
q-48 -3 -74.5 -22t-26.5 -53q0 -37 33 -59.5z" />
    <glyph glyph-name="ccedilla" unicode="&#xe7;" horiz-adv-x="568" 
d="M459 44.5q-55 -50.5 -140 -57.5l-9 -48h6q18 20 50 20q33 0 55.5 -22t22.5 -60q0 -41 -26.5 -65.5t-68.5 -24.5q-64 0 -90 50l38 37q5 -16 18 -25.5t31 -9.5q17 0 28.5 10.5t11.5 28.5q0 17 -10 26.5t-25 9.5q-19 0 -29 -13h-72v6l17 80q-64 7 -115 41.5t-80.5 90.5
t-29.5 125q0 74 33.5 133t91 92t127.5 33q93 0 156 -52t78 -133l-76 -18q-8 60 -50 97t-107 37q-49 0 -89 -24.5t-63 -67.5t-23 -97t22.5 -97t63 -67.5t90.5 -24.5q68 0 107.5 36t50.5 98l76 -17q-16 -77 -71 -127.5z" />
    <glyph glyph-name="egrave" unicode="&#xe8;" horiz-adv-x="558" 
d="M72.5 378q31.5 58 87.5 91t126 33q69 0 122 -29.5t83 -83.5t30 -127v-40h-400q5 -77 51 -122.5t120 -45.5q109 0 153 99l67 -34q-31 -59 -81 -96t-138 -37q-74 0 -131 34t-89 94t-32 134q0 72 31.5 130zM441 285q-3 71 -44.5 110t-110.5 39t-113 -40t-52 -109h320z
M343 570h-75l-83 130h92z" />
    <glyph glyph-name="eacute" unicode="&#xe9;" horiz-adv-x="558" 
d="M72.5 378q31.5 58 87.5 91t126 33q69 0 122 -29.5t83 -83.5t30 -127v-40h-400q5 -77 51 -122.5t120 -45.5q109 0 153 99l67 -34q-31 -59 -81 -96t-138 -37q-74 0 -131 34t-89 94t-32 134q0 72 31.5 130zM441 285q-3 71 -44.5 110t-110.5 39t-113 -40t-52 -109h320z
M384 700l-77 -130h-74l57 130h94z" />
    <glyph glyph-name="ecircumflex" unicode="&#xea;" horiz-adv-x="558" 
d="M72.5 378q31.5 58 87.5 91t126 33q69 0 122 -29.5t83 -83.5t30 -127v-40h-400q5 -77 51 -122.5t120 -45.5q109 0 153 99l67 -34q-31 -59 -81 -96t-138 -37q-74 0 -131 34t-89 94t-32 134q0 72 31.5 130zM441 285q-3 71 -44.5 110t-110.5 39t-113 -40t-52 -109h320z
M291 651h-10l-60 -81h-83l99 130h98l99 -130h-83z" />
    <glyph glyph-name="edieresis" unicode="&#xeb;" horiz-adv-x="558" 
d="M72.5 378q31.5 58 87.5 91t126 33q69 0 122 -29.5t83 -83.5t30 -127v-40h-400q5 -77 51 -122.5t120 -45.5q109 0 153 99l67 -34q-31 -59 -81 -96t-138 -37q-74 0 -131 34t-89 94t-32 134q0 72 31.5 130zM441 285q-3 71 -44.5 110t-110.5 39t-113 -40t-52 -109h320z
M151 686q18 18 46 18t46.5 -18t18.5 -45q0 -28 -18.5 -46t-46.5 -18t-46 18t-18 46q0 27 18 45zM328 686q18 18 46 18t46.5 -18t18.5 -45q0 -28 -18.5 -46t-46.5 -18t-46 18t-18 46q0 27 18 45z" />
    <glyph glyph-name="igrave" unicode="&#xec;" horiz-adv-x="222" 
d="M150 0h-77v488h77v-488zM168 570h-75l-83 130h92z" />
    <glyph glyph-name="iacute" unicode="&#xed;" horiz-adv-x="222" 
d="M150 0h-77v488h77v-488zM209 700l-77 -130h-74l57 130h94z" />
    <glyph glyph-name="icircumflex" unicode="&#xee;" horiz-adv-x="222" 
d="M150 0h-77v488h77v-488zM116 651h-10l-60 -81h-83l99 130h98l99 -130h-83z" />
    <glyph glyph-name="idieresis" unicode="&#xef;" horiz-adv-x="222" 
d="M150 0h-77v488h77v-488zM-24 686q18 18 46 18t46.5 -18t18.5 -45q0 -28 -18.5 -46t-46.5 -18t-46 18t-18 46q0 27 18 45zM153 686q18 18 46 18t46.5 -18t18.5 -45q0 -28 -18.5 -46t-46.5 -18t-46 18t-18 46q0 27 18 45z" />
    <glyph glyph-name="eth" unicode="&#xf0;" horiz-adv-x="588" 
d="M542 257q0 -82 -31.5 -143.5t-88 -94.5t-130.5 -33t-130.5 33t-88 91.5t-31.5 133.5t30.5 133.5t84 91t119.5 32.5q102 0 159 -71h12q-34 115 -145 174l-24 -58l-53 20l26 62q-56 19 -108 27l12 65q66 -10 121 -32l25 58l52 -20l-25 -61q214 -114 214 -408zM416.5 109
q47.5 52 47.5 135q0 84 -47.5 136t-125.5 52q-52 0 -91 -24.5t-60.5 -67t-21.5 -96.5q0 -85 47 -136t126 -51q78 0 125.5 52z" />
    <glyph glyph-name="ntilde" unicode="&#xf1;" horiz-adv-x="594" 
d="M148 488v-88h14q21 43 62 70.5t109 27.5q54 0 98 -23.5t70 -69t26 -109.5v-296h-76v289q0 70 -37 105t-103 35q-73 0 -117 -47t-44 -135v-247h-77v488h75zM171 670q15 20 32.5 31t41.5 11q21 0 36.5 -11t33.5 -37q12 -17 18.5 -23.5t17.5 -6.5q10 0 16.5 5t14.5 16l32 45
l51 -37l-41 -56q-14 -20 -31.5 -31t-41.5 -11q-21 0 -36.5 11t-33.5 36q-14 19 -20 25t-16 6q-11 0 -17 -5t-15 -17l-32 -44l-50 37z" />
    <glyph glyph-name="ograve" unicode="&#xf2;" horiz-adv-x="582" 
d="M73.5 378q31.5 59 88 91.5t129.5 32.5t130 -32.5t88.5 -91.5t31.5 -134t-31.5 -133.5t-88.5 -91.5t-130 -33t-129.5 33t-88 91.5t-31.5 133.5t31.5 134zM165 106.5q47 -51.5 126 -51.5q78 0 125.5 52.5t47.5 136.5t-47.5 136.5t-125.5 52.5q-52 0 -91 -24.5t-60.5 -67.5
t-21.5 -97q0 -86 47 -137.5zM348 570h-75l-83 130h92z" />
    <glyph glyph-name="oacute" unicode="&#xf3;" horiz-adv-x="582" 
d="M73.5 378q31.5 59 88 91.5t129.5 32.5t130 -32.5t88.5 -91.5t31.5 -134t-31.5 -133.5t-88.5 -91.5t-130 -33t-129.5 33t-88 91.5t-31.5 133.5t31.5 134zM165 106.5q47 -51.5 126 -51.5q78 0 125.5 52.5t47.5 136.5t-47.5 136.5t-125.5 52.5q-52 0 -91 -24.5t-60.5 -67.5
t-21.5 -97q0 -86 47 -137.5zM389 700l-77 -130h-74l57 130h94z" />
    <glyph glyph-name="ocircumflex" unicode="&#xf4;" horiz-adv-x="582" 
d="M73.5 378q31.5 59 88 91.5t129.5 32.5t130 -32.5t88.5 -91.5t31.5 -134t-31.5 -133.5t-88.5 -91.5t-130 -33t-129.5 33t-88 91.5t-31.5 133.5t31.5 134zM165 106.5q47 -51.5 126 -51.5q78 0 125.5 52.5t47.5 136.5t-47.5 136.5t-125.5 52.5q-52 0 -91 -24.5t-60.5 -67.5
t-21.5 -97q0 -86 47 -137.5zM296 651h-10l-60 -81h-83l99 130h98l99 -130h-83z" />
    <glyph glyph-name="otilde" unicode="&#xf5;" horiz-adv-x="582" 
d="M73.5 378q31.5 59 88 91.5t129.5 32.5t130 -32.5t88.5 -91.5t31.5 -134t-31.5 -133.5t-88.5 -91.5t-130 -33t-129.5 33t-88 91.5t-31.5 133.5t31.5 134zM165 106.5q47 -51.5 126 -51.5q78 0 125.5 52.5t47.5 136.5t-47.5 136.5t-125.5 52.5q-52 0 -91 -24.5t-60.5 -67.5
t-21.5 -97q0 -86 47 -137.5zM164 670q15 20 32.5 31t41.5 11q21 0 36.5 -11t33.5 -37q12 -17 18.5 -23.5t17.5 -6.5q10 0 16.5 5t14.5 16l32 45l51 -37l-41 -56q-14 -20 -31.5 -31t-41.5 -11q-21 0 -36.5 11t-33.5 36q-14 19 -20 25t-16 6q-11 0 -17 -5t-15 -17l-32 -44
l-50 37z" />
    <glyph glyph-name="odieresis" unicode="&#xf6;" horiz-adv-x="582" 
d="M73.5 378q31.5 59 88 91.5t129.5 32.5t130 -32.5t88.5 -91.5t31.5 -134t-31.5 -133.5t-88.5 -91.5t-130 -33t-129.5 33t-88 91.5t-31.5 133.5t31.5 134zM165 106.5q47 -51.5 126 -51.5q78 0 125.5 52.5t47.5 136.5t-47.5 136.5t-125.5 52.5q-52 0 -91 -24.5t-60.5 -67.5
t-21.5 -97q0 -86 47 -137.5zM156 686q18 18 46 18t46.5 -18t18.5 -45q0 -28 -18.5 -46t-46.5 -18t-46 18t-18 46q0 27 18 45zM333 686q18 18 46 18t46.5 -18t18.5 -45q0 -28 -18.5 -46t-46.5 -18t-46 18t-18 46q0 27 18 45z" />
    <glyph glyph-name="divide" unicode="&#xf7;" 
d="M260.5 564.5q20.5 20.5 49.5 20.5t49.5 -20t20.5 -50q0 -29 -20.5 -49t-49.5 -20t-49.5 19.5t-20.5 49.5q0 29 20.5 49.5zM519 386v-72h-418v72h418zM260.5 234q20.5 20 49.5 20t49.5 -20t20.5 -49t-20.5 -49.5t-49.5 -20.5t-49.5 20t-20.5 50q0 29 20.5 49z" />
    <glyph glyph-name="oslash" unicode="&#xf8;" horiz-adv-x="582" 
d="M506 383.5q35 -60.5 35 -139.5q0 -75 -31.5 -133.5t-88.5 -91.5t-130 -33q-29 0 -50 4l-23 -66l-69 24l23 65q-61 31 -95.5 91.5t-34.5 139.5q0 75 31.5 134t88 91.5t129.5 32.5q24 0 52 -5l21 61l67 -23l-21 -60q61 -31 96 -91.5zM138.5 146.5q20.5 -42.5 57.5 -65.5
l123 350q-18 2 -28 2q-52 0 -91 -24.5t-60.5 -67.5t-21.5 -97q0 -55 20.5 -97.5zM416.5 107.5q47.5 52.5 47.5 136.5q0 54 -20.5 96.5t-57.5 66.5l-122 -350q18 -2 27 -2q78 0 125.5 52.5z" />
    <glyph glyph-name="ugrave" unicode="&#xf9;" horiz-adv-x="594" 
d="M447 0v88h-14q-49 -97 -172 -97q-54 0 -98 23t-70 68.5t-26 109.5v296h77v-289q0 -70 36.5 -105t102.5 -35q73 0 117.5 47t44.5 135v247h76v-488h-74zM353 570h-75l-83 130h92z" />
    <glyph glyph-name="uacute" unicode="&#xfa;" horiz-adv-x="594" 
d="M447 0v88h-14q-49 -97 -172 -97q-54 0 -98 23t-70 68.5t-26 109.5v296h77v-289q0 -70 36.5 -105t102.5 -35q73 0 117.5 47t44.5 135v247h76v-488h-74zM393 700l-77 -130h-74l57 130h94z" />
    <glyph glyph-name="ucircumflex" unicode="&#xfb;" horiz-adv-x="594" 
d="M447 0v88h-14q-49 -97 -172 -97q-54 0 -98 23t-70 68.5t-26 109.5v296h77v-289q0 -70 36.5 -105t102.5 -35q73 0 117.5 47t44.5 135v247h76v-488h-74zM301 651h-10l-60 -81h-83l99 130h98l99 -130h-83z" />
    <glyph glyph-name="udieresis" unicode="&#xfc;" horiz-adv-x="594" 
d="M447 0v88h-14q-49 -97 -172 -97q-54 0 -98 23t-70 68.5t-26 109.5v296h77v-289q0 -70 36.5 -105t102.5 -35q73 0 117.5 47t44.5 135v247h76v-488h-74zM161 686q18 18 46 18t46.5 -18t18.5 -45q0 -28 -18.5 -46t-46.5 -18t-46 18t-18 46q0 27 18 45zM338 686q18 18 46 18
t46.5 -18t18.5 -45q0 -28 -18.5 -46t-46.5 -18t-46 18t-18 46q0 27 18 45z" />
    <glyph glyph-name="yacute" unicode="&#xfd;" horiz-adv-x="548" 
d="M527 488l-293 -688h-82l81 187l-211 501h82l165 -397h10l165 397h83zM372 700l-77 -130h-74l57 130h94z" />
    <glyph glyph-name="thorn" unicode="&#xfe;" horiz-adv-x="615" 
d="M73 700h77v-297h12q53 99 180 99q64 0 117 -32.5t84 -91.5t31 -134t-31 -134t-84 -91.5t-117 -32.5q-127 0 -180 99h-12v-285h-77v900zM448.5 106q47.5 51 47.5 138t-47.5 138t-124.5 51t-125.5 -51.5t-48.5 -137.5t48.5 -137.5t125.5 -51.5t124.5 51z" />
    <glyph glyph-name="ydieresis" unicode="&#xff;" horiz-adv-x="548" 
d="M527 488l-293 -688h-82l81 187l-211 501h82l165 -397h10l165 397h83zM139 686q18 18 46 18t46.5 -18t18.5 -45q0 -28 -18.5 -46t-46.5 -18t-46 18t-18 46q0 27 18 45zM316 686q18 18 46 18t46.5 -18t18.5 -45q0 -28 -18.5 -46t-46.5 -18t-46 18t-18 46q0 27 18 45z" />
    <glyph glyph-name="Amacron" unicode="&#x100;" horiz-adv-x="607" 
d="M366 700l228 -700h-86l-57 178h-296l-56 -178h-87l228 700h126zM429 251l-120 376h-12l-120 -376h252zM444 767h-282v64h282v-64z" />
    <glyph glyph-name="amacron" unicode="&#x101;" horiz-adv-x="560" 
d="M140 461q57 41 146 41q97 0 152 -52t55 -140v-310h-74v81h-14q-27 -43 -70.5 -69t-114.5 -26q-82 0 -132.5 39.5t-50.5 104.5q0 64 44 99.5t120 42.5l216 21v21q0 56 -36 89.5t-99 33.5q-60 0 -101.5 -31t-65.5 -83l-65 36q33 61 90 102zM147 73q32 -22 85 -22
q81 0 133 46t52 124v8l-201 -19q-48 -5 -74.5 -25t-26.5 -54q0 -36 32 -58zM421 570h-282v64h282v-64z" />
    <glyph glyph-name="Abreve" unicode="&#x102;" horiz-adv-x="607" 
d="M366 700l228 -700h-86l-57 178h-296l-56 -178h-87l228 700h126zM429 251l-120 376h-12l-120 -376h252zM420 880v-11q0 -51 -32.5 -80.5t-84.5 -29.5t-84.5 29.5t-32.5 80.5v11h63v-5q0 -24 14 -39t40 -15t40 15t14 39v5h63z" />
    <glyph glyph-name="abreve" unicode="&#x103;" horiz-adv-x="560" 
d="M140 461q57 41 146 41q97 0 152 -52t55 -140v-310h-74v81h-14q-27 -43 -70.5 -69t-114.5 -26q-82 0 -132.5 39.5t-50.5 104.5q0 64 44 99.5t120 42.5l216 21v21q0 56 -36 89.5t-99 33.5q-60 0 -101.5 -31t-65.5 -83l-65 36q33 61 90 102zM147 73q32 -22 85 -22
q81 0 133 46t52 124v8l-201 -19q-48 -5 -74.5 -25t-26.5 -54q0 -36 32 -58zM397 700v-25q0 -52 -32 -82.5t-85 -30.5t-85 30.5t-32 82.5v25h63v-20q0 -26 14 -41t40 -15t40 15t14 41v20h63z" />
    <glyph glyph-name="Aogonek" unicode="&#x104;" horiz-adv-x="607" 
d="M631 -105v-59h-56q-32 0 -51.5 17.5t-19.5 49.5q0 12 6 44l11 53h-13l-57 178h-296l-56 -178h-87l228 700h126l228 -700h-11l-14 -65q-2 -10 -2 -20q0 -20 21 -20h43zM429 251l-120 376h-12l-120 -376h252z" />
    <glyph glyph-name="aogonek" unicode="&#x105;" horiz-adv-x="560" 
d="M535 -105v-59h-56q-32 0 -51.5 17.5t-19.5 49.5q0 12 6 44l11 53h-6v81h-14q-27 -43 -70.5 -69t-114.5 -26q-82 0 -132.5 39.5t-50.5 104.5q0 64 44 99.5t120 42.5l216 21v21q0 56 -36 89.5t-99 33.5q-60 0 -101.5 -31t-65.5 -83l-65 36q33 61 90 102t146 41
q97 0 152 -52t55 -140v-310h-7l-13 -65q-2 -10 -2 -20q0 -20 21 -20h43zM417 229l-201 -19q-48 -5 -74.5 -25t-26.5 -54q0 -36 32 -58t85 -22q81 0 133 46t52 124v8z" />
    <glyph glyph-name="Cacute" unicode="&#x106;" horiz-adv-x="632" 
d="M85.5 578.5q33.5 65.5 96 100.5t147.5 35q124 0 191.5 -67t67.5 -184v-18h-81v18q0 84 -46 131.5t-132 47.5q-92 0 -144 -58.5t-52 -158.5v-150q0 -102 51.5 -159t144.5 -57q178 0 178 176v20h81v-20q0 -116 -68 -182.5t-191 -66.5q-129 0 -203 76.5t-74 215.5v144
q0 91 33.5 156.5zM426 880l-79 -113h-74l57 113h96z" />
    <glyph glyph-name="cacute" unicode="&#x107;" horiz-adv-x="568" 
d="M75.5 377q33.5 59 91 92t127.5 33q93 0 156 -52t78 -133l-76 -18q-8 60 -50 97t-107 37q-49 0 -89 -24.5t-63 -67.5t-23 -97t22.5 -97t63 -67.5t90.5 -24.5q68 0 107.5 36t50.5 98l76 -17q-16 -82 -78 -134t-157 -52q-70 0 -128 33t-91.5 92t-33.5 133t33.5 133zM393 700
l-77 -130h-74l57 130h94z" />
    <glyph glyph-name="Cdotaccent" unicode="&#x10a;" horiz-adv-x="632" 
d="M85.5 578.5q33.5 65.5 96 100.5t147.5 35q124 0 191.5 -67t67.5 -184v-18h-81v18q0 84 -46 131.5t-132 47.5q-92 0 -144 -58.5t-52 -158.5v-150q0 -102 51.5 -159t144.5 -57q178 0 178 176v20h81v-20q0 -116 -68 -182.5t-191 -66.5q-129 0 -203 76.5t-74 215.5v144
q0 91 33.5 156.5zM282 863q18 18 46 18t46.5 -18t18.5 -45q0 -28 -18.5 -46t-46.5 -18t-46 18t-18 46q0 27 18 45z" />
    <glyph glyph-name="cdotaccent" unicode="&#x10b;" horiz-adv-x="568" 
d="M75.5 377q33.5 59 91 92t127.5 33q93 0 156 -52t78 -133l-76 -18q-8 60 -50 97t-107 37q-49 0 -89 -24.5t-63 -67.5t-23 -97t22.5 -97t63 -67.5t90.5 -24.5q68 0 107.5 36t50.5 98l76 -17q-16 -82 -78 -134t-157 -52q-70 0 -128 33t-91.5 92t-33.5 133t33.5 133zM249 686
q18 18 46 18t46.5 -18t18.5 -45q0 -28 -18.5 -46t-46.5 -18t-46 18t-18 46q0 27 18 45z" />
    <glyph glyph-name="Ccaron" unicode="&#x10c;" horiz-adv-x="632" 
d="M85.5 578.5q33.5 65.5 96 100.5t147.5 35q124 0 191.5 -67t67.5 -184v-18h-81v18q0 84 -46 131.5t-132 47.5q-92 0 -144 -58.5t-52 -158.5v-150q0 -102 51.5 -159t144.5 -57q178 0 178 176v20h81v-20q0 -116 -68 -182.5t-191 -66.5q-129 0 -203 76.5t-74 215.5v144
q0 91 33.5 156.5zM476 881l-100 -113h-96l-100 113h85l58 -67h10l58 67h85z" />
    <glyph glyph-name="ccaron" unicode="&#x10d;" horiz-adv-x="568" 
d="M75.5 377q33.5 59 91 92t127.5 33q93 0 156 -52t78 -133l-76 -18q-8 60 -50 97t-107 37q-49 0 -89 -24.5t-63 -67.5t-23 -97t22.5 -97t63 -67.5t90.5 -24.5q68 0 107.5 36t50.5 98l76 -17q-16 -82 -78 -134t-157 -52q-70 0 -128 33t-91.5 92t-33.5 133t33.5 133zM444 700
l-99 -130h-98l-99 130h83l60 -81h10l60 81h83z" />
    <glyph glyph-name="Dcaron" unicode="&#x10e;" horiz-adv-x="628" 
d="M292 700q284 0 284 -281v-138q0 -281 -284 -281h-218v700h218zM155 73h136q108 0 155.5 47.5t47.5 155.5v148q0 108 -48.5 155.5t-154.5 47.5h-136v-554zM446 881l-100 -113h-96l-100 113h85l58 -67h10l58 67h85z" />
    <glyph glyph-name="dcaron" unicode="&#x10f;" horiz-adv-x="673" 
d="M542 0h-74v86h-14q-55 -99 -180 -99q-65 0 -118 32.5t-83.5 91.5t-30.5 134t30.5 134t83.5 91.5t118 32.5q125 0 180 -99h12v296h76v-700zM698 700l-49 -177h-45l10 177h84zM167.5 383q-47.5 -51 -47.5 -138t47.5 -138t123.5 -51q77 0 126 51.5t49 137.5q0 57 -22.5 99.5
t-62 66t-90.5 23.5q-76 0 -123.5 -51z" />
    <glyph glyph-name="Dcroat" unicode="&#x110;" horiz-adv-x="628" 
d="M576 419v-138q0 -281 -284 -281h-218v319h-82v68h82v313h218q284 0 284 -281zM494 424q0 108 -48.5 155.5t-154.5 47.5h-136v-240h140v-68h-140v-246h136q108 0 155.5 47.5t47.5 155.5v148z" />
    <glyph glyph-name="dcroat" unicode="&#x111;" horiz-adv-x="615" 
d="M613 570h-71v-570h-74v86h-14q-55 -99 -180 -99q-65 0 -118 32.5t-83.5 91.5t-30.5 134t30.5 134t83.5 91.5t118 32.5q125 0 180 -99h12v166h-136v57h136v73h76v-73h71v-57zM417 107.5q49 51.5 49 137.5q0 57 -22.5 99.5t-62 66t-90.5 23.5q-76 0 -123.5 -51t-47.5 -138
t47.5 -138t123.5 -51q77 0 126 51.5z" />
    <glyph glyph-name="Emacron" unicode="&#x112;" horiz-adv-x="559" 
d="M513 700v-73h-358v-239h330v-73h-330v-242h363v-73h-444v700h439zM441 767h-282v64h282v-64z" />
    <glyph glyph-name="emacron" unicode="&#x113;" horiz-adv-x="558" 
d="M72.5 378q31.5 58 87.5 91t126 33q69 0 122 -29.5t83 -83.5t30 -127v-40h-400q5 -77 51 -122.5t120 -45.5q109 0 153 99l67 -34q-31 -59 -81 -96t-138 -37q-74 0 -131 34t-89 94t-32 134q0 72 31.5 130zM441 285q-3 71 -44.5 110t-110.5 39t-113 -40t-52 -109h320z
M427 570h-282v64h282v-64z" />
    <glyph glyph-name="Edotaccent" unicode="&#x116;" horiz-adv-x="559" 
d="M513 700v-73h-358v-239h330v-73h-330v-242h363v-73h-444v700h439zM253 863q18 18 46 18t46.5 -18t18.5 -45q0 -28 -18.5 -46t-46.5 -18t-46 18t-18 46q0 27 18 45z" />
    <glyph glyph-name="edotaccent" unicode="&#x117;" horiz-adv-x="558" 
d="M72.5 378q31.5 58 87.5 91t126 33q69 0 122 -29.5t83 -83.5t30 -127v-40h-400q5 -77 51 -122.5t120 -45.5q109 0 153 99l67 -34q-31 -59 -81 -96t-138 -37q-74 0 -131 34t-89 94t-32 134q0 72 31.5 130zM441 285q-3 71 -44.5 110t-110.5 39t-113 -40t-52 -109h320z
M239 686q18 18 46 18t46.5 -18t18.5 -45q0 -28 -18.5 -46t-46.5 -18t-46 18t-18 46q0 27 18 45z" />
    <glyph glyph-name="Eogonek" unicode="&#x118;" horiz-adv-x="559" 
d="M321 -65q-2 -10 -2 -20q0 -20 21 -20h43v-59h-57q-32 0 -51 17.5t-19 49.5q0 12 6 44l11 53h-199v700h439v-73h-358v-239h330v-73h-330v-242h363v-73h-184z" />
    <glyph glyph-name="eogonek" unicode="&#x119;" horiz-adv-x="558" 
d="M521 222h-400q5 -77 51 -122.5t120 -45.5q109 0 153 99l67 -34q-29 -55 -74 -91t-123 -41l-10 -52q-2 -10 -2 -20q0 -20 21 -20h43v-59h-56q-32 0 -51.5 17.5t-19.5 49.5q0 12 6 44l8 42q-63 8 -111.5 43.5t-75 91.5t-26.5 124q0 72 31.5 130t87.5 91t126 33
q69 0 122 -29.5t83 -83.5t30 -127v-40zM441 285q-3 71 -44.5 110t-110.5 39t-113 -40t-52 -109h320z" />
    <glyph glyph-name="Ecaron" unicode="&#x11a;" horiz-adv-x="559" 
d="M513 700v-73h-358v-239h330v-73h-330v-242h363v-73h-444v700h439zM447 881l-100 -113h-96l-100 113h85l58 -67h10l58 67h85z" />
    <glyph glyph-name="ecaron" unicode="&#x11b;" horiz-adv-x="558" 
d="M72.5 378q31.5 58 87.5 91t126 33q69 0 122 -29.5t83 -83.5t30 -127v-40h-400q5 -77 51 -122.5t120 -45.5q109 0 153 99l67 -34q-31 -59 -81 -96t-138 -37q-74 0 -131 34t-89 94t-32 134q0 72 31.5 130zM441 285q-3 71 -44.5 110t-110.5 39t-113 -40t-52 -109h320z
M434 700l-99 -130h-98l-99 130h83l60 -81h10l60 81h83z" />
    <glyph glyph-name="Gbreve" unicode="&#x11e;" horiz-adv-x="638" 
d="M52 422q0 91 33.5 156.5t96 100.5t146.5 35q125 0 191.5 -67t66.5 -186v-9h-81v9q0 85 -45.5 133t-130.5 48q-92 0 -144 -58.5t-52 -158.5v-150q0 -102 51 -159t144 -57q177 0 177 176v27h-210v72h291v-96q0 -119 -68 -185.5t-190 -66.5q-129 0 -202.5 76.5t-73.5 215.5
v144zM442 880v-11q0 -51 -32.5 -80.5t-84.5 -29.5t-84.5 29.5t-32.5 80.5v11h63v-5q0 -24 14 -39t40 -15t40 15t14 39v5h63z" />
    <glyph glyph-name="gbreve" unicode="&#x11f;" horiz-adv-x="615" 
d="M542 488v-467q0 -68 -29 -121t-83.5 -83.5t-127.5 -30.5q-91 0 -151 36.5t-99 100.5l67 39q24 -47 69.5 -77.5t108.5 -30.5q76 0 122.5 44t46.5 128v70h-12q-55 -99 -180 -99q-65 0 -118 31.5t-83.5 89.5t-30.5 132t30.5 131.5t83.5 89t118 31.5q125 0 180 -99h14v85h74z
M417 116q49 50 49 134q0 83 -49 133t-126 50q-76 0 -123.5 -49.5t-47.5 -133.5q0 -85 47.5 -134.5t123.5 -49.5q77 0 126 50zM427 708v-25q0 -52 -32 -82.5t-85 -30.5t-85 30.5t-32 82.5v25h63v-20q0 -26 14 -41t40 -15t40 15t14 41v20h63z" />
    <glyph glyph-name="Gdotaccent" unicode="&#x120;" horiz-adv-x="638" 
d="M52 422q0 91 33.5 156.5t96 100.5t146.5 35q125 0 191.5 -67t66.5 -186v-9h-81v9q0 85 -45.5 133t-130.5 48q-92 0 -144 -58.5t-52 -158.5v-150q0 -102 51 -159t144 -57q177 0 177 176v27h-210v72h291v-96q0 -119 -68 -185.5t-190 -66.5q-129 0 -202.5 76.5t-73.5 215.5
v144zM278 863q18 18 46 18t46.5 -18t18.5 -45q0 -28 -18.5 -46t-46.5 -18t-46 18t-18 46q0 27 18 45z" />
    <glyph glyph-name="gdotaccent" unicode="&#x121;" horiz-adv-x="615" 
d="M542 488v-467q0 -68 -29 -121t-83.5 -83.5t-127.5 -30.5q-91 0 -151 36.5t-99 100.5l67 39q24 -47 69.5 -77.5t108.5 -30.5q76 0 122.5 44t46.5 128v70h-12q-55 -99 -180 -99q-65 0 -118 31.5t-83.5 89.5t-30.5 132t30.5 131.5t83.5 89t118 31.5q125 0 180 -99h14v85h74z
M417 116q49 50 49 134q0 83 -49 133t-126 50q-76 0 -123.5 -49.5t-47.5 -133.5q0 -85 47.5 -134.5t123.5 -49.5q77 0 126 50zM263 694q18 18 46 18t46.5 -18t18.5 -45q0 -28 -18.5 -46t-46.5 -18t-46 18t-18 46q0 27 18 45z" />
    <glyph glyph-name="uni0122" unicode="&#x122;" horiz-adv-x="638" 
d="M52 422q0 91 33.5 156.5t96 100.5t146.5 35q125 0 191.5 -67t66.5 -186v-9h-81v9q0 85 -45.5 133t-130.5 48q-92 0 -144 -58.5t-52 -158.5v-150q0 -102 51 -159t144 -57q177 0 177 176v27h-210v72h291v-96q0 -119 -68 -185.5t-190 -66.5q-129 0 -202.5 76.5t-73.5 215.5
v144zM276.5 -69.5q19.5 19.5 49.5 19.5t49.5 -19.5t19.5 -49.5v-90q0 -34 -21 -54t-55 -20h-59v47h54q28 0 28 27v25q-8 -2 -18 -2q-29 0 -48 19t-19 48q0 30 19.5 49.5z" />
    <glyph glyph-name="uni0123" unicode="&#x123;" horiz-adv-x="615" 
d="M542 488v-467q0 -68 -29 -121t-83.5 -83.5t-127.5 -30.5q-91 0 -151 36.5t-99 100.5l67 39q24 -47 69.5 -77.5t108.5 -30.5q76 0 122.5 44t46.5 128v70h-12q-55 -99 -180 -99q-65 0 -118 31.5t-83.5 89.5t-30.5 132t30.5 131.5t83.5 89t118 31.5q125 0 180 -99h14v85h74z
M417 116q49 50 49 134q0 83 -49 133t-126 50q-76 0 -123.5 -49.5t-47.5 -133.5q0 -85 47.5 -134.5t123.5 -49.5q77 0 126 50zM359.5 599q-19.5 -19 -49.5 -19t-49.5 19t-19.5 49v91q0 33 21 53t55 20h59v-47h-54q-28 0 -28 -26v-26q8 2 18 2q29 0 48 -19t19 -47
q0 -31 -19.5 -50z" />
    <glyph glyph-name="Hbar" unicode="&#x126;" horiz-adv-x="641" 
d="M628 513h-60v-513h-81v314h-332v-314h-81v513h-60v67h60v120h81v-120h332v120h81v-120h60v-67zM487 513h-332v-125h332v125z" />
    <glyph glyph-name="hbar" unicode="&#x127;" horiz-adv-x="594" 
d="M431 474.5q44 -23.5 70 -69t26 -109.5v-296h-76v289q0 70 -37 105t-103 35q-73 0 -117 -47t-44 -135v-247h-77v570h-71v57h71v73h77v-73h135v-57h-135v-170h12q21 43 62 70.5t109 27.5q54 0 98 -23.5z" />
    <glyph glyph-name="Imacron" unicode="&#x12a;" horiz-adv-x="229" 
d="M155 700v-700h-81v700h81zM255 767h-282v64h282v-64z" />
    <glyph glyph-name="imacron" unicode="&#x12b;" horiz-adv-x="222" 
d="M150 0h-77v488h77v-488zM252 570h-282v64h282v-64z" />
    <glyph glyph-name="Iogonek" unicode="&#x12e;" horiz-adv-x="229" 
d="M193 -105v-59h-56q-32 0 -51.5 17.5t-19.5 49.5q0 12 6 44l11 53h-9v700h81v-700h-10l-14 -65l-2 -20q0 -20 22 -20h42z" />
    <glyph glyph-name="iogonek" unicode="&#x12f;" horiz-adv-x="222" 
d="M65 595q-18 18 -18 46q0 27 18 45t46 18t46.5 -18t18.5 -45q0 -28 -18.5 -46t-46.5 -18t-46 18zM190 -105v-59h-56q-32 0 -51.5 17.5t-19.5 49.5q0 12 6 44l11 53h-7v488h77v-488h-8l-14 -65l-2 -20q0 -20 22 -20h42z" />
    <glyph glyph-name="Idotaccent" unicode="&#x130;" horiz-adv-x="229" 
d="M155 700v-700h-81v700h81zM68 863q18 18 46 18t46.5 -18t18.5 -45q0 -28 -18.5 -46t-46.5 -18t-46 18t-18 46q0 27 18 45z" />
    <glyph glyph-name="dotlessi" unicode="&#x131;" horiz-adv-x="222" 
d="M150 0h-77v488h77v-488z" />
    <glyph glyph-name="IJ" unicode="&#x132;" horiz-adv-x="572" 
d="M151 700v-337h-81v337h81zM502 700v-490q0 -109 -53.5 -166.5t-156.5 -57.5q-105 0 -163.5 58t-58.5 166v24h81v-24q0 -69 36 -109t105 -40q129 0 129 149v490h81z" />
    <glyph glyph-name="ij" unicode="&#x133;" horiz-adv-x="451" 
d="M150 0h-77v488h77v-488zM65 686q18 18 46 18t46.5 -18t18.5 -45q0 -28 -18.5 -46t-46.5 -18t-46 18t-18 46q0 27 18 45zM378 -124q0 -35 -20.5 -55.5t-55.5 -20.5h-125v66h97q28 0 28 30v592h76v-612zM293 686q18 18 46 18t46.5 -18t18.5 -45q0 -28 -18.5 -46t-46.5 -18
t-46 18t-18 46q0 27 18 45z" />
    <glyph glyph-name="uni0136" unicode="&#x136;" horiz-adv-x="628" 
d="M328 415l296 -415h-100l-253 361l-116 -109v-252h-81v700h81v-336h12l352 336h112zM274.5 -69.5q19.5 19.5 49.5 19.5t49.5 -19.5t19.5 -49.5v-90q0 -34 -21 -54t-55 -20h-59v47h54q28 0 28 27v25q-8 -2 -18 -2q-29 0 -48 19t-19 48q0 30 19.5 49.5z" />
    <glyph glyph-name="uni0137" unicode="&#x137;" horiz-adv-x="553" 
d="M311 295l219 -295h-91l-183 248l-106 -91v-157h-77v700h77v-440h12l262 228h112zM246.5 -69.5q19.5 19.5 49.5 19.5t49.5 -19.5t19.5 -49.5v-90q0 -34 -21 -54t-55 -20h-59v47h54q28 0 28 27v25q-8 -2 -18 -2q-29 0 -48 19t-19 48q0 30 19.5 49.5z" />
    <glyph glyph-name="Lacute" unicode="&#x139;" horiz-adv-x="535" 
d="M155 700v-627h362v-73h-443v700h81zM211 880l-79 -113h-74l57 113h96z" />
    <glyph glyph-name="lacute" unicode="&#x13a;" horiz-adv-x="222" 
d="M150 0h-77v700h77v-700zM209 880l-79 -113h-74l57 113h96z" />
    <glyph glyph-name="uni013B" unicode="&#x13b;" horiz-adv-x="535" 
d="M155 700v-627h362v-73h-443v700h81zM253.5 -69.5q19.5 19.5 49.5 19.5t49.5 -19.5t19.5 -49.5v-90q0 -34 -21 -54t-55 -20h-59v47h54q28 0 28 27v25q-8 -2 -18 -2q-29 0 -48 19t-19 48q0 30 19.5 49.5z" />
    <glyph glyph-name="uni013C" unicode="&#x13c;" horiz-adv-x="222" 
d="M150 0h-77v700h77v-700zM61.5 -69.5q19.5 19.5 49.5 19.5t49.5 -19.5t19.5 -49.5v-90q0 -34 -21 -54t-55 -20h-59v47h54q28 0 28 27v25q-8 -2 -18 -2q-29 0 -48 19t-19 48q0 30 19.5 49.5z" />
    <glyph glyph-name="Lcaron" unicode="&#x13d;" horiz-adv-x="535" 
d="M155 700v-627h362v-73h-443v700h81zM313 700l-49 -177h-45l11 177h83z" />
    <glyph glyph-name="lcaron" unicode="&#x13e;" horiz-adv-x="279" 
d="M150 0h-77v700h77v-700zM304 700l-49 -177h-45l11 177h83z" />
    <glyph glyph-name="Ldot" unicode="&#x13f;" horiz-adv-x="535" 
d="M155 700v-627h362v-73h-443v700h81zM331.5 399.5q19.5 19.5 49.5 19.5q29 0 49 -19.5t20 -49.5t-20 -49.5t-49 -19.5q-30 0 -49.5 19.5t-19.5 49.5t19.5 49.5z" />
    <glyph glyph-name="ldot" unicode="&#x140;" horiz-adv-x="363" 
d="M150 0h-77v700h77v-700zM245.5 312.5q19.5 19.5 49.5 19.5q29 0 49 -19.5t20 -49.5t-20 -49.5t-49 -19.5q-30 0 -49.5 19.5t-19.5 49.5t19.5 49.5z" />
    <glyph glyph-name="Lslash" unicode="&#x141;" 
d="M207 700v-299l62 31l33 -66l-95 -49v-240h348v-77h-430v275l-62 -31l-34 67l96 48v341h82z" />
    <glyph glyph-name="lslash" unicode="&#x142;" horiz-adv-x="312" 
d="M194 312v-312h-76v275l-70 -33l-28 54l98 47v357h76v-321l70 33l27 -54z" />
    <glyph glyph-name="Nacute" unicode="&#x143;" horiz-adv-x="651" 
d="M215 700l270 -615h12v615h81v-700h-142l-269 615h-12v-615h-81v700h141zM426 880l-79 -113h-74l57 113h96z" />
    <glyph glyph-name="nacute" unicode="&#x144;" horiz-adv-x="594" 
d="M148 488v-88h14q21 43 62 70.5t109 27.5q54 0 98 -23.5t70 -69t26 -109.5v-296h-76v289q0 70 -37 105t-103 35q-73 0 -117 -47t-44 -135v-247h-77v488h75zM396 700l-77 -130h-74l57 130h94z" />
    <glyph glyph-name="uni0145" unicode="&#x145;" horiz-adv-x="651" 
d="M215 700l270 -615h12v615h81v-700h-142l-269 615h-12v-615h-81v700h141zM278.5 -69.5q19.5 19.5 49.5 19.5t49.5 -19.5t19.5 -49.5v-90q0 -34 -21 -54t-55 -20h-59v47h54q28 0 28 27v25q-8 -2 -18 -2q-29 0 -48 19t-19 48q0 30 19.5 49.5z" />
    <glyph glyph-name="uni0146" unicode="&#x146;" horiz-adv-x="594" 
d="M148 488v-88h14q21 43 62 70.5t109 27.5q54 0 98 -23.5t70 -69t26 -109.5v-296h-76v289q0 70 -37 105t-103 35q-73 0 -117 -47t-44 -135v-247h-77v488h75zM250.5 -69.5q19.5 19.5 49.5 19.5t49.5 -19.5t19.5 -49.5v-90q0 -34 -21 -54t-55 -20h-59v47h54q28 0 28 27v25
q-8 -2 -18 -2q-29 0 -48 19t-19 48q0 30 19.5 49.5z" />
    <glyph glyph-name="Ncaron" unicode="&#x147;" horiz-adv-x="651" 
d="M215 700l270 -615h12v615h81v-700h-142l-269 615h-12v-615h-81v700h141zM477 881l-100 -113h-96l-100 113h85l58 -67h10l58 67h85z" />
    <glyph glyph-name="ncaron" unicode="&#x148;" horiz-adv-x="594" 
d="M148 488v-88h14q21 43 62 70.5t109 27.5q54 0 98 -23.5t70 -69t26 -109.5v-296h-76v289q0 70 -37 105t-103 35q-73 0 -117 -47t-44 -135v-247h-77v488h75zM446 700l-99 -130h-98l-99 130h83l60 -81h10l60 81h83z" />
    <glyph glyph-name="Eng" unicode="&#x14a;" horiz-adv-x="651" 
d="M578 700v-780q0 -120 -118 -120h-147v69h130q54 0 54 55v76h-61l-269 615h-12v-615h-81v700h141l270 -615h12v615h81z" />
    <glyph glyph-name="eng" unicode="&#x14b;" horiz-adv-x="594" 
d="M473.5 449q53.5 -53 53.5 -156v-417q0 -35 -20.5 -55.5t-55.5 -20.5h-125v66h97q28 0 28 30v386q0 151 -140 151q-76 0 -118.5 -48t-42.5 -134v-251h-77v488h75v-88h11q22 50 64 76t110 26q87 0 140.5 -53z" />
    <glyph glyph-name="Omacron" unicode="&#x14c;" horiz-adv-x="652" 
d="M125.5 639q73.5 75 200.5 75t200.5 -75t73.5 -212v-154q0 -138 -73 -212.5t-201 -74.5t-201 74.5t-73 212.5v154q0 137 73.5 212zM133 269q0 -99 50.5 -154.5t142.5 -55.5t142 56t50 154v162q0 98 -51 154.5t-141 56.5q-91 0 -142 -57t-51 -154v-162zM467 767h-282v64
h282v-64z" />
    <glyph glyph-name="omacron" unicode="&#x14d;" horiz-adv-x="582" 
d="M73.5 378q31.5 59 88 91.5t129.5 32.5t130 -32.5t88.5 -91.5t31.5 -134t-31.5 -133.5t-88.5 -91.5t-130 -33t-129.5 33t-88 91.5t-31.5 133.5t31.5 134zM165 106.5q47 -51.5 126 -51.5q78 0 125.5 52.5t47.5 136.5t-47.5 136.5t-125.5 52.5q-52 0 -91 -24.5t-60.5 -67.5
t-21.5 -97q0 -86 47 -137.5zM432 570h-282v64h282v-64z" />
    <glyph glyph-name="Ohungarumlaut" unicode="&#x150;" horiz-adv-x="652" 
d="M125.5 639q73.5 75 200.5 75t200.5 -75t73.5 -212v-154q0 -138 -73 -212.5t-201 -74.5t-201 74.5t-73 212.5v154q0 137 73.5 212zM133 269q0 -99 50.5 -154.5t142.5 -55.5t142 56t50 154v162q0 98 -51 154.5t-141 56.5q-91 0 -142 -57t-51 -154v-162zM360 880l-83 -113
h-73l64 113h92zM490 880l-83 -113h-73l63 113h93z" />
    <glyph glyph-name="ohungarumlaut" unicode="&#x151;" horiz-adv-x="582" 
d="M73.5 378q31.5 59 88 91.5t129.5 32.5t130 -32.5t88.5 -91.5t31.5 -134t-31.5 -133.5t-88.5 -91.5t-130 -33t-129.5 33t-88 91.5t-31.5 133.5t31.5 134zM165 106.5q47 -51.5 126 -51.5q78 0 125.5 52.5t47.5 136.5t-47.5 136.5t-125.5 52.5q-52 0 -91 -24.5t-60.5 -67.5
t-21.5 -97q0 -86 47 -137.5zM326 700l-83 -130h-73l66 130h90zM456 700l-83 -130h-73l66 130h90z" />
    <glyph glyph-name="OE" unicode="&#x152;" horiz-adv-x="566" 
d="M525 73v-73h-228q-116 0 -180.5 73.5t-64.5 212.5v128q0 138 64.5 212t180.5 74h224v-73h-142v-239h117v-74h-117v-241h146zM297 629q-80 0 -122 -55t-42 -153v-142q0 -99 41.5 -153.5t122.5 -54.5v558z" />
    <glyph glyph-name="oe" unicode="&#x153;" horiz-adv-x="987" 
d="M73 377.5q32 58.5 88.5 91.5t128.5 33t126 -32.5t83 -95.5h12q28 62 82 95t124 33q68 0 121 -29.5t82.5 -83.5t29.5 -127v-40h-399q4 -77 50.5 -122.5t120.5 -45.5q107 0 153 99l67 -34q-31 -59 -81.5 -96t-137.5 -37q-71 0 -126 33.5t-86 96.5h-12q-30 -64 -83.5 -97
t-125.5 -33t-129 33t-88.5 91.5t-31.5 133.5t32 133.5zM870 285q-3 71 -44.5 110t-110.5 39q-68 0 -112 -40.5t-52 -108.5h319zM165 106.5q47 -51.5 126 -51.5q78 0 125.5 52.5t47.5 136.5t-47.5 136.5t-125.5 52.5q-52 0 -91 -24.5t-60.5 -67.5t-21.5 -97q0 -86 47 -137.5z
" />
    <glyph glyph-name="Racute" unicode="&#x154;" horiz-adv-x="615" 
d="M532 359q-48 -53 -127 -65l159 -294h-90l-152 290h-167v-290h-81v700h286q63 0 113 -25t78.5 -71t28.5 -109q0 -83 -48 -136zM155 363h196q69 0 108 35t39 97t-39 96.5t-108 34.5h-196v-263zM406 880l-79 -113h-74l57 113h96z" />
    <glyph glyph-name="racute" unicode="&#x155;" horiz-adv-x="365" 
d="M148 423h14q14 36 43.5 51.5t78.5 15.5h63v-68h-79q-56 0 -87 -31t-31 -92v-299h-77v488h75v-65zM305 700l-77 -130h-74l57 130h94z" />
    <glyph glyph-name="uni0156" unicode="&#x156;" horiz-adv-x="615" 
d="M532 359q-48 -53 -127 -65l159 -294h-90l-152 290h-167v-290h-81v700h286q63 0 113 -25t78.5 -71t28.5 -109q0 -83 -48 -136zM155 363h196q69 0 108 35t39 97t-39 96.5t-108 34.5h-196v-263zM261.5 -69.5q19.5 19.5 49.5 19.5t49.5 -19.5t19.5 -49.5v-90q0 -34 -21 -54
t-55 -20h-59v47h54q28 0 28 27v25q-8 -2 -18 -2q-29 0 -48 19t-19 48q0 30 19.5 49.5z" />
    <glyph glyph-name="uni0157" unicode="&#x157;" horiz-adv-x="365" 
d="M148 423h14q14 36 43.5 51.5t78.5 15.5h63v-68h-79q-56 0 -87 -31t-31 -92v-299h-77v488h75v-65zM61.5 -69.5q19.5 19.5 49.5 19.5t49.5 -19.5t19.5 -49.5v-90q0 -34 -21 -54t-55 -20h-59v47h54q28 0 28 27v25q-8 -2 -18 -2q-29 0 -48 19t-19 48q0 30 19.5 49.5z" />
    <glyph glyph-name="Rcaron" unicode="&#x158;" horiz-adv-x="615" 
d="M532 359q-48 -53 -127 -65l159 -294h-90l-152 290h-167v-290h-81v700h286q63 0 113 -25t78.5 -71t28.5 -109q0 -83 -48 -136zM155 363h196q69 0 108 35t39 97t-39 96.5t-108 34.5h-196v-263zM456 881l-100 -113h-96l-100 113h85l58 -67h10l58 67h85z" />
    <glyph glyph-name="rcaron" unicode="&#x159;" horiz-adv-x="365" 
d="M148 423h14q14 36 43.5 51.5t78.5 15.5h63v-68h-79q-56 0 -87 -31t-31 -92v-299h-77v488h75v-65zM356 700l-99 -130h-98l-99 130h83l60 -81h10l60 81h83z" />
    <glyph glyph-name="Sacute" unicode="&#x15a;" horiz-adv-x="611" 
d="M435.5 689q56.5 -25 89 -72.5t32.5 -114.5v-40h-80v35q0 72 -48 108.5t-124 36.5q-65 0 -108.5 -32t-43.5 -85q0 -38 18.5 -61.5t50.5 -37t85 -26.5l49 -12q101 -24 152.5 -68.5t51.5 -127.5q0 -63 -32 -109.5t-87.5 -71.5t-126.5 -25q-129 0 -200.5 67.5t-71.5 190.5v25
h81v-22q0 -93 50 -141t141 -48q78 0 122 37t44 94q0 53 -39 82t-116 47l-49 11q-102 24 -153 67.5t-51 127.5q0 56 31 99t84.5 67t119.5 24q72 0 128.5 -25zM402 880l-79 -113h-74l57 113h96z" />
    <glyph glyph-name="sacute" unicode="&#x15b;" horiz-adv-x="521" 
d="M107 464q51 38 132 38q76 0 136.5 -31t103.5 -85l-56 -44q-36 50 -83.5 73t-98.5 23q-49 0 -79.5 -19.5t-30.5 -53.5q0 -33 27 -50.5t80 -26.5l59 -10q86 -14 133.5 -46t47.5 -97q0 -67 -55.5 -108t-139.5 -41q-87 0 -154.5 38.5t-104.5 112.5l64 34q30 -65 81 -93
t112 -28q55 0 88.5 22t33.5 59q0 34 -29.5 52t-85.5 27l-59 10q-85 14 -129 47.5t-44 94.5q0 64 51 102zM345 700l-77 -130h-74l57 130h94z" />
    <glyph glyph-name="Scedilla" unicode="&#x15e;" horiz-adv-x="611" 
d="M498.5 48.5q-61.5 -55.5 -159.5 -61.5l-10 -48h7q16 20 50 20q33 0 55.5 -22t22.5 -60q0 -41 -27 -65.5t-69 -24.5q-33 0 -54.5 12.5t-34.5 37.5l38 37q5 -16 17.5 -25.5t30.5 -9.5t29.5 10.5t11.5 28.5q0 17 -10 26.5t-26 9.5q-17 0 -29 -13h-71v6l17 80
q-117 7 -181 73.5t-64 183.5v25h81v-22q0 -93 50 -141t141 -48q78 0 122 37t44 94q0 53 -39 82t-116 47l-49 11q-102 24 -153 67.5t-51 127.5q0 56 31 99t84.5 67t119.5 24q72 0 128.5 -25t89 -72.5t32.5 -114.5v-40h-80v35q0 72 -48 108.5t-124 36.5q-65 0 -108.5 -32
t-43.5 -85q0 -38 18.5 -61.5t50.5 -37t85 -26.5l49 -12q101 -24 152.5 -68.5t51.5 -127.5q0 -88 -61.5 -143.5z" />
    <glyph glyph-name="scedilla" unicode="&#x15f;" horiz-adv-x="521" 
d="M430.5 232q47.5 -32 47.5 -97q0 -67 -55.5 -108t-139.5 -41h-2l-9 -47h6q18 20 50 20q34 0 56.5 -22t22.5 -60q0 -41 -27 -65.5t-69 -24.5q-65 0 -89 50l37 37q5 -16 18 -25.5t31 -9.5t29.5 10.5t11.5 28.5q0 17 -10 26.5t-26 9.5q-17 0 -29 -13h-72v6l18 83
q-69 10 -122 47t-84 100l64 34q30 -65 81 -93t112 -28q55 0 88.5 22t33.5 59q0 34 -29.5 52t-85.5 27l-59 10q-85 14 -129 47.5t-44 94.5q0 64 51 102t132 38q76 0 136.5 -31t103.5 -85l-56 -44q-36 50 -83.5 73t-98.5 23q-49 0 -79.5 -19.5t-30.5 -53.5q0 -33 27 -50.5
t80 -26.5l59 -10q86 -14 133.5 -46z" />
    <glyph glyph-name="Scaron" unicode="&#x160;" horiz-adv-x="611" 
d="M435.5 689q56.5 -25 89 -72.5t32.5 -114.5v-40h-80v35q0 72 -48 108.5t-124 36.5q-65 0 -108.5 -32t-43.5 -85q0 -38 18.5 -61.5t50.5 -37t85 -26.5l49 -12q101 -24 152.5 -68.5t51.5 -127.5q0 -63 -32 -109.5t-87.5 -71.5t-126.5 -25q-129 0 -200.5 67.5t-71.5 190.5v25
h81v-22q0 -93 50 -141t141 -48q78 0 122 37t44 94q0 53 -39 82t-116 47l-49 11q-102 24 -153 67.5t-51 127.5q0 56 31 99t84.5 67t119.5 24q72 0 128.5 -25zM452 881l-100 -113h-96l-100 113h85l58 -67h10l58 67h85z" />
    <glyph glyph-name="scaron" unicode="&#x161;" horiz-adv-x="521" 
d="M107 464q51 38 132 38q76 0 136.5 -31t103.5 -85l-56 -44q-36 50 -83.5 73t-98.5 23q-49 0 -79.5 -19.5t-30.5 -53.5q0 -33 27 -50.5t80 -26.5l59 -10q86 -14 133.5 -46t47.5 -97q0 -67 -55.5 -108t-139.5 -41q-87 0 -154.5 38.5t-104.5 112.5l64 34q30 -65 81 -93
t112 -28q55 0 88.5 22t33.5 59q0 34 -29.5 52t-85.5 27l-59 10q-85 14 -129 47.5t-44 94.5q0 64 51 102zM395 700l-99 -130h-98l-99 130h83l60 -81h10l60 81h83z" />
    <glyph glyph-name="uni0162" unicode="&#x162;" horiz-adv-x="582" 
d="M316 0l-12 -61h7q16 20 50 20q33 0 55.5 -22t22.5 -60q0 -41 -27 -65.5t-69 -24.5q-33 0 -54.5 12.5t-34.5 37.5l38 37q5 -16 17.5 -25.5t30.5 -9.5t29.5 10.5t11.5 28.5q0 17 -10 26.5t-26 9.5q-17 0 -29 -13h-71v6l19 93h-13v627h-234v73h548v-73h-233v-627h-16z" />
    <glyph glyph-name="uni0163" unicode="&#x163;" horiz-adv-x="436" 
d="M239 423v-327q0 -30 28 -30h105v-66h-109l-12 -61h6q18 20 50 20q34 0 56.5 -22t22.5 -60q0 -41 -27 -65.5t-69 -24.5q-65 0 -89 50l38 37q5 -16 17.5 -25.5t30.5 -9.5t29.5 10.5t11.5 28.5q0 17 -10 26.5t-26 9.5q-17 0 -29 -13h-72v6l21 97q-23 7 -36 26t-13 47v346
h-152v65h152v175h76v-175h161v-65h-161z" />
    <glyph glyph-name="Tcaron" unicode="&#x164;" horiz-adv-x="582" 
d="M565 700v-73h-233v-627h-81v627h-234v73h548zM439 881l-100 -113h-96l-100 113h85l58 -67h10l58 67h85z" />
    <glyph glyph-name="tcaron" unicode="&#x165;" horiz-adv-x="436" 
d="M407 747l-49 -177h-45l11 177h83zM163 488v175h76v-175h161v-65h-161v-327q0 -30 28 -30h105v-66h-134q-34 0 -54.5 21t-20.5 56v346h-152v65h152z" />
    <glyph glyph-name="Tbar" unicode="&#x166;" horiz-adv-x="582" 
d="M332 627v-240h111v-68h-111v-319h-81v319h-112v68h112v240h-234v73h548v-73h-233z" />
    <glyph glyph-name="tbar" unicode="&#x167;" horiz-adv-x="436" 
d="M239 423v-130h161v-66h-161v-131q0 -30 28 -30h105v-66h-134q-34 0 -54.5 21t-20.5 56v150h-152v66h152v130h-152v65h152v195h76v-195h161v-65h-161z" />
    <glyph glyph-name="Umacron" unicode="&#x16a;" horiz-adv-x="653" 
d="M151 700v-468q0 -85 46 -129t130 -44t130 44t46 129v468h81v-466q0 -120 -69 -184t-188 -64t-188 64t-69 184v466h81zM468 767h-282v64h282v-64z" />
    <glyph glyph-name="umacron" unicode="&#x16b;" horiz-adv-x="594" 
d="M447 0v88h-14q-49 -97 -172 -97q-54 0 -98 23t-70 68.5t-26 109.5v296h77v-289q0 -70 36.5 -105t102.5 -35q73 0 117.5 47t44.5 135v247h76v-488h-74zM437 570h-282v64h282v-64z" />
    <glyph glyph-name="Ubreve" unicode="&#x16c;" horiz-adv-x="653" 
d="M151 700v-468q0 -85 46 -129t130 -44t130 44t46 129v468h81v-466q0 -120 -69 -184t-188 -64t-188 64t-69 184v466h81zM444 880v-11q0 -51 -32.5 -80.5t-84.5 -29.5t-84.5 29.5t-32.5 80.5v11h63v-5q0 -24 14 -39t40 -15t40 15t14 39v5h63z" />
    <glyph glyph-name="ubreve" unicode="&#x16d;" horiz-adv-x="594" 
d="M447 0v88h-14q-49 -97 -172 -97q-54 0 -98 23t-70 68.5t-26 109.5v296h77v-289q0 -70 36.5 -105t102.5 -35q73 0 117.5 47t44.5 135v247h76v-488h-74zM413 700v-25q0 -52 -32 -82.5t-85 -30.5t-85 30.5t-32 82.5v25h63v-20q0 -26 14 -41t40 -15t40 15t14 41v20h63z" />
    <glyph glyph-name="Uring" unicode="&#x16e;" horiz-adv-x="653" 
d="M151 700v-468q0 -85 46 -129t130 -44t130 44t46 129v468h81v-466q0 -120 -69 -184t-188 -64t-188 64t-69 184v466h81zM255.5 907.5q28.5 27.5 71.5 27.5t71.5 -27.5t28.5 -69.5t-29 -69.5t-71 -27.5t-71 27.5t-29 69.5t28.5 69.5zM296 806.5q12 -12.5 31 -12.5t31.5 12.5
t12.5 31.5q0 20 -12.5 32t-31.5 12t-31 -12t-12 -32q0 -19 12 -31.5z" />
    <glyph glyph-name="uring" unicode="&#x16f;" horiz-adv-x="594" 
d="M447 0v88h-14q-49 -97 -172 -97q-54 0 -98 23t-70 68.5t-26 109.5v296h77v-289q0 -70 36.5 -105t102.5 -35q73 0 117.5 47t44.5 135v247h76v-488h-74zM224.5 708.5q28.5 27.5 71.5 27.5t71.5 -27.5t28.5 -69.5t-29 -69.5t-71 -27.5t-71 27.5t-29 69.5t28.5 69.5z
M265 607.5q12 -12.5 31 -12.5t31.5 12.5t12.5 31.5t-12.5 31.5t-31.5 12.5t-31 -12.5t-12 -31.5t12 -31.5z" />
    <glyph glyph-name="Uhungarumlaut" unicode="&#x170;" horiz-adv-x="653" 
d="M151 700v-468q0 -85 46 -129t130 -44t130 44t46 129v468h81v-466q0 -120 -69 -184t-188 -64t-188 64t-69 184v466h81zM361 880l-83 -113h-73l64 113h92zM491 880l-83 -113h-73l63 113h93z" />
    <glyph glyph-name="uhungarumlaut" unicode="&#x171;" horiz-adv-x="594" 
d="M447 0v88h-14q-49 -97 -172 -97q-54 0 -98 23t-70 68.5t-26 109.5v296h77v-289q0 -70 36.5 -105t102.5 -35q73 0 117.5 47t44.5 135v247h76v-488h-74zM330 700l-83 -130h-73l66 130h90zM460 700l-83 -130h-73l66 130h90z" />
    <glyph glyph-name="Uogonek" unicode="&#x172;" horiz-adv-x="653" 
d="M584 700v-466q0 -113 -60.5 -176t-167.5 -71l-10 -52q-3 -15 -3 -20q0 -20 22 -20h43v-59h-57q-32 0 -51.5 17.5t-19.5 49.5q0 16 7 44l8 40q-106 8 -165.5 71.5t-59.5 175.5v466h81v-468q0 -85 46 -129t130 -44t130 44t46 129v468h81z" />
    <glyph glyph-name="uogonek" unicode="&#x173;" horiz-adv-x="594" 
d="M563 -105v-59h-57q-32 0 -51.5 17.5t-19.5 49.5q0 16 7 44l11 53h-6v88h-14q-49 -97 -172 -97q-54 0 -98 23t-70 68.5t-26 109.5v296h77v-289q0 -70 36.5 -105t102.5 -35q73 0 117.5 47t44.5 135v247h76v-488h-7l-13 -65q-3 -15 -3 -20q0 -20 22 -20h43z" />
    <glyph glyph-name="Wcircumflex" unicode="&#x174;" horiz-adv-x="880" 
d="M111 700l109 -613h12l143 613h131l142 -613h12l109 613h83l-127 -700h-136l-143 613h-12l-143 -613h-135l-127 700h82zM445 834h-10l-58 -67h-85l100 113h96l100 -113h-85z" />
    <glyph glyph-name="wcircumflex" unicode="&#x175;" horiz-adv-x="778" 
d="M115 488l92 -414h12l115 414h109l115 -414h12l93 414h78l-117 -488h-114l-115 414h-12l-115 -414h-114l-117 488h78zM394 651h-10l-60 -81h-83l99 130h98l99 -130h-83z" />
    <glyph glyph-name="Ycircumflex" unicode="&#x176;" horiz-adv-x="617" 
d="M110 700l192 -336h14l191 336h94l-252 -436v-264h-81v264l-252 436h94zM314 834h-10l-58 -67h-85l100 113h96l100 -113h-85z" />
    <glyph glyph-name="ycircumflex" unicode="&#x177;" horiz-adv-x="548" 
d="M527 488l-293 -688h-82l81 187l-211 501h82l165 -397h10l165 397h83zM279 651h-10l-60 -81h-83l99 130h98l99 -130h-83z" />
    <glyph glyph-name="Ydieresis" unicode="&#x178;" horiz-adv-x="617" 
d="M110 700l192 -336h14l191 336h94l-252 -436v-264h-81v264l-252 436h94zM171 863q18 18 46 18t46.5 -18t18.5 -45q0 -28 -18.5 -46t-46.5 -18t-46 18t-18 46q0 27 18 45zM354 863q18 18 46 18t46.5 -18t18.5 -45q0 -28 -18.5 -46t-46.5 -18t-46 18t-18 46q0 27 18 45z" />
    <glyph glyph-name="Zacute" unicode="&#x179;" horiz-adv-x="580" 
d="M535 700v-68l-394 -559h402v-73h-502v69l395 559h-384v72h483zM387 880l-79 -113h-74l57 113h96z" />
    <glyph glyph-name="zacute" unicode="&#x17a;" horiz-adv-x="529" 
d="M480 488v-59l-328 -363h336v-66h-438v60l328 363h-319v65h421zM359 700l-77 -130h-74l57 130h94z" />
    <glyph glyph-name="Zdotaccent" unicode="&#x17b;" horiz-adv-x="580" 
d="M535 700v-68l-394 -559h402v-73h-502v69l395 559h-384v72h483zM243 863q18 18 46 18t46.5 -18t18.5 -45q0 -28 -18.5 -46t-46.5 -18t-46 18t-18 46q0 27 18 45z" />
    <glyph glyph-name="zdotaccent" unicode="&#x17c;" horiz-adv-x="529" 
d="M480 488v-59l-328 -363h336v-66h-438v60l328 363h-319v65h421zM215 686q18 18 46 18t46.5 -18t18.5 -45q0 -28 -18.5 -46t-46.5 -18t-46 18t-18 46q0 27 18 45z" />
    <glyph glyph-name="Zcaron" unicode="&#x17d;" horiz-adv-x="580" 
d="M535 700v-68l-394 -559h402v-73h-502v69l395 559h-384v72h483zM437 881l-100 -113h-96l-100 113h85l58 -67h10l58 67h85z" />
    <glyph glyph-name="zcaron" unicode="&#x17e;" horiz-adv-x="529" 
d="M480 488v-59l-328 -363h336v-66h-438v60l328 363h-319v65h421zM410 700l-99 -130h-98l-99 130h83l60 -81h10l60 81h83z" />
    <glyph glyph-name="florin" unicode="&#x192;" 
d="M269 437v186q0 33 21.5 55t54.5 22h177v-71h-150q-27 0 -27 -30v-162h141v-70h-141v-290q0 -33 -21.5 -55t-54.5 -22h-171v71h144q27 0 27 30v266h-135v70h135z" />
    <glyph glyph-name="Aringacute" unicode="&#x1fa;" horiz-adv-x="607" 
d="M232 768.5q-29 27.5 -29 69.5t28.5 69.5t71.5 27.5h6l33 65h97l-64 -92q29 -27 29 -70q0 -42 -29 -69.5t-72 -27.5q-42 0 -71 27.5zM272 869.5q-12 -12.5 -12 -31.5t12 -31.5t31 -12.5t31.5 12.5t12.5 31.5q0 20 -12 32t-32 12q-19 0 -31 -12.5zM594 0h-86l-57 178h-296
l-56 -178h-87l228 700h126zM429 251l-120 376h-12l-120 -376h252z" />
    <glyph glyph-name="aringacute" unicode="&#x1fb;" horiz-adv-x="560" 
d="M140 461q57 41 146 41q97 0 152 -52t55 -140v-310h-74v81h-14q-27 -43 -70.5 -69t-114.5 -26q-82 0 -132.5 39.5t-50.5 104.5q0 64 44 99.5t120 42.5l216 21v21q0 56 -36 89.5t-99 33.5q-60 0 -101.5 -31t-65.5 -83l-65 36q33 61 90 102zM147 73q32 -22 85 -22
q81 0 133 46t52 124v8l-201 -19q-48 -5 -74.5 -25t-26.5 -54q0 -36 32 -58zM371.5 679q8.5 -19 8.5 -40q0 -42 -29 -69.5t-71 -27.5t-71 27.5t-29 69.5t28.5 69.5t71.5 27.5h3l41 94h95l-70 -119q14 -13 22.5 -32zM311.5 607.5q12.5 12.5 12.5 31.5t-12.5 31.5t-31.5 12.5
t-31 -12.5t-12 -31.5t12 -31.5t31 -12.5t31.5 12.5z" />
    <glyph glyph-name="AEacute" unicode="&#x1fc;" horiz-adv-x="560" 
d="M519 75v-75h-228v177h-141l-53 -177h-85l210 700h292v-75h-142v-237h117v-74h-117v-239h147zM291 625h-12l-109 -374h121v374zM428 880l-79 -113h-74l57 113h96z" />
    <glyph glyph-name="aeacute" unicode="&#x1fd;" horiz-adv-x="936" 
d="M81.5 230q44.5 35 119.5 40l216 16v28q0 56 -36 89.5t-99 33.5q-60 0 -101.5 -31t-65.5 -83l-65 36q33 61 89.5 102t144.5 41q66 0 110.5 -26.5t66.5 -74.5h12q31 47 81 74t111 27q68 0 121 -29.5t82.5 -83.5t29.5 -127v-40h-399q5 -77 51 -122.5t119 -45.5q110 0 154 99
l67 -34q-32 -59 -81.5 -96t-136.5 -37q-71 0 -125 32t-84 89h-12q-30 -56 -85 -88.5t-136 -32.5q-86 0 -139.5 41t-53.5 107q0 61 44.5 96zM819 285q-4 71 -45.5 110t-110.5 39q-68 0 -112 -40.5t-52 -108.5h320zM148 73.5q33 -22.5 86 -22.5q83 0 133 44t50 122v6l-201 -15
q-48 -3 -74.5 -22t-26.5 -53q0 -37 33 -59.5zM507 700l-77 -130h-74l57 130h94z" />
    <glyph glyph-name="Oslashacute" unicode="&#x1fe;" horiz-adv-x="652" 
d="M567.5 581q32.5 -64 32.5 -154v-154q0 -138 -73 -212.5t-201 -74.5q-38 0 -78 8l-26 -80l-69 22l27 83q-62 34 -95 98t-33 156v154q0 137 73.5 212t200.5 75q43 0 81 -9l23 69l69 -22l-24 -73q60 -34 92.5 -98zM151.5 165.5q18.5 -44.5 53.5 -70.5l179 540q-25 7 -58 7
q-91 0 -142 -57t-51 -154v-162q0 -59 18.5 -103.5zM518 431q0 57 -17.5 100.5t-50.5 70.5l-178 -537q24 -6 54 -6q92 0 142 56t50 154v162zM424 880l-79 -113h-74l57 113h96z" />
    <glyph glyph-name="oslashacute" unicode="&#x1ff;" horiz-adv-x="582" 
d="M506 383.5q35 -60.5 35 -139.5q0 -75 -31.5 -133.5t-88.5 -91.5t-130 -33q-29 0 -50 4l-23 -66l-69 24l23 65q-61 31 -95.5 91.5t-34.5 139.5q0 75 31.5 134t88 91.5t129.5 32.5q24 0 52 -5l21 61l67 -23l-21 -60q61 -31 96 -91.5zM138.5 146.5q20.5 -42.5 57.5 -65.5
l123 350q-18 2 -28 2q-52 0 -91 -24.5t-60.5 -67.5t-21.5 -97q0 -55 20.5 -97.5zM416.5 107.5q47.5 52.5 47.5 136.5q0 54 -20.5 96.5t-57.5 66.5l-122 -350q18 -2 27 -2q78 0 125.5 52.5zM389 700l-77 -130h-74l57 130h94z" />
    <glyph glyph-name="uni0218" unicode="&#x218;" horiz-adv-x="611" 
d="M435.5 689q56.5 -25 89 -72.5t32.5 -114.5v-40h-80v35q0 72 -48 108.5t-124 36.5q-65 0 -108.5 -32t-43.5 -85q0 -38 18.5 -61.5t50.5 -37t85 -26.5l49 -12q101 -24 152.5 -68.5t51.5 -127.5q0 -63 -32 -109.5t-87.5 -71.5t-126.5 -25q-129 0 -200.5 67.5t-71.5 190.5v25
h81v-22q0 -93 50 -141t141 -48q78 0 122 37t44 94q0 53 -39 82t-116 47l-49 11q-102 24 -153 67.5t-51 127.5q0 56 31 99t84.5 67t119.5 24q72 0 128.5 -25zM267.5 -69.5q19.5 19.5 49.5 19.5t49.5 -19.5t19.5 -49.5v-90q0 -34 -21 -54t-55 -20h-59v47h54q28 0 28 27v25
q-8 -2 -18 -2q-29 0 -48 19t-19 48q0 30 19.5 49.5z" />
    <glyph glyph-name="uni0219" unicode="&#x219;" horiz-adv-x="521" 
d="M107 464q51 38 132 38q76 0 136.5 -31t103.5 -85l-56 -44q-36 50 -83.5 73t-98.5 23q-49 0 -79.5 -19.5t-30.5 -53.5q0 -33 27 -50.5t80 -26.5l59 -10q86 -14 133.5 -46t47.5 -97q0 -67 -55.5 -108t-139.5 -41q-87 0 -154.5 38.5t-104.5 112.5l64 34q30 -65 81 -93
t112 -28q55 0 88.5 22t33.5 59q0 34 -29.5 52t-85.5 27l-59 10q-85 14 -129 47.5t-44 94.5q0 64 51 102zM210.5 -69.5q19.5 19.5 49.5 19.5t49.5 -19.5t19.5 -49.5v-90q0 -34 -21 -54t-55 -20h-59v47h54q28 0 28 27v25q-8 -2 -18 -2q-29 0 -48 19t-19 48q0 30 19.5 49.5z
" />
    <glyph glyph-name="uni021A" unicode="&#x21a;" horiz-adv-x="582" 
d="M565 700v-73h-233v-627h-81v627h-234v73h548zM242.5 -69.5q19.5 19.5 49.5 19.5t49.5 -19.5t19.5 -49.5v-90q0 -34 -21 -54t-55 -20h-59v47h54q28 0 28 27v25q-8 -2 -18 -2q-29 0 -48 19t-19 48q0 30 19.5 49.5z" />
    <glyph glyph-name="uni021B" unicode="&#x21b;" horiz-adv-x="436" 
d="M163 488v175h76v-175h161v-65h-161v-327q0 -30 28 -30h105v-66h-134q-34 0 -54.5 21t-20.5 56v346h-152v65h152zM189.5 -69.5q19.5 19.5 49.5 19.5t49.5 -19.5t19.5 -49.5v-90q0 -34 -21 -54t-55 -20h-59v47h54q28 0 28 27v25q-8 -2 -18 -2q-29 0 -48 19t-19 48
q0 30 19.5 49.5z" />
    <glyph glyph-name="uni0237" unicode="&#x237;" horiz-adv-x="229" 
d="M156 -124q0 -35 -20.5 -55.5t-55.5 -20.5h-125v66h97q28 0 28 30v592h76v-612z" />
    <glyph glyph-name="circumflex" unicode="&#x2c6;" horiz-adv-x="402" 
d="M206 651h-10l-60 -81h-83l99 130h98l99 -130h-83z" />
    <glyph glyph-name="caron" unicode="&#x2c7;" horiz-adv-x="402" 
d="M349 700l-99 -130h-98l-99 130h83l60 -81h10l60 81h83z" />
    <glyph glyph-name="breve" unicode="&#x2d8;" horiz-adv-x="340" 
d="M287 700v-25q0 -52 -32 -82.5t-85 -30.5t-85 30.5t-32 82.5v25h63v-20q0 -26 14 -41t40 -15t40 15t14 41v20h63z" />
    <glyph glyph-name="dotaccent" unicode="&#x2d9;" horiz-adv-x="235" 
d="M71 686q18 18 46 18t46.5 -18t18.5 -45q0 -28 -18.5 -46t-46.5 -18t-46 18t-18 46q0 27 18 45z" />
    <glyph glyph-name="ring" unicode="&#x2da;" horiz-adv-x="306" 
d="M81.5 708.5q28.5 27.5 71.5 27.5t71.5 -27.5t28.5 -69.5t-29 -69.5t-71 -27.5t-71 27.5t-29 69.5t28.5 69.5zM122 607.5q12 -12.5 31 -12.5t31.5 12.5t12.5 31.5t-12.5 31.5t-31.5 12.5t-31 -12.5t-12 -31.5t12 -31.5z" />
    <glyph glyph-name="ogonek" unicode="&#x2db;" horiz-adv-x="234" 
d="M134 11l-16 -76l-2 -20q0 -20 22 -20h43v-59h-57q-32 0 -51.5 17.5t-19.5 49.5q0 12 6 44l15 75z" />
    <glyph glyph-name="tilde" unicode="&#x2dc;" horiz-adv-x="440" 
d="M93 670q15 20 32.5 31t41.5 11q21 0 36.5 -11t33.5 -37q12 -17 18.5 -23.5t17.5 -6.5q10 0 16.5 5t14.5 16l32 45l51 -37l-41 -56q-14 -20 -31.5 -31t-41.5 -11q-21 0 -36.5 11t-33.5 36q-14 19 -20 25t-16 6q-11 0 -17 -5t-15 -17l-32 -44l-50 37z" />
    <glyph glyph-name="hungarumlaut" unicode="&#x2dd;" horiz-adv-x="392" 
d="M209 700l-83 -130h-73l66 130h90zM339 700l-83 -130h-73l66 130h90z" />
    <glyph glyph-name="gravecomb" unicode="&#x300;" horiz-adv-x="0" 
d="M-53 570h-75l-83 130h92z" />
    <glyph glyph-name="acutecomb" unicode="&#x301;" horiz-adv-x="0" 
d="M-56 700l-77 -130h-74l57 130h94z" />
    <glyph glyph-name="uni0302" unicode="&#x302;" horiz-adv-x="0" 
d="M-196 651h-10l-60 -81h-83l99 130h98l99 -130h-83z" />
    <glyph glyph-name="tildecomb" unicode="&#x303;" horiz-adv-x="0" 
d="M-347 670q15 20 32.5 31t41.5 11q21 0 36.5 -11t33.5 -37q12 -17 18.5 -23.5t17.5 -6.5q10 0 16.5 5t14.5 16l32 45l51 -37l-41 -56q-14 -20 -31.5 -31t-41.5 -11q-21 0 -36.5 11t-33.5 36q-14 19 -20 25t-16 6q-11 0 -17 -5t-15 -17l-32 -44l-50 37z" />
    <glyph glyph-name="uni0304" unicode="&#x304;" horiz-adv-x="0" 
d="M-53 570h-282v64h282v-64z" />
    <glyph glyph-name="uni0306" unicode="&#x306;" horiz-adv-x="0" 
d="M-53 700v-25q0 -52 -32 -82.5t-85 -30.5t-85 30.5t-32 82.5v25h63v-20q0 -26 14 -41t40 -15t40 15t14 41v20h63z" />
    <glyph glyph-name="uni0307" unicode="&#x307;" horiz-adv-x="0" 
d="M-164 686q18 18 46 18t46.5 -18t18.5 -45q0 -28 -18.5 -46t-46.5 -18t-46 18t-18 46q0 27 18 45z" />
    <glyph glyph-name="uni0308" unicode="&#x308;" horiz-adv-x="0" 
d="M-341 686q18 18 46 18t46.5 -18t18.5 -45q0 -28 -18.5 -46t-46.5 -18t-46 18t-18 46q0 27 18 45zM-164 686q18 18 46 18t46.5 -18t18.5 -45q0 -28 -18.5 -46t-46.5 -18t-46 18t-18 46q0 27 18 45z" />
    <glyph glyph-name="uni030A" unicode="&#x30a;" horiz-adv-x="0" 
d="M-224.5 708.5q28.5 27.5 71.5 27.5t71.5 -27.5t28.5 -69.5t-29 -69.5t-71 -27.5t-71 27.5t-29 69.5t28.5 69.5zM-184 607.5q12 -12.5 31 -12.5t31.5 12.5t12.5 31.5t-12.5 31.5t-31.5 12.5t-31 -12.5t-12 -31.5t12 -31.5z" />
    <glyph glyph-name="uni030B" unicode="&#x30b;" horiz-adv-x="0" 
d="M-183 700l-83 -130h-73l66 130h90zM-53 700l-83 -130h-73l66 130h90z" />
    <glyph glyph-name="uni030C" unicode="&#x30c;" horiz-adv-x="0" 
d="M-53 700l-99 -130h-98l-99 130h83l60 -81h10l60 81h83z" />
    <glyph glyph-name="uni0312" unicode="&#x312;" horiz-adv-x="0" 
d="M-72.5 591q-19.5 -19 -49.5 -19t-49.5 19t-19.5 49v91q0 33 21 53t55 20h59v-47h-54q-28 0 -28 -26v-26q8 2 18 2q29 0 48 -19t19 -47q0 -31 -19.5 -50z" />
    <glyph glyph-name="uni0326" unicode="&#x326;" horiz-adv-x="0" 
d="M-171.5 -69.5q19.5 19.5 49.5 19.5t49.5 -19.5t19.5 -49.5v-90q0 -34 -21 -54t-55 -20h-59v47h54q28 0 28 27v25q-8 -2 -18 -2q-29 0 -48 19t-19 48q0 30 19.5 49.5z" />
    <glyph glyph-name="uni0327" unicode="&#x327;" horiz-adv-x="0" 
d="M-169 32l-18 -93h6q18 20 50 20q33 0 55.5 -22t22.5 -60q0 -41 -26.5 -65.5t-68.5 -24.5q-64 0 -90 50l38 37q5 -16 18 -25.5t31 -9.5q17 0 28.5 10.5t11.5 28.5q0 17 -9.5 26.5t-25.5 9.5q-17 0 -29 -13h-72v6l26 125h52z" />
    <glyph glyph-name="uni0328" unicode="&#x328;" horiz-adv-x="0" 
d="M-100 11l-16 -76l-2 -20q0 -20 22 -20h43v-59h-57q-32 0 -51.5 17.5t-19.5 49.5q0 12 6 44l15 75z" />
    <glyph glyph-name="uni0335" unicode="&#x335;" horiz-adv-x="0" 
d="M-53 627v-57h-283v57h283z" />
    <glyph glyph-name="uni0336" unicode="&#x336;" horiz-adv-x="0" 
d="M-53 505h-614v67h614v-67z" />
    <glyph glyph-name="uni0337" unicode="&#x337;" horiz-adv-x="0" 
d="M-53 535l-214 -611l-68 24l215 610z" />
    <glyph glyph-name="uni0338" unicode="&#x338;" horiz-adv-x="0" 
d="M-53 752l-276 -838l-70 22l278 838z" />
    <glyph glyph-name="pi" unicode="&#x3c0;" 
d="M144 0v425h-71v71h477v-71h-72v-324q0 -30 27 -30h45v-71h-72q-34 0 -55.5 22t-21.5 56v347h-180v-425h-77z" />
    <glyph glyph-name="Wgrave" unicode="&#x1e80;" horiz-adv-x="880" 
d="M111 700l109 -613h12l143 613h131l142 -613h12l109 613h83l-127 -700h-136l-143 613h-12l-143 -613h-135l-127 700h82zM498 767h-75l-83 113h94z" />
    <glyph glyph-name="wgrave" unicode="&#x1e81;" horiz-adv-x="778" 
d="M115 488l92 -414h12l115 414h109l115 -414h12l93 414h78l-117 -488h-114l-115 414h-12l-115 -414h-114l-117 488h78zM446 570h-75l-83 130h92z" />
    <glyph glyph-name="Wacute" unicode="&#x1e82;" horiz-adv-x="880" 
d="M111 700l109 -613h12l143 613h131l142 -613h12l109 613h83l-127 -700h-136l-143 613h-12l-143 -613h-135l-127 700h82zM538 880l-79 -113h-74l57 113h96z" />
    <glyph glyph-name="wacute" unicode="&#x1e83;" horiz-adv-x="778" 
d="M115 488l92 -414h12l115 414h109l115 -414h12l93 414h78l-117 -488h-114l-115 414h-12l-115 -414h-114l-117 488h78zM486 700l-77 -130h-74l57 130h94z" />
    <glyph glyph-name="Wdieresis" unicode="&#x1e84;" horiz-adv-x="880" 
d="M111 700l109 -613h12l143 613h131l142 -613h12l109 613h83l-127 -700h-136l-143 613h-12l-143 -613h-135l-127 700h82zM302 863q18 18 46 18t46.5 -18t18.5 -45q0 -28 -18.5 -46t-46.5 -18t-46 18t-18 46q0 27 18 45zM485 863q18 18 46 18t46.5 -18t18.5 -45
q0 -28 -18.5 -46t-46.5 -18t-46 18t-18 46q0 27 18 45z" />
    <glyph glyph-name="wdieresis" unicode="&#x1e85;" horiz-adv-x="778" 
d="M115 488l92 -414h12l115 414h109l115 -414h12l93 414h78l-117 -488h-114l-115 414h-12l-115 -414h-114l-117 488h78zM254 686q18 18 46 18t46.5 -18t18.5 -45q0 -28 -18.5 -46t-46.5 -18t-46 18t-18 46q0 27 18 45zM431 686q18 18 46 18t46.5 -18t18.5 -45
q0 -28 -18.5 -46t-46.5 -18t-46 18t-18 46q0 27 18 45z" />
    <glyph glyph-name="uni1E9E" unicode="&#x1e9e;" horiz-adv-x="614" 
d="M70 439q0 127 67 194t181 67h245v-64l-171 -209q-11 -13 -17 -23.5t-6 -22.5q0 -15 11.5 -25.5t33.5 -21.5l43 -19q62 -28 96 -66t34 -98q0 -71 -48 -118t-132 -47q-90 0 -143 50.5t-53 131.5h82q0 -48 29.5 -78.5t84.5 -30.5q45 0 73.5 26.5t28.5 64.5q0 35 -22.5 56
t-59.5 38l-53 24q-43 19 -63.5 45t-20.5 61q0 29 14.5 54.5t45.5 61.5l116 137h-148q-76 0 -121.5 -44t-45.5 -140v-443h-81v439z" />
    <glyph glyph-name="Ygrave" unicode="&#x1ef2;" horiz-adv-x="617" 
d="M110 700l192 -336h14l191 336h94l-252 -436v-264h-81v264l-252 436h94zM366 767h-75l-83 113h94z" />
    <glyph glyph-name="ygrave" unicode="&#x1ef3;" horiz-adv-x="548" 
d="M527 488l-293 -688h-82l81 187l-211 501h82l165 -397h10l165 397h83zM331 570h-75l-83 130h92z" />
    <glyph glyph-name="endash" unicode="&#x2013;" horiz-adv-x="612" 
d="M82 292h448v-71h-448v71z" />
    <glyph glyph-name="emdash" unicode="&#x2014;" horiz-adv-x="916" 
d="M82 292h752v-71h-752v71z" />
    <glyph glyph-name="quoteleft" unicode="&#x2018;" horiz-adv-x="243" 
d="M171 492.5q-20 -19.5 -49 -19.5q-30 0 -49.5 19.5t-19.5 49.5v100q0 34 20.5 54t55.5 20h58v-48h-53q-15 0 -21.5 -6t-6.5 -20v-36q6 2 18 2q28 0 47.5 -19t19.5 -47q0 -30 -20 -49.5z" />
    <glyph glyph-name="quoteright" unicode="&#x2019;" horiz-adv-x="243" 
d="M72.5 696.5q19.5 19.5 49.5 19.5q29 0 49 -19.5t20 -49.5v-100q0 -34 -21 -54t-55 -20h-59v47h54q27 0 27 27v36q-6 -2 -17 -2q-29 0 -48 19t-19 47q0 30 19.5 49.5z" />
    <glyph glyph-name="quotesinglbase" unicode="&#x201a;" horiz-adv-x="243" 
d="M72.5 104.5q19.5 19.5 49.5 19.5q29 0 49 -19.5t20 -49.5v-100q0 -34 -21 -54t-55 -20h-59v47h54q27 0 27 27v36q-6 -2 -17 -2q-29 0 -48 19t-19 47q0 30 19.5 49.5z" />
    <glyph glyph-name="quotedblleft" unicode="&#x201c;" horiz-adv-x="408" 
d="M171 492.5q-20 -19.5 -49 -19.5q-30 0 -49.5 19.5t-19.5 49.5v100q0 34 20.5 54t55.5 20h58v-48h-53q-15 0 -21.5 -6t-6.5 -20v-36q6 2 18 2q28 0 47.5 -19t19.5 -47q0 -30 -20 -49.5zM335.5 492.5q-19.5 -19.5 -49.5 -19.5t-49.5 19.5t-19.5 49.5v100q0 34 21 54t55 20
h59v-48h-54q-28 0 -28 -26v-36q8 2 18 2q29 0 48 -19t19 -47q0 -30 -19.5 -49.5z" />
    <glyph glyph-name="quotedblright" unicode="&#x201d;" horiz-adv-x="408" 
d="M72.5 696.5q19.5 19.5 49.5 19.5q29 0 49 -19.5t20 -49.5v-100q0 -34 -21 -54t-55 -20h-59v47h54q27 0 27 27v36q-6 -2 -17 -2q-29 0 -48 19t-19 47q0 30 19.5 49.5zM237.5 696.5q19.5 19.5 49.5 19.5q29 0 49 -19.5t20 -49.5v-100q0 -34 -21 -54t-55 -20h-59v47h54
q27 0 27 27v36q-6 -2 -17 -2q-29 0 -48 19t-19 47q0 30 19.5 49.5z" />
    <glyph glyph-name="quotedblbase" unicode="&#x201e;" horiz-adv-x="408" 
d="M72.5 104.5q19.5 19.5 49.5 19.5q29 0 49 -19.5t20 -49.5v-100q0 -34 -21 -54t-55 -20h-59v47h54q27 0 27 27v36q-6 -2 -17 -2q-29 0 -48 19t-19 47q0 30 19.5 49.5zM237.5 104.5q19.5 19.5 49.5 19.5q29 0 49 -19.5t20 -49.5v-100q0 -34 -21 -54t-55 -20h-59v47h54
q27 0 27 27v36q-6 -2 -17 -2q-29 0 -48 19t-19 47q0 30 19.5 49.5z" />
    <glyph glyph-name="dagger" unicode="&#x2020;" 
d="M99 511h170v189h82v-189h170v-74h-170v-437h-82v437h-170v74z" />
    <glyph glyph-name="daggerdbl" unicode="&#x2021;" 
d="M99 267h170v170h-170v74h170v189h82v-189h170v-74h-170v-170h170v-78h-170v-189h-82v189h-170v78z" />
    <glyph glyph-name="bullet" unicode="&#x2022;" horiz-adv-x="310" 
d="M72.5 432.5q34.5 34.5 82.5 34.5t82.5 -34.5t34.5 -82.5q0 -31 -16 -58t-43 -43t-58 -16t-58 16t-43 43t-16 58q0 48 34.5 82.5z" />
    <glyph glyph-name="ellipsis" unicode="&#x2026;" horiz-adv-x="591" 
d="M72.5 104.5q19.5 19.5 49.5 19.5q29 0 49 -19.5t20 -49.5t-20 -49.5t-49 -19.5q-30 0 -49.5 19.5t-19.5 49.5t19.5 49.5zM246.5 104.5q19.5 19.5 49.5 19.5q29 0 49 -19.5t20 -49.5t-20 -49.5t-49 -19.5q-30 0 -49.5 19.5t-19.5 49.5t19.5 49.5zM420.5 104.5
q19.5 19.5 49.5 19.5q29 0 49 -19.5t20 -49.5t-20 -49.5t-49 -19.5q-30 0 -49.5 19.5t-19.5 49.5t19.5 49.5z" />
    <glyph glyph-name="perthousand" unicode="&#x2030;" horiz-adv-x="1036" 
d="M330.5 670.5q43.5 -42.5 43.5 -116.5v-19q0 -74 -42.5 -116t-118.5 -42t-118.5 42t-42.5 116v19q0 75 42.5 117t118.5 42q74 0 117.5 -42.5zM482 426l-43 33l177 252l64 -48zM307 559q0 45 -24.5 71t-69.5 26t-69.5 -26t-24.5 -71v-28q0 -45 24.5 -71t69.5 -26t69.5 26
t24.5 71v28zM942 280.5q43 -42.5 43 -116.5v-19q0 -74 -42 -116t-116 -42q-45 0 -78 16.5t-53 47.5q-20 -31 -53.5 -47.5t-78.5 -16.5q-74 0 -115.5 42t-41.5 116v19q0 74 42 116.5t115 42.5q44 0 78 -16.5t54 -48.5q19 32 52.5 48.5t78.5 16.5q72 0 115 -42.5zM298 274
l43 -32l-178 -252l-64 47zM662 169q0 45 -24 71t-70 26q-45 0 -69.5 -26t-24.5 -71v-28q0 -45 24.5 -71t69.5 -26q46 0 70 26t24 71v28zM917 169q0 45 -24 71t-70 26q-45 0 -69.5 -26t-24.5 -71v-28q0 -45 24.5 -71t69.5 -26q46 0 70 26t24 71v28z" />
    <glyph glyph-name="prime" unicode="&#x2032;" horiz-adv-x="310" 
d="M209 700l-52 -254h-51l10 254h93z" />
    <glyph glyph-name="primedbl" unicode="&#x2033;" horiz-adv-x="440" 
d="M205 700l-52 -254h-52l10 254h94zM344 700l-51 -254h-53l10 254h94z" />
    <glyph glyph-name="guilsinglleft" unicode="&#x2039;" horiz-adv-x="480" 
d="M402 470h6v-87l-267 -133v-12l267 -133v-87h-6l-334 181v90z" />
    <glyph glyph-name="guilsinglright" unicode="&#x203a;" horiz-adv-x="480" 
d="M412 199l-334 -181h-6v87l268 133v12l-268 133v87h6l334 -181v-90z" />
    <glyph glyph-name="fraction" unicode="&#x2044;" horiz-adv-x="624" 
d="M539 711l64 -48l-199 -237l-43 32zM86 -11l-64 48l198 237l43 -32z" />
    <glyph glyph-name="Euro" unicode="&#x20ac;" horiz-adv-x="667" 
d="M542 448v13q0 84 -44 132t-125 48q-82 0 -129.5 -51.5t-52.5 -141.5h182v-65h-183v-58h183v-65h-183q4 -94 52 -147.5t131 -53.5q86 0 127.5 46.5t41.5 132.5v18h81v-21q0 -116 -66 -182.5t-184 -66.5q-119 0 -189 71.5t-75 202.5h-73v65h73v58h-73v65h74q7 125 77 195.5
t186 70.5q120 0 185 -67t65 -184v-15h-81z" />
    <glyph glyph-name="trademark" unicode="&#x2122;" 
d="M256 700v-35h-75v-187h-40v187h-75v35h190zM357 700l54 -187h4l54 187h71v-222h-39v187h-4l-54 -187h-60l-54 187h-4v-187h-39v222h71z" />
    <glyph glyph-name="oneeighth" unicode="&#x215b;" horiz-adv-x="745" 
d="M202 700v-350h-66v268h-10l-50 -74h-63v10l98 146h91zM539 711l64 -48l-199 -237l-43 32zM86 -11l-64 48l198 237l43 -32zM426 336q43 27 111 27t111 -27t43 -70v-3q0 -33 -20 -52t-44 -26v-10q26 -6 48 -26.5t22 -56.5v-2q0 -45 -43.5 -74t-116.5 -29t-116.5 29
t-43.5 74v2q0 36 21.5 56.5t48.5 26.5v10q-25 7 -44.5 26t-19.5 52v3q0 43 43 70zM472.5 220.5q23.5 -14.5 64.5 -14.5q40 0 63.5 14.5t23.5 38.5q0 23 -23.5 36.5t-63.5 13.5q-41 0 -64.5 -13.5t-23.5 -36.5q0 -24 23.5 -38.5zM468 55.5q25 -14.5 69 -14.5q43 0 68 14.5
t25 41.5t-25 41t-68 14q-44 0 -69 -14t-25 -41t25 -41.5z" />
    <glyph glyph-name="threeeighths" unicode="&#x215c;" horiz-adv-x="811" 
d="M336 700v-46l-122 -81v-10q54 -2 89 -28.5t35 -75.5q0 -53 -45 -87.5t-111 -34.5q-73 0 -116.5 35t-44.5 98h65q1 -36 26.5 -56.5t67.5 -20.5q41 0 66.5 19t25.5 49q0 29 -24 45t-68 16h-61v45l113 78h-204v55h308zM630 711l64 -48l-199 -237l-43 32zM177 -11l-64 48
l198 237l43 -32zM517 336q43 27 111 27t111 -27t43 -70v-3q0 -33 -20 -52t-44 -26v-10q26 -6 48 -26.5t22 -56.5v-2q0 -45 -43.5 -74t-116.5 -29t-116.5 29t-43.5 74v2q0 36 21.5 56.5t48.5 26.5v10q-25 7 -44.5 26t-19.5 52v3q0 43 43 70zM563.5 220.5
q23.5 -14.5 64.5 -14.5q40 0 63.5 14.5t23.5 38.5q0 23 -23.5 36.5t-63.5 13.5q-41 0 -64.5 -13.5t-23.5 -36.5q0 -24 23.5 -38.5zM559 55.5q25 -14.5 69 -14.5q43 0 68 14.5t25 41.5t-25 41t-68 14q-44 0 -69 -14t-25 -41t25 -41.5z" />
    <glyph glyph-name="fiveeighths" unicode="&#x215d;" horiz-adv-x="804" 
d="M328 700v-55h-229v-92h10q20 14 41 23.5t58 9.5q57 0 94.5 -32t37.5 -86v-4q0 -56 -42.5 -91.5t-112.5 -35.5q-68 0 -110.5 34t-51.5 89h67q6 -29 31 -48.5t64 -19.5q41 0 65 20.5t24 52.5q0 31 -23 49.5t-58 18.5q-48 0 -78 -33h-80v200h293zM628 711l64 -48l-199 -237
l-43 32zM175 -11l-64 48l198 237l43 -32zM515 336q43 27 111 27t111 -27t43 -70v-3q0 -33 -20 -52t-44 -26v-10q26 -6 48 -26.5t22 -56.5v-2q0 -45 -43.5 -74t-116.5 -29t-116.5 29t-43.5 74v2q0 36 21.5 56.5t48.5 26.5v10q-25 7 -44.5 26t-19.5 52v3q0 43 43 70z
M561.5 220.5q23.5 -14.5 64.5 -14.5q40 0 63.5 14.5t23.5 38.5q0 23 -23.5 36.5t-63.5 13.5q-41 0 -64.5 -13.5t-23.5 -36.5q0 -24 23.5 -38.5zM557 55.5q25 -14.5 69 -14.5q43 0 68 14.5t25 41.5t-25 41t-68 14q-44 0 -69 -14t-25 -41t25 -41.5z" />
    <glyph glyph-name="seveneighths" unicode="&#x215e;" horiz-adv-x="721" 
d="M309 700v-51l-154 -299h-72l152 295h-228v55h302zM556 711l64 -48l-199 -237l-43 32zM103 -11l-64 48l198 237l43 -32zM443 336q43 27 111 27t111 -27t43 -70v-3q0 -33 -20 -52t-44 -26v-10q26 -6 48 -26.5t22 -56.5v-2q0 -45 -43.5 -74t-116.5 -29t-116.5 29t-43.5 74v2
q0 36 21.5 56.5t48.5 26.5v10q-25 7 -44.5 26t-19.5 52v3q0 43 43 70zM489.5 220.5q23.5 -14.5 64.5 -14.5q40 0 63.5 14.5t23.5 38.5q0 23 -23.5 36.5t-63.5 13.5q-41 0 -64.5 -13.5t-23.5 -36.5q0 -24 23.5 -38.5zM485 55.5q25 -14.5 69 -14.5q43 0 68 14.5t25 41.5
t-25 41t-68 14q-44 0 -69 -14t-25 -41t25 -41.5z" />
    <glyph glyph-name="arrowleft" unicode="&#x2190;" horiz-adv-x="800" 
d="M340 468l-151 -151l-30 -21l3 -9l37 3h551v-75h-551l-37 3l-3 -9l30 -21l151 -151l-53 -53l-237 238v61l237 238z" />
    <glyph glyph-name="arrowup" unicode="&#x2191;" 
d="M280 706h62l238 -237l-53 -53l-150 149l-21 31l-9 -3l3 -38v-555h-78v555l4 38l-9 3l-22 -31l-149 -149l-53 53z" />
    <glyph glyph-name="arrowright" unicode="&#x2192;" horiz-adv-x="800" 
d="M750 283v-61l-237 -238l-53 53l151 151l30 21l-3 9l-37 -3h-551v75h551l37 -3l3 9l-30 21l-151 151l53 53z" />
    <glyph glyph-name="arrowdown" unicode="&#x2193;" 
d="M96 284l149 -149l22 -31l9 3l-4 38v555h78v-555l-3 -38l9 -3l21 31l150 149l53 -53l-238 -237h-62l-237 237z" />
    <glyph glyph-name="arrowboth" unicode="&#x2194;" horiz-adv-x="800" 
d="M750 279v-61l-234 -234l-53 53l148 147l30 21l-3 9l-37 -3h-402l-37 3l-3 -9l30 -21l148 -147l-53 -53l-234 234v61l234 234l53 -52l-148 -148l-30 -21l3 -9l37 3h402l37 -3l3 9l-30 21l-148 148l53 52z" />
    <glyph glyph-name="arrowupdn" unicode="&#x2195;" 
d="M527 284l53 -53l-238 -237h-62l-237 237l53 53l149 -149l22 -31l9 3l-4 38v410l4 38l-9 3l-22 -31l-149 -149l-53 53l237 237h62l238 -237l-53 -53l-150 149l-21 31l-9 -3l3 -38v-410l-3 -38l9 -3l21 31z" />
    <glyph glyph-name="uni2196" unicode="&#x2196;" horiz-adv-x="612" 
d="M455 415h-212l-36 6l-5 -8l29 -24l346 -347l-55 -55l-346 347l-24 28l-8 -4l6 -36v-212h-73v335l43 43h335v-73z" />
    <glyph glyph-name="uni2197" unicode="&#x2197;" horiz-adv-x="612" 
d="M493 488l43 -43v-335h-73v212l6 36l-9 4l-23 -28l-347 -347l-55 55l346 347l29 24l-5 8l-36 -6h-211l-1 73h336z" />
    <glyph glyph-name="uni2198" unicode="&#x2198;" horiz-adv-x="612" 
d="M158 73h211l36 -6l5 8l-29 24l-346 347l55 55l347 -346l23 -29l9 4l-6 37v211l73 1v-336l-43 -43h-336z" />
    <glyph glyph-name="uni2199" unicode="&#x2199;" horiz-adv-x="612" 
d="M120 0l-43 43v336l73 -1v-211l-6 -37l8 -4l24 29l346 346l55 -55l-346 -347l-29 -24l5 -8l36 6h212v-73h-335z" />
    <glyph glyph-name="partialdiff" unicode="&#x2202;" 
d="M92 384.5q31 58.5 85.5 92t121.5 33.5q49 0 86 -19.5t56 -51.5h12q-21 84 -102 137t-186 65l17 73q183 -25 280 -139t97 -300q0 -87 -29.5 -152t-85.5 -101t-134 -36q-72 0 -128.5 33t-88.5 91.5t-32 131.5v12q0 72 31 130.5zM434 113q46 54 46 141q0 53 -22.5 94.5
t-61 65t-86.5 23.5q-49 0 -87.5 -24t-60.5 -66t-22 -93v-12q0 -53 22 -95t60.5 -65t87.5 -23q78 0 124 54z" />
    <glyph glyph-name="emptyset" unicode="&#x2205;" horiz-adv-x="640" 
d="M551.5 384q33.5 -58 33.5 -131v-10q0 -74 -34.5 -132.5t-95 -91.5t-135.5 -33q-34 0 -69 8l-40 -93l-69 30l39 90q-59 33 -92.5 91t-33.5 131v10q0 74 34.5 132.5t95 91.5t135.5 33q35 0 70 -8l40 93l69 -30l-39 -90q58 -33 91.5 -91zM152.5 152.5q20.5 -39.5 57.5 -63.5
l150 345q-17 4 -40 4q-53 0 -96 -24t-67.5 -66t-24.5 -94v-12q0 -50 20.5 -89.5zM508 254q0 49 -20.5 88.5t-57.5 63.5l-149 -345q18 -3 39 -3q53 0 96 23.5t67.5 65.5t24.5 95v12z" />
    <glyph glyph-name="product" unicode="&#x220f;" 
d="M77 700h466v-700h-83v623h-300v-623h-83v700z" />
    <glyph glyph-name="summation" unicode="&#x2211;" 
d="M76 700h468v-75h-352v-11l199 -235v-58l-199 -234v-12h352v-75h-468v72l233 272v12l-233 272v72z" />
    <glyph glyph-name="minus" unicode="&#x2212;" 
d="M519 386v-72h-418v72h418z" />
    <glyph glyph-name="radical" unicode="&#x221a;" 
d="M49 385h158l85 -314h11l198 785h81l-217 -856h-136l-84 314h-96v71z" />
    <glyph glyph-name="infinity" unicode="&#x221e;" 
d="M76 421.5q19 33.5 51.5 53.5t70.5 20q34 0 60.5 -15t42.5 -40h18q16 25 42.5 40t60.5 15q38 0 71 -19.5t52 -53t19 -72.5q0 -40 -20 -73t-53 -52t-69 -19q-34 0 -60.5 15t-42.5 39h-18q-16 -24 -42.5 -39t-60.5 -15q-38 0 -70.5 20t-51.5 53t-19 71t19 71.5zM253 402
q-22 22 -52 22t-51.5 -22t-21.5 -52t21.5 -51.5t51.5 -21.5t52 21.5t22 51.5t-22 52zM367.5 298.5q21.5 -21.5 51.5 -21.5t52 21.5t22 51.5t-22 52t-52 22t-51.5 -22t-21.5 -52t21.5 -51.5z" />
    <glyph glyph-name="integral" unicode="&#x222b;" 
d="M348 -123q0 -33 -21.5 -55t-54.5 -22h-120v71h93q27 0 27 30v722q0 33 21.5 55t54.5 22h121v-71h-94q-27 0 -27 -30v-722z" />
    <glyph glyph-name="approxequal" unicode="&#x2248;" 
d="M355 430q7 -7 20 -7q9 0 15 3.5t17 12.5l77 64l46 -56l-86 -69q-21 -17 -38.5 -26.5t-38.5 -9.5q-29 0 -46.5 13.5t-33.5 40.5q-12 20 -19.5 27.5t-20.5 7.5q-9 0 -16 -3.5t-16 -12.5l-77 -64l-46 56l86 69q40 36 76 36q29 0 47 -13.5t34 -40.5q13 -21 20 -28zM355 253
q7 -7 20 -7q9 0 15 3.5t17 12.5l77 64l46 -55l-86 -70q-20 -17 -38 -26t-39 -9q-29 0 -46.5 13.5t-33.5 40.5q-13 21 -20 28t-20 7q-9 0 -15 -3.5t-17 -12.5l-79 -65l-45 55l87 71q41 35 76 35q29 0 47 -13.5t34 -40.5q13 -21 20 -28z" />
    <glyph glyph-name="notequal" unicode="&#x2260;" 
d="M101 457h206l35 106l69 -21l-28 -85h136v-70h-158l-25 -73h183v-71h-205l-38 -116l-70 22l31 94h-136v71h159l24 73h-183v70z" />
    <glyph glyph-name="lessequal" unicode="&#x2264;" 
d="M100 399l420 171v-83l-341 -131v-12l341 -131v-83l-420 171v98zM100 71h420v-71h-420v71z" />
    <glyph glyph-name="greaterequal" unicode="&#x2265;" 
d="M100 130v83l342 131v12l-342 131v83l420 -171v-98zM100 0v71h420v-71h-420z" />
    <glyph glyph-name="lozenge" unicode="&#x25ca;" 
d="M249 700h122l190 -350l-190 -350h-122l-190 350zM304 59h12l157 291l-157 291h-12l-157 -291z" />
    <glyph glyph-name="uniE132" unicode="&#xe132;" horiz-adv-x="451" 
d="M150 0h-77v488h77v-488zM209 700l-77 -130h-74l57 130h94zM378 -124q0 -35 -20.5 -55.5t-55.5 -20.5h-125v66h97q28 0 28 30v592h76v-612zM437 700l-77 -130h-74l57 130h94z" />
    <glyph glyph-name="uniE133" unicode="&#xe133;" horiz-adv-x="580" 
d="M216 880l-83 -113h-75l64 113h94zM567 880l-83 -113h-75l64 113h94zM156 700v-337h-81v337h81zM508 700v-490q0 -109 -54 -166.5t-157 -57.5q-104 0 -163 58t-59 166v24h81v-24q0 -69 36 -109t105 -40q130 0 130 149v490h81z" />
    <glyph glyph-name="A.ss03" horiz-adv-x="607" 
d="M381 700l213 -700h-87l-53 177h-301l-53 -177h-87l213 700h155zM433 251l-124 416h-12l-124 -416h260z" />
    <glyph glyph-name="Aacute.ss03" horiz-adv-x="607" 
d="M381 700l213 -700h-87l-53 177h-301l-53 -177h-87l213 700h155zM433 251l-124 416h-12l-124 -416h260zM401 880l-79 -113h-74l57 113h96z" />
    <glyph glyph-name="Abreve.ss03" horiz-adv-x="607" 
d="M381 700l213 -700h-87l-53 177h-301l-53 -177h-87l213 700h155zM433 251l-124 416h-12l-124 -416h260zM420 880v-11q0 -51 -32.5 -80.5t-84.5 -29.5t-84.5 29.5t-32.5 80.5v11h63v-5q0 -24 14 -39t40 -15t40 15t14 39v5h63z" />
    <glyph glyph-name="Acircumflex.ss03" horiz-adv-x="607" 
d="M381 700l213 -700h-87l-53 177h-301l-53 -177h-87l213 700h155zM433 251l-124 416h-12l-124 -416h260zM308 834h-10l-58 -67h-85l100 113h96l100 -113h-85z" />
    <glyph glyph-name="Adieresis.ss03" horiz-adv-x="607" 
d="M381 700l213 -700h-87l-53 177h-301l-53 -177h-87l213 700h155zM433 251l-124 416h-12l-124 -416h260zM165 863q18 18 46 18t46.5 -18t18.5 -45q0 -28 -18.5 -46t-46.5 -18t-46 18t-18 46q0 27 18 45zM348 863q18 18 46 18t46.5 -18t18.5 -45q0 -28 -18.5 -46t-46.5 -18
t-46 18t-18 46q0 27 18 45z" />
    <glyph glyph-name="Agrave.ss03" horiz-adv-x="607" 
d="M381 700l213 -700h-87l-53 177h-301l-53 -177h-87l213 700h155zM433 251l-124 416h-12l-124 -416h260zM361 767h-75l-83 113h94z" />
    <glyph glyph-name="Amacron.ss03" horiz-adv-x="607" 
d="M381 700l213 -700h-87l-53 177h-301l-53 -177h-87l213 700h155zM433 251l-124 416h-12l-124 -416h260zM444 767h-282v64h282v-64z" />
    <glyph glyph-name="Aogonek.ss03" horiz-adv-x="607" 
d="M631 -105v-59h-56q-32 0 -51.5 17.5t-19.5 49.5q0 12 6 44l11 53h-14l-53 177h-301l-53 -177h-87l213 700h155l213 -700h-11l-14 -65q-2 -10 -2 -20q0 -20 21 -20h43zM433 251l-124 416h-12l-124 -416h260z" />
    <glyph glyph-name="Aring.ss03" horiz-adv-x="607" 
d="M381 700l213 -700h-87l-53 177h-301l-53 -177h-87l213 700h155zM433 251l-124 416h-12l-124 -416h260zM232.5 907.5q28.5 27.5 71.5 27.5t71.5 -27.5t28.5 -69.5t-29 -69.5t-71 -27.5t-71 27.5t-29 69.5t28.5 69.5zM273 806.5q12 -12.5 31 -12.5t31.5 12.5t12.5 31.5
q0 20 -12.5 32t-31.5 12t-31 -12t-12 -32q0 -19 12 -31.5z" />
    <glyph glyph-name="Aringacute.ss03" horiz-adv-x="607" 
d="M232 768.5q-29 27.5 -29 69.5t28.5 69.5t71.5 27.5h6l33 65h97l-64 -92q29 -27 29 -70q0 -42 -29 -69.5t-72 -27.5q-42 0 -71 27.5zM272 869.5q-12 -12.5 -12 -31.5t12 -31.5t31 -12.5t31.5 12.5t12.5 31.5q0 20 -12 32t-32 12q-19 0 -31 -12.5zM594 0h-87l-53 177h-301
l-53 -177h-87l213 700h155zM433 251l-124 416h-12l-124 -416h260z" />
    <glyph glyph-name="Atilde.ss03" horiz-adv-x="607" 
d="M381 700l213 -700h-87l-53 177h-301l-53 -177h-87l213 700h155zM433 251l-124 416h-12l-124 -416h260zM179 853q14 21 30.5 31.5t39.5 10.5q22 0 39 -11t34 -34q12 -17 18 -22.5t16 -5.5q11 0 17.5 5t14.5 17l26 38l51 -37l-35 -49q-14 -21 -30 -31.5t-40 -10.5
q-22 0 -39 11t-34 33q-12 17 -18.5 22.5t-16.5 5.5t-16.5 -5t-14.5 -16l-27 -38l-50 36z" />
    <glyph glyph-name="AE.ss03" horiz-adv-x="560" 
d="M519 73v-73h-228v178h-145l-49 -178h-85l197 700h305v-73h-142v-239h117v-74h-117v-241h147zM291 667h-12l-115 -416h127v416z" />
    <glyph glyph-name="AEacute.ss03" horiz-adv-x="560" 
d="M519 73v-73h-228v178h-145l-49 -178h-85l197 700h305v-73h-142v-239h117v-74h-117v-241h147zM291 667h-12l-115 -416h127v416zM428 880l-79 -113h-74l57 113h96z" />
    <glyph glyph-name="M.ss03" horiz-adv-x="870" 
d="M235 700l194 -666h12l194 666h161v-700h-80v667h-12l-193 -667h-153l-192 667h-12v-667h-80v700h161z" />
    <glyph glyph-name="N.ss03" horiz-adv-x="651" 
d="M237 700l248 -666h12v666h81v-700h-164l-247 667h-12v-667h-81v700h163z" />
    <glyph glyph-name="Nacute.ss03" horiz-adv-x="651" 
d="M237 700l248 -666h12v666h81v-700h-164l-247 667h-12v-667h-81v700h163zM426 880l-79 -113h-74l57 113h96z" />
    <glyph glyph-name="Ncaron.ss03" horiz-adv-x="651" 
d="M237 700l248 -666h12v666h81v-700h-164l-247 667h-12v-667h-81v700h163zM477 881l-100 -113h-96l-100 113h85l58 -67h10l58 67h85z" />
    <glyph glyph-name="uni0145.ss03" horiz-adv-x="651" 
d="M237 700l248 -666h12v666h81v-700h-164l-247 667h-12v-667h-81v700h163zM278.5 -69.5q19.5 19.5 49.5 19.5t49.5 -19.5t19.5 -49.5v-90q0 -34 -21 -54t-55 -20h-59v47h54q28 0 28 27v25q-8 -2 -18 -2q-29 0 -48 19t-19 48q0 30 19.5 49.5z" />
    <glyph glyph-name="Eng.ss03" horiz-adv-x="651" 
d="M578 700v-780q0 -59 -30.5 -89.5t-90.5 -30.5h-144v72h128q29 0 41.5 14t12.5 41v73h-76l-252 653h-12v-653h-81v700h158l253 -653h12v653h81z" />
    <glyph glyph-name="Ntilde.ss03" horiz-adv-x="651" 
d="M237 700l248 -666h12v666h81v-700h-164l-247 667h-12v-667h-81v700h163zM204 853q14 21 30.5 31.5t39.5 10.5q22 0 39 -11t34 -34q12 -17 18 -22.5t16 -5.5q11 0 17.5 5t14.5 17l26 38l51 -37l-35 -49q-14 -21 -30 -31.5t-40 -10.5q-22 0 -39 11t-34 33
q-12 17 -18.5 22.5t-16.5 5.5t-16.5 -5t-14.5 -16l-27 -38l-50 36z" />
    <glyph glyph-name="V.ss03" horiz-adv-x="605" 
d="M100 700l197 -666h12l197 666h85l-211 -700h-155l-211 700h86z" />
    <glyph glyph-name="W.ss03" horiz-adv-x="880" 
d="M113 700l105 -666h12l134 666h152l134 -666h12l106 666h82l-114 -700h-156l-134 667h-12l-134 -667h-155l-115 700h83z" />
    <glyph glyph-name="Wacute.ss03" horiz-adv-x="880" 
d="M113 700l105 -666h12l134 666h152l134 -666h12l106 666h82l-114 -700h-156l-134 667h-12l-134 -667h-155l-115 700h83zM538 880l-79 -113h-74l57 113h96z" />
    <glyph glyph-name="Wcircumflex.ss03" horiz-adv-x="880" 
d="M113 700l105 -666h12l134 666h152l134 -666h12l106 666h82l-114 -700h-156l-134 667h-12l-134 -667h-155l-115 700h83zM445 834h-10l-58 -67h-85l100 113h96l100 -113h-85z" />
    <glyph glyph-name="Wdieresis.ss03" horiz-adv-x="880" 
d="M113 700l105 -666h12l134 666h152l134 -666h12l106 666h82l-114 -700h-156l-134 667h-12l-134 -667h-155l-115 700h83zM302 863q18 18 46 18t46.5 -18t18.5 -45q0 -28 -18.5 -46t-46.5 -18t-46 18t-18 46q0 27 18 45zM485 863q18 18 46 18t46.5 -18t18.5 -45
q0 -28 -18.5 -46t-46.5 -18t-46 18t-18 46q0 27 18 45z" />
    <glyph glyph-name="Wgrave.ss03" horiz-adv-x="880" 
d="M113 700l105 -666h12l134 666h152l134 -666h12l106 666h82l-114 -700h-156l-134 667h-12l-134 -667h-155l-115 700h83zM498 767h-75l-83 113h94z" />
    <glyph glyph-name="I.ss04" horiz-adv-x="408" 
d="M369 700v-72h-124v-556h124v-72h-329v72h124v556h-124v72h329z" />
    <glyph glyph-name="IJ.ss04" horiz-adv-x="681" 
d="M294 700v-73h-86v-284h-82v284h-86v73h254zM657 700v-73h-87v-417q0 -109 -55 -166.5t-161 -57.5q-107 0 -167.5 58t-60.5 166v29h82v-29q0 -69 37 -109t109 -40q135 0 135 149v417h-100v73h268z" />
    <glyph glyph-name="Iacute.ss04" horiz-adv-x="408" 
d="M369 700v-72h-124v-556h124v-72h-329v72h124v556h-124v72h329zM302 880l-79 -113h-74l57 113h96z" />
    <glyph glyph-name="Icircumflex.ss04" horiz-adv-x="408" 
d="M369 700v-72h-124v-556h124v-72h-329v72h124v556h-124v72h329zM209 834h-10l-58 -67h-85l100 113h96l100 -113h-85z" />
    <glyph glyph-name="Idieresis.ss04" horiz-adv-x="408" 
d="M369 700v-72h-124v-556h124v-72h-329v72h124v556h-124v72h329zM66 863q18 18 46 18t46.5 -18t18.5 -45q0 -28 -18.5 -46t-46.5 -18t-46 18t-18 46q0 27 18 45zM249 863q18 18 46 18t46.5 -18t18.5 -45q0 -28 -18.5 -46t-46.5 -18t-46 18t-18 46q0 27 18 45z" />
    <glyph glyph-name="Idotaccent.ss04" horiz-adv-x="408" 
d="M369 700v-72h-124v-556h124v-72h-329v72h124v556h-124v72h329zM157 863q18 18 46 18t46.5 -18t18.5 -45q0 -28 -18.5 -46t-46.5 -18t-46 18t-18 46q0 27 18 45z" />
    <glyph glyph-name="Igrave.ss04" horiz-adv-x="408" 
d="M369 700v-72h-124v-556h124v-72h-329v72h124v556h-124v72h329zM262 767h-75l-83 113h94z" />
    <glyph glyph-name="Imacron.ss04" horiz-adv-x="408" 
d="M369 700v-72h-124v-556h124v-72h-329v72h124v556h-124v72h329zM345 767h-282v64h282v-64z" />
    <glyph glyph-name="Iogonek.ss04" horiz-adv-x="408" 
d="M245 628v-556h124v-72h-134l-14 -65q-2 -10 -2 -20q0 -20 22 -20h42v-59h-56q-32 0 -51.5 17.5t-19.5 49.5q0 12 6 44l11 53h-133v72h124v556h-124v72h329v-72h-124z" />
    <glyph glyph-name="J.ss04" horiz-adv-x="566" 
d="M541 700v-72h-73v-418q0 -109 -53.5 -166.5t-156.5 -57.5q-104 0 -163 58t-59 166v54h82v-54q0 -69 35.5 -109t104.5 -40q128 0 128 149v418h-125v72h280z" />
    <glyph glyph-name="R.ss05" 
d="M357 700q99 0 159.5 -53.5t60.5 -142.5q0 -65 -32 -106.5t-83 -58.5v-12q38 -2 62 -24.5t24 -65.5v-237h-81v226q0 30 -16.5 46.5t-49.5 16.5h-246v-289h-81v700h283zM155 362h194q70 0 108 35t38 97q0 63 -38 98t-108 35h-194v-265z" />
    <glyph glyph-name="Racute.ss05" 
d="M357 700q99 0 159.5 -53.5t60.5 -142.5q0 -65 -32 -106.5t-83 -58.5v-12q38 -2 62 -24.5t24 -65.5v-237h-81v226q0 30 -16.5 46.5t-49.5 16.5h-246v-289h-81v700h283zM155 362h194q70 0 108 35t38 97q0 63 -38 98t-108 35h-194v-265zM404 880l-79 -113h-74l57 113h96z
" />
    <glyph glyph-name="Rcaron.ss05" 
d="M357 700q99 0 159.5 -53.5t60.5 -142.5q0 -65 -32 -106.5t-83 -58.5v-12q38 -2 62 -24.5t24 -65.5v-237h-81v226q0 30 -16.5 46.5t-49.5 16.5h-246v-289h-81v700h283zM155 362h194q70 0 108 35t38 97q0 63 -38 98t-108 35h-194v-265zM454 881l-100 -113h-96l-100 113h85
l58 -67h10l58 67h85z" />
    <glyph glyph-name="uni0156.ss05" 
d="M357 700q99 0 159.5 -53.5t60.5 -142.5q0 -65 -32 -106.5t-83 -58.5v-12q38 -2 62 -24.5t24 -65.5v-237h-81v226q0 30 -16.5 46.5t-49.5 16.5h-246v-289h-81v700h283zM155 362h194q70 0 108 35t38 97q0 63 -38 98t-108 35h-194v-265zM261.5 -69.5q19.5 19.5 49.5 19.5
t49.5 -19.5t19.5 -49.5v-90q0 -34 -21 -54t-55 -20h-59v47h54q28 0 28 27v25q-8 -2 -18 -2q-29 0 -48 19t-19 48q0 30 19.5 49.5z" />
    <glyph glyph-name="i.loclTRK" horiz-adv-x="222" 
d="M150 0h-77v488h77v-488zM65 686q18 18 46 18t46.5 -18t18.5 -45q0 -28 -18.5 -46t-46.5 -18t-46 18t-18 46q0 27 18 45z" />
    <glyph glyph-name="uni006A0301" horiz-adv-x="229" 
d="M156 -124q0 -35 -20.5 -55.5t-55.5 -20.5h-125v66h97q28 0 28 30v592h76v-612zM215 700l-77 -130h-74l57 130h94z" />
    <glyph glyph-name="a.ss01" horiz-adv-x="615" 
d="M468 0v85h-14q-55 -99 -180 -99q-65 0 -118 32.5t-83.5 91.5t-30.5 134t30.5 134t83.5 91.5t118 32.5q125 0 180 -99h14v85h74v-488h-74zM381.5 78.5q39.5 23.5 62 66t22.5 99.5q0 86 -49 137.5t-126 51.5q-76 0 -123.5 -51t-47.5 -138t47.5 -138t123.5 -51
q51 0 90.5 23.5z" />
    <glyph glyph-name="aacute.ss01" horiz-adv-x="615" 
d="M468 0v85h-14q-55 -99 -180 -99q-65 0 -118 32.5t-83.5 91.5t-30.5 134t30.5 134t83.5 91.5t118 32.5q125 0 180 -99h14v85h74v-488h-74zM381.5 78.5q39.5 23.5 62 66t22.5 99.5q0 86 -49 137.5t-126 51.5q-76 0 -123.5 -51t-47.5 -138t47.5 -138t123.5 -51
q51 0 90.5 23.5zM406 700l-77 -130h-74l57 130h94z" />
    <glyph glyph-name="abreve.ss01" horiz-adv-x="615" 
d="M468 0v85h-14q-55 -99 -180 -99q-65 0 -118 32.5t-83.5 91.5t-30.5 134t30.5 134t83.5 91.5t118 32.5q125 0 180 -99h14v85h74v-488h-74zM381.5 78.5q39.5 23.5 62 66t22.5 99.5q0 86 -49 137.5t-126 51.5q-76 0 -123.5 -51t-47.5 -138t47.5 -138t123.5 -51
q51 0 90.5 23.5zM426 700v-25q0 -52 -32 -82.5t-85 -30.5t-85 30.5t-32 82.5v25h63v-20q0 -26 14 -41t40 -15t40 15t14 41v20h63z" />
    <glyph glyph-name="acircumflex.ss01" horiz-adv-x="615" 
d="M468 0v85h-14q-55 -99 -180 -99q-65 0 -118 32.5t-83.5 91.5t-30.5 134t30.5 134t83.5 91.5t118 32.5q125 0 180 -99h14v85h74v-488h-74zM381.5 78.5q39.5 23.5 62 66t22.5 99.5q0 86 -49 137.5t-126 51.5q-76 0 -123.5 -51t-47.5 -138t47.5 -138t123.5 -51
q51 0 90.5 23.5zM313 651h-10l-60 -81h-83l99 130h98l99 -130h-83z" />
    <glyph glyph-name="adieresis.ss01" horiz-adv-x="615" 
d="M468 0v85h-14q-55 -99 -180 -99q-65 0 -118 32.5t-83.5 91.5t-30.5 134t30.5 134t83.5 91.5t118 32.5q125 0 180 -99h14v85h74v-488h-74zM381.5 78.5q39.5 23.5 62 66t22.5 99.5q0 86 -49 137.5t-126 51.5q-76 0 -123.5 -51t-47.5 -138t47.5 -138t123.5 -51
q51 0 90.5 23.5zM174 686q18 18 46 18t46.5 -18t18.5 -45q0 -28 -18.5 -46t-46.5 -18t-46 18t-18 46q0 27 18 45zM351 686q18 18 46 18t46.5 -18t18.5 -45q0 -28 -18.5 -46t-46.5 -18t-46 18t-18 46q0 27 18 45z" />
    <glyph glyph-name="agrave.ss01" horiz-adv-x="615" 
d="M468 0v85h-14q-55 -99 -180 -99q-65 0 -118 32.5t-83.5 91.5t-30.5 134t30.5 134t83.5 91.5t118 32.5q125 0 180 -99h14v85h74v-488h-74zM381.5 78.5q39.5 23.5 62 66t22.5 99.5q0 86 -49 137.5t-126 51.5q-76 0 -123.5 -51t-47.5 -138t47.5 -138t123.5 -51
q51 0 90.5 23.5zM366 570h-75l-83 130h92z" />
    <glyph glyph-name="amacron.ss01" horiz-adv-x="615" 
d="M468 0v85h-14q-55 -99 -180 -99q-65 0 -118 32.5t-83.5 91.5t-30.5 134t30.5 134t83.5 91.5t118 32.5q125 0 180 -99h14v85h74v-488h-74zM381.5 78.5q39.5 23.5 62 66t22.5 99.5q0 86 -49 137.5t-126 51.5q-76 0 -123.5 -51t-47.5 -138t47.5 -138t123.5 -51
q51 0 90.5 23.5zM450 570h-282v64h282v-64z" />
    <glyph glyph-name="aogonek.ss01" horiz-adv-x="615" 
d="M584 -105v-59h-57q-32 0 -51 17.5t-19 49.5q0 20 6 44l11 53h-6v85h-14q-55 -99 -180 -99q-65 0 -118 32.5t-83.5 91.5t-30.5 134t30.5 134t83.5 91.5t118 32.5q125 0 180 -99h14v85h74v-488h-7l-13 -65q-2 -10 -2 -20q0 -20 21 -20h43zM381.5 78.5q39.5 23.5 62 66
t22.5 99.5q0 86 -49 137.5t-126 51.5q-76 0 -123.5 -51t-47.5 -138t47.5 -138t123.5 -51q51 0 90.5 23.5z" />
    <glyph glyph-name="aring.ss01" horiz-adv-x="615" 
d="M468 0v85h-14q-55 -99 -180 -99q-65 0 -118 32.5t-83.5 91.5t-30.5 134t30.5 134t83.5 91.5t118 32.5q125 0 180 -99h14v85h74v-488h-74zM381.5 78.5q39.5 23.5 62 66t22.5 99.5q0 86 -49 137.5t-126 51.5q-76 0 -123.5 -51t-47.5 -138t47.5 -138t123.5 -51
q51 0 90.5 23.5zM237.5 708.5q28.5 27.5 71.5 27.5t71.5 -27.5t28.5 -69.5t-29 -69.5t-71 -27.5t-71 27.5t-29 69.5t28.5 69.5zM278 607.5q12 -12.5 31 -12.5t31.5 12.5t12.5 31.5t-12.5 31.5t-31.5 12.5t-31 -12.5t-12 -31.5t12 -31.5z" />
    <glyph glyph-name="aringacute.ss01" horiz-adv-x="615" 
d="M468 0v85h-14q-55 -99 -180 -99q-65 0 -118 32.5t-83.5 91.5t-30.5 134t30.5 134t83.5 91.5t118 32.5q125 0 180 -99h14v85h74v-488h-74zM381.5 78.5q39.5 23.5 62 66t22.5 99.5q0 86 -49 137.5t-126 51.5q-76 0 -123.5 -51t-47.5 -138t47.5 -138t123.5 -51
q51 0 90.5 23.5zM399.5 679q8.5 -19 8.5 -40q0 -42 -29 -69.5t-71 -27.5t-71 27.5t-29 69.5t28.5 69.5t71.5 27.5h3l41 94h95l-70 -119q14 -13 22.5 -32zM339.5 607.5q12.5 12.5 12.5 31.5t-12.5 31.5t-31.5 12.5t-31 -12.5t-12 -31.5t12 -31.5t31 -12.5t31.5 12.5z" />
    <glyph glyph-name="atilde.ss01" horiz-adv-x="615" 
d="M468 0v85h-14q-55 -99 -180 -99q-65 0 -118 32.5t-83.5 91.5t-30.5 134t30.5 134t83.5 91.5t118 32.5q125 0 180 -99h14v85h74v-488h-74zM381.5 78.5q39.5 23.5 62 66t22.5 99.5q0 86 -49 137.5t-126 51.5q-76 0 -123.5 -51t-47.5 -138t47.5 -138t123.5 -51
q51 0 90.5 23.5zM181 670q15 20 32.5 31t41.5 11q21 0 36.5 -11t33.5 -37q12 -17 18.5 -23.5t17.5 -6.5q10 0 16.5 5t14.5 16l32 45l51 -37l-41 -56q-14 -20 -31.5 -31t-41.5 -11q-21 0 -36.5 11t-33.5 36q-14 19 -20 25t-16 6q-11 0 -17 -5t-15 -17l-32 -44l-50 37z" />
    <glyph glyph-name="g.ss02" horiz-adv-x="615" 
d="M542 488v-612q0 -35 -20.5 -55.5t-55.5 -20.5h-382v66h354q28 0 28 30v200h-12q-55 -99 -180 -99q-65 0 -118 31.5t-83.5 89.5t-30.5 132t30.5 131.5t83.5 89t118 31.5q125 0 180 -99h14v85h74zM417 116q49 50 49 134q0 83 -49 133t-126 50q-76 0 -123.5 -49.5
t-47.5 -133.5q0 -85 47.5 -134.5t123.5 -49.5q77 0 126 50z" />
    <glyph glyph-name="gbreve.ss02" horiz-adv-x="615" 
d="M542 488v-612q0 -35 -20.5 -55.5t-55.5 -20.5h-382v66h354q28 0 28 30v200h-12q-55 -99 -180 -99q-65 0 -118 31.5t-83.5 89.5t-30.5 132t30.5 131.5t83.5 89t118 31.5q125 0 180 -99h14v85h74zM417 116q49 50 49 134q0 83 -49 133t-126 50q-76 0 -123.5 -49.5
t-47.5 -133.5q0 -85 47.5 -134.5t123.5 -49.5q77 0 126 50zM427 700v-25q0 -52 -32 -82.5t-85 -30.5t-85 30.5t-32 82.5v25h63v-20q0 -26 14 -41t40 -15t40 15t14 41v20h63z" />
    <glyph glyph-name="uni0123.ss02" horiz-adv-x="615" 
d="M542 488v-612q0 -35 -20.5 -55.5t-55.5 -20.5h-382v66h354q28 0 28 30v200h-12q-55 -99 -180 -99q-65 0 -118 31.5t-83.5 89.5t-30.5 132t30.5 131.5t83.5 89t118 31.5q125 0 180 -99h14v85h74zM417 116q49 50 49 134q0 83 -49 133t-126 50q-76 0 -123.5 -49.5
t-47.5 -133.5q0 -85 47.5 -134.5t123.5 -49.5q77 0 126 50zM359.5 591q-19.5 -19 -49.5 -19t-49.5 19t-19.5 49v91q0 33 21 53t55 20h59v-47h-54q-28 0 -28 -26v-26q8 2 18 2q29 0 48 -19t19 -47q0 -31 -19.5 -50z" />
    <glyph glyph-name="gdotaccent.ss02" horiz-adv-x="615" 
d="M542 488v-612q0 -35 -20.5 -55.5t-55.5 -20.5h-382v66h354q28 0 28 30v200h-12q-55 -99 -180 -99q-65 0 -118 31.5t-83.5 89.5t-30.5 132t30.5 131.5t83.5 89t118 31.5q125 0 180 -99h14v85h74zM417 116q49 50 49 134q0 83 -49 133t-126 50q-76 0 -123.5 -49.5
t-47.5 -133.5q0 -85 47.5 -134.5t123.5 -49.5q77 0 126 50zM263 686q18 18 46 18t46.5 -18t18.5 -45q0 -28 -18.5 -46t-46.5 -18t-46 18t-18 46q0 27 18 45z" />
    <glyph glyph-name="v.ss03" horiz-adv-x="528" 
d="M106 488l152 -454h12l152 454h83l-171 -488h-140l-170 488h82z" />
    <glyph glyph-name="w.ss03" horiz-adv-x="781" 
d="M118 488l84 -454h12l109 454h135l109 -454h12l84 454h78l-97 -488h-139l-109 455h-12l-108 -455h-140l-96 488h78z" />
    <glyph glyph-name="wacute.ss03" horiz-adv-x="781" 
d="M118 488l84 -454h12l109 454h135l109 -454h12l84 454h78l-97 -488h-139l-109 455h-12l-108 -455h-140l-96 488h78zM488 700l-77 -130h-74l57 130h94z" />
    <glyph glyph-name="wcircumflex.ss03" horiz-adv-x="781" 
d="M118 488l84 -454h12l109 454h135l109 -454h12l84 454h78l-97 -488h-139l-109 455h-12l-108 -455h-140l-96 488h78zM395 651h-10l-60 -81h-83l99 130h98l99 -130h-83z" />
    <glyph glyph-name="wdieresis.ss03" horiz-adv-x="781" 
d="M118 488l84 -454h12l109 454h135l109 -454h12l84 454h78l-97 -488h-139l-109 455h-12l-108 -455h-140l-96 488h78zM255 686q18 18 46 18t46.5 -18t18.5 -45q0 -28 -18.5 -46t-46.5 -18t-46 18t-18 46q0 27 18 45zM432 686q18 18 46 18t46.5 -18t18.5 -45q0 -28 -18.5 -46
t-46.5 -18t-46 18t-18 46q0 27 18 45z" />
    <glyph glyph-name="wgrave.ss03" horiz-adv-x="781" 
d="M118 488l84 -454h12l109 454h135l109 -454h12l84 454h78l-97 -488h-139l-109 455h-12l-108 -455h-140l-96 488h78zM447 570h-75l-83 130h92z" />
    <glyph glyph-name="y.ss03" horiz-adv-x="548" 
d="M525 488l-254 -688h-82l78 200h-64l-179 488h82l163 -454h10l163 454h83z" />
    <glyph glyph-name="yacute.ss03" horiz-adv-x="548" 
d="M525 488l-254 -688h-82l78 200h-64l-179 488h82l163 -454h10l163 454h83zM372 700l-77 -130h-74l57 130h94z" />
    <glyph glyph-name="ycircumflex.ss03" horiz-adv-x="548" 
d="M525 488l-254 -688h-82l78 200h-64l-179 488h82l163 -454h10l163 454h83zM279 651h-10l-60 -81h-83l99 130h98l99 -130h-83z" />
    <glyph glyph-name="ydieresis.ss03" horiz-adv-x="548" 
d="M525 488l-254 -688h-82l78 200h-64l-179 488h82l163 -454h10l163 454h83zM139 686q18 18 46 18t46.5 -18t18.5 -45q0 -28 -18.5 -46t-46.5 -18t-46 18t-18 46q0 27 18 45zM316 686q18 18 46 18t46.5 -18t18.5 -45q0 -28 -18.5 -46t-46.5 -18t-46 18t-18 46q0 27 18 45z
" />
    <glyph glyph-name="ygrave.ss03" horiz-adv-x="548" 
d="M525 488l-254 -688h-82l78 200h-64l-179 488h82l163 -454h10l163 454h83zM331 570h-75l-83 130h92z" />
    <glyph glyph-name="ae.ss06" horiz-adv-x="567" 
d="M314 224v-168q51 7 81.5 31t50.5 64l63 -39q-75 -126 -235 -126q-108 0 -173 41.5t-65 115.5q0 66 54 103t136 37h14v148q-45 -2 -83.5 -29.5t-54.5 -74.5l-61 38q32 60 91 98.5t143 38.5q74 0 131.5 -30t90 -85t32.5 -129v-34h-215zM410 383.5q-36 38.5 -96 47.5v-148
h136q-4 62 -40 100.5zM240 56v168h-14q-53 0 -83.5 -21t-30.5 -63q0 -39 33.5 -61.5t80.5 -22.5h14z" />
    <glyph glyph-name="aeacute.ss06" horiz-adv-x="567" 
d="M314 224v-168q51 7 81.5 31t50.5 64l63 -39q-75 -126 -235 -126q-108 0 -173 41.5t-65 115.5q0 66 54 103t136 37h14v148q-45 -2 -83.5 -29.5t-54.5 -74.5l-61 38q32 60 91 98.5t143 38.5q74 0 131.5 -30t90 -85t32.5 -129v-34h-215zM410 383.5q-36 38.5 -96 47.5v-148
h136q-4 62 -40 100.5zM240 56v168h-14q-53 0 -83.5 -21t-30.5 -63q0 -39 33.5 -61.5t80.5 -22.5h14zM374 700l-77 -130h-74l57 130h94z" />
    <glyph glyph-name="oe.ss06" horiz-adv-x="594" 
d="M341 224v-168q50 7 81.5 32t51.5 65l63 -39q-33 -56 -87 -92t-144 -36q-79 0 -139 33t-92.5 91.5t-32.5 133.5t32.5 134t92 91.5t137.5 32.5q74 0 131.5 -29.5t89.5 -85t32 -129.5v-34h-216zM438 384q-36 38 -97 47v-148h136q-3 63 -39 101zM157.5 117
q39.5 -50 109.5 -60v374q-70 -11 -109.5 -62t-39.5 -125q0 -77 39.5 -127z" />
    <glyph glyph-name="zero.lf" horiz-adv-x="614" 
d="M119.5 640q67.5 74 187.5 74t187.5 -74t67.5 -211v-158q0 -139 -67 -212t-188 -73t-188 73t-67 212v158q0 137 67.5 211zM133 266q0 -99 44 -153t130 -54q87 0 130.5 54.5t43.5 152.5v168q0 98 -45 153t-129 55t-129 -55t-45 -153v-168z" />
    <glyph glyph-name="one.lf" horiz-adv-x="405" 
d="M331 700l-1 -700h-81v612h-12l-139 -215h-91l196 303h128z" />
    <glyph glyph-name="two.lf" horiz-adv-x="580" 
d="M78.5 602.5q33.5 54.5 91 83t128.5 28.5q69 0 124 -28t86.5 -79.5t31.5 -118.5q0 -94 -57.5 -150t-168.5 -85q-70 -19 -108.5 -35.5t-59.5 -45.5t-21 -78v-21h416v-73h-497v86q0 100 58.5 151.5t172.5 79.5q91 23 137.5 63.5t46.5 108.5q0 71 -44 112t-117 41
q-77 0 -124.5 -45t-47.5 -128v-20h-81v24q0 75 33.5 129.5z" />
    <glyph glyph-name="three.lf" horiz-adv-x="577" 
d="M533 700v-72l-233 -198v-11h24q60 0 108.5 -25t76.5 -72t28 -111q0 -66 -31.5 -117t-87 -79.5t-125.5 -28.5q-119 0 -188 63.5t-69 175.5v33h82v-33q0 -80 46.5 -123t128.5 -43q74 0 118.5 43.5t44.5 109.5q0 69 -45 106t-115 37h-99v77l226 194h-371v74h481z" />
    <glyph glyph-name="four.lf" horiz-adv-x="597" 
d="M467 700v-485h120v-73h-120v-142h-82v142h-370v70l319 488h133zM102 215h283v411h-12z" />
    <glyph glyph-name="five.lf" horiz-adv-x="576" 
d="M521 700v-73h-377v-250h12q49 94 170 94q59 0 107.5 -28.5t77 -81t28.5 -122.5q0 -74 -30.5 -131.5t-87 -89.5t-130.5 -32t-131 29.5t-88.5 83t-31.5 123.5v25h80v-19q0 -81 45.5 -125t123.5 -44q79 0 123 47t44 131q0 76 -40.5 120.5t-109.5 44.5q-88 0 -128 -78h-115
v376h458z" />
    <glyph glyph-name="six.lf" horiz-adv-x="587" 
d="M515 103q-32 -55 -88.5 -86t-127.5 -31q-70 0 -126 30t-88.5 84t-32.5 125v243q0 75 31 130.5t88.5 85.5t133.5 30q74 0 127 -28t81 -77.5t28 -111.5h-82q0 67 -39.5 106t-114.5 39q-81 0 -126.5 -44t-45.5 -123v-98h12q21 37 63.5 63t111.5 26q64 0 115.5 -30t81.5 -84
t30 -123q0 -71 -32 -126zM179.5 353.5q-46.5 -47.5 -46.5 -124.5t46 -123.5t121 -46.5q74 0 120 46.5t46 123.5t-46 124.5t-120 47.5t-120.5 -47.5z" />
    <glyph glyph-name="seven.lf" horiz-adv-x="541" 
d="M527 700v-70l-301 -630h-91l299 626h-421v74h514z" />
    <glyph glyph-name="eight.lf" horiz-adv-x="578" 
d="M78.5 623q29.5 43 84 67t126.5 24t126.5 -24t84.5 -67t30 -97q0 -63 -36 -102t-87 -56v-12q31 -6 62 -26.5t52 -57t21 -86.5q0 -59 -32 -104.5t-89.5 -70.5t-131.5 -25t-131.5 25t-89.5 70.5t-32 104.5q0 50 21 86.5t52 57t62 26.5v12q-50 17 -86 56t-36 102
q0 54 29.5 97zM174.5 429.5q44.5 -32.5 114.5 -32.5t114.5 32.5t44.5 89.5t-44.5 90t-114.5 33t-114.5 -33t-44.5 -90t44.5 -89.5zM164.5 93.5q46.5 -34.5 124.5 -34.5t125 34.5t47 98.5q0 63 -47 98t-125 35t-124.5 -35t-46.5 -98q0 -64 46.5 -98.5z" />
    <glyph glyph-name="nine.lf" horiz-adv-x="588" 
d="M73 598.5q33 55.5 90 85.5t128 30q69 0 124.5 -30t87.5 -84t32 -124v-244q0 -75 -31 -130.5t-88 -85.5t-133 -30q-74 0 -127.5 28t-81.5 77.5t-28 111.5h82q0 -66 39.5 -105t115.5 -39q81 0 126 43.5t45 122.5v98h-12q-20 -36 -63 -62t-112 -26q-63 0 -115 30t-82 84
t-30 123q0 71 33 126.5zM408 346.5q46 47.5 46 125.5q0 77 -46 123.5t-120 46.5q-75 0 -120.5 -46.5t-45.5 -123.5q0 -78 46 -125.5t120 -47.5t120 47.5z" />
    <glyph glyph-name="one.lf.ss03" horiz-adv-x="405" 
d="M331 700l-1 -700h-81v660h-12l-139 -263h-91l166 303h158z" />
    <glyph glyph-name="zero.lf.zero" horiz-adv-x="614" 
d="M494.5 640q67.5 -74 67.5 -211v-158q0 -139 -67 -212t-188 -73t-188 73t-67 212v158q0 137 67.5 211t187.5 74t187.5 -74zM133 266v-1l341 239q-14 66 -56.5 102t-110.5 36q-84 0 -129 -55t-45 -153v-168zM481 434v1l-341 -239q14 -66 56 -101.5t111 -35.5
q87 0 130.5 54.5t43.5 152.5v168z" />
    <glyph glyph-name="zero.osf" horiz-adv-x="594" 
d="M74.5 383.5q32.5 59.5 90.5 93t132 33.5q75 0 133 -33.5t90.5 -93t32.5 -135.5t-32.5 -135.5t-90.5 -93t-133 -33.5q-74 0 -132 33.5t-90.5 93t-32.5 135.5t32.5 135.5zM145 150q22 -43 61.5 -67t90.5 -24t91 24.5t62 67.5t22 97t-22 97.5t-62 68t-91 24.5t-90.5 -25
t-61.5 -68.5t-22 -96.5q0 -55 22 -98z" />
    <glyph glyph-name="one.osf" horiz-adv-x="408" 
d="M335 488v-488h-83v427h-12l-124 -154h-91v5l166 210h144z" />
    <glyph glyph-name="two.osf" horiz-adv-x="576" 
d="M168 465.5q71 36.5 159 36.5q94 0 149 -43t55 -114q0 -56 -28.5 -89.5t-81.5 -51.5t-137 -29q-61 -7 -94.5 -18.5t-48.5 -31t-17 -52.5h409v-73h-493v43q0 90 53 135.5t170 61.5q67 9 106 20t59.5 30.5t20.5 52.5q0 42 -35.5 64t-94.5 22q-65 0 -122 -31.5t-95 -86.5
l-64 47q59 71 130 107.5z" />
    <glyph glyph-name="three.osf" horiz-adv-x="576" 
d="M162 -96q46 -41 127 -41q49 0 86 20t57 54.5t20 76.5q0 68 -45 104.5t-115 36.5h-100v71l223 188h-367v74h481v-71l-226 -186v-12h16q60 0 109 -24.5t77 -71t28 -109.5q0 -65 -31.5 -116t-87 -79t-125.5 -28q-113 0 -181.5 58t-75.5 162l82 12q2 -78 48 -119z" />
    <glyph glyph-name="four.osf" horiz-adv-x="597" 
d="M466 488v-415h120v-73h-120v-200h-82v200h-363v69l309 419h136zM111 73h273v350h-12z" />
    <glyph glyph-name="five.osf" horiz-adv-x="580" 
d="M170.5 -99.5q45.5 -42.5 121.5 -42.5q78 0 122.5 47.5t44.5 129.5q0 75 -41 119t-109 44q-88 0 -128 -78h-115v368h457v-73h-376v-242h12q19 39 59.5 66.5t110.5 27.5q59 0 107.5 -28t77 -80.5t28.5 -121.5q0 -73 -30.5 -130t-87 -89t-131.5 -32q-72 0 -128 28t-88 79
t-34 119l80 9q2 -78 47.5 -120.5z" />
    <glyph glyph-name="six.osf" horiz-adv-x="587" 
d="M541 524q-9 84 -72 137t-165 53q-77 0 -134.5 -30t-89 -85.5t-31.5 -130.5v-243q0 -71 32.5 -125t88.5 -84t126 -30q71 0 127.5 31t88.5 86t32 126q0 69 -30 123t-81.5 84t-115.5 30q-69 0 -111.5 -26t-63.5 -63h-12v98q0 79 46.5 123t127.5 44q71 0 111 -34t45 -94z
M417 353.5q46 -47.5 46 -124.5t-46 -123.5t-120 -46.5q-75 0 -121 46.5t-46 123.5t46.5 124.5t120.5 47.5t120 -47.5z" />
    <glyph glyph-name="seven.osf" horiz-adv-x="551" 
d="M532 488v-70l-300 -618h-92l299 614h-420v74h513z" />
    <glyph glyph-name="eight.osf" horiz-adv-x="588" 
d="M83.5 623q29.5 43 84 67t126.5 24t126.5 -24t84 -67t29.5 -97q0 -63 -36 -102t-86 -56v-12q31 -6 62 -26.5t52 -57t21 -86.5q0 -59 -32 -104.5t-89.5 -70.5t-131.5 -25t-131.5 25t-89.5 70.5t-32 104.5q0 50 21 86.5t52 57t62 26.5v12q-50 17 -86 56t-36 102
q0 54 29.5 97zM179.5 429.5q44.5 -32.5 114.5 -32.5t114.5 32.5t44.5 89.5t-44.5 90t-114.5 33t-114.5 -33t-44.5 -90t44.5 -89.5zM169 93.5q47 -34.5 125 -34.5t125 34.5t47 98.5q0 63 -47 98t-125 35t-125 -35t-47 -98q0 -64 47 -98.5z" />
    <glyph glyph-name="nine.osf" horiz-adv-x="587" 
d="M178.5 -110q38.5 -32 106.5 -32q82 0 127 44t45 123v87h-12q-20 -37 -63 -63t-112 -26q-63 0 -115 30t-82 84t-30 123q0 71 33 126.5t90 85.5t127 30q69 0 125 -30t88 -84t32 -124v-232q0 -75 -31 -130.5t-88.5 -85.5t-133.5 -30q-99 0 -160.5 50t-73.5 132l81 11
q8 -57 46.5 -89zM411 135q46 48 46 125t-46 123.5t-120 46.5q-75 0 -121 -46.5t-46 -123.5t46.5 -125t120.5 -48t120 48z" />
    <glyph glyph-name="one.osf.ss03" horiz-adv-x="408" 
d="M335 488v-488h-83v448h-12l-124 -175h-91l154 215h156z" />
    <glyph glyph-name="zero.osf.zero" horiz-adv-x="594" 
d="M430 469q58 -33 90.5 -91.5t32.5 -133.5t-32.5 -133.5t-90.5 -91.5t-133 -33t-132.5 33t-90 91.5t-32.5 133.5t32.5 133.5t90 91.5t132.5 33t133 -33zM206.5 405.5q-39.5 -24.5 -61.5 -67t-22 -94.5q0 -42 13 -75l292 203q-23 27 -56.5 42.5t-74.5 15.5
q-51 0 -90.5 -24.5zM388 83q40 24 62 66t22 95q0 38 -13 75l-293 -202q23 -28 56.5 -43t74.5 -15q51 0 91 24z" />
    <glyph glyph-name="one.ss03" horiz-adv-x="405" 
d="M331 700l-1 -700h-81v660h-12l-139 -263h-91l166 303h158z" />
    <glyph glyph-name="zero.tf" 
d="M128.5 640.5q64.5 73.5 181.5 73.5t181.5 -73.5t64.5 -211.5v-158q0 -139 -64.5 -212t-181.5 -73t-181.5 73t-64.5 212v158q0 138 64.5 211.5zM146 267q0 -100 41 -154t123 -54q83 0 123.5 54.5t40.5 153.5v166q0 98 -42 153t-122 55q-81 0 -122.5 -55t-41.5 -153v-166z
" />
    <glyph glyph-name="one.tf" 
d="M581 73v-73h-517v73h247v539h-12l-119 -215h-90l169 303h134l-1 -627h189z" />
    <glyph glyph-name="two.tf" 
d="M104.5 602.5q33.5 54.5 91 83t128.5 28.5q69 0 124 -28t86.5 -79.5t31.5 -118.5q0 -94 -57.5 -150t-168.5 -85q-70 -19 -108.5 -35.5t-59.5 -45.5t-21 -78v-21h416v-73h-497v86q0 100 58.5 151.5t172.5 79.5q91 23 137.5 63.5t46.5 108.5q0 70 -44 110.5t-117 40.5
q-78 0 -125 -44.5t-47 -126.5v-20h-81v24q0 75 33.5 129.5z" />
    <glyph glyph-name="three.tf" 
d="M553 700v-74l-233 -196v-11h25q60 0 108.5 -25t76.5 -72t28 -111q0 -66 -31.5 -117t-87.5 -79.5t-126 -28.5q-118 0 -187 63.5t-69 175.5v33h81v-32q0 -80 46.5 -123t128.5 -43q74 0 118.5 43t44.5 109q0 69 -45 106t-115 37h-98v77l225 192h-370v76h480z" />
    <glyph glyph-name="four.tf" 
d="M477 700v-485h121v-73h-121v-142h-81v142h-359v70l308 488h132zM124 215h272v411h-12z" />
    <glyph glyph-name="five.tf" 
d="M543 700v-75h-377v-248h12q49 94 170 94q59 0 107.5 -28.5t77 -81t28.5 -122.5q0 -74 -30.5 -131.5t-87 -89.5t-130.5 -32t-131 29.5t-88.5 83t-31.5 123.5v25h80v-19q0 -81 45.5 -124.5t123.5 -43.5q79 0 123 47t44 130q0 76 -40.5 120.5t-109.5 44.5q-88 0 -128 -78
h-115v376h458z" />
    <glyph glyph-name="six.tf" 
d="M528 103q-32 -55 -88.5 -86t-127.5 -31q-70 0 -126 30t-88.5 84t-32.5 125v243q0 75 31 130.5t88.5 85.5t133.5 30q74 0 127 -28t81 -77.5t28 -111.5h-82q0 66 -39.5 105t-114.5 39q-81 0 -126.5 -44t-45.5 -122v-98h12q21 37 63.5 63t111.5 26q64 0 115.5 -30t81.5 -84
t30 -123q0 -71 -32 -126zM192.5 352.5q-46.5 -47.5 -46.5 -123.5q0 -77 46 -123t121 -46q74 0 120 46t46 123q0 76 -46 123.5t-120 47.5t-120.5 -47.5z" />
    <glyph glyph-name="seven.tf" 
d="M580 700v-71l-318 -629h-92l317 625h-450v75h543z" />
    <glyph glyph-name="eight.tf" 
d="M99.5 623q29.5 43 84 67t126.5 24t126.5 -24t84 -67t29.5 -97q0 -63 -36 -102t-86 -56v-12q31 -6 62 -26.5t52 -57t21 -86.5q0 -59 -32 -104.5t-89.5 -70.5t-131.5 -25t-131.5 25t-89.5 70.5t-32 104.5q0 50 21 86.5t52 57t62 26.5v12q-50 17 -86 56t-36 102
q0 54 29.5 97zM195.5 430.5q44.5 -32.5 114.5 -32.5t114.5 32.5t44.5 88.5t-44.5 88.5t-114.5 32.5t-114.5 -32.5t-44.5 -88.5t44.5 -88.5zM185 94.5q47 -34.5 125 -34.5t125 34.5t47 97.5t-47 97.5t-125 34.5t-125 -34.5t-47 -97.5t47 -97.5z" />
    <glyph glyph-name="nine.tf" 
d="M98 598.5q33 55.5 90 85.5t127 30q69 0 125 -30t88 -84t32 -124v-244q0 -75 -31 -130.5t-88.5 -85.5t-133.5 -30q-74 0 -127 28t-81 77.5t-28 111.5h82q0 -66 39.5 -104.5t114.5 -38.5q82 0 127 43.5t45 121.5v98h-12q-20 -36 -63 -62t-112 -26q-64 0 -115.5 30t-81.5 84
t-30 123q0 71 33 126.5zM433 348q46 47 46 124t-46 122.5t-120 45.5q-75 0 -121 -46t-46 -122q0 -77 46 -124t121 -47q74 0 120 47z" />
    <glyph glyph-name="one.tf.ss03" 
d="M581 73v-73h-517v73h247v587h-12l-119 -263h-90l145 303h158l-1 -627h189z" />
    <glyph glyph-name="zero.tf.zero" 
d="M491.5 640.5q64.5 -73.5 64.5 -211.5v-158q0 -139 -64.5 -212t-181.5 -73t-181.5 73t-64.5 212v158q0 138 64.5 211.5t181.5 73.5t181.5 -73.5zM187.5 586q-41.5 -55 -41.5 -153v-161l323 226q-13 69 -53 106t-106 37q-81 0 -122.5 -55zM433.5 113.5
q40.5 54.5 40.5 153.5v161l-323 -226q25 -143 159 -143q83 0 123.5 54.5z" />
    <glyph glyph-name="zero.tosf" 
d="M86.5 386.5q32.5 58.5 90.5 91t133 32.5t133 -32.5t90.5 -91t32.5 -133.5v-10q0 -75 -32.5 -133.5t-90.5 -91t-133 -32.5t-133 32.5t-90.5 91t-32.5 133.5v10q0 75 32.5 133.5zM136 242q0 -82 48 -132.5t126 -50.5t126 51t48 132v12q0 81 -48 132t-126 51
q-51 0 -90.5 -23.5t-61.5 -65.5t-22 -94v-12z" />
    <glyph glyph-name="one.tosf" 
d="M400 488v-415h183v-73h-528v73h262v354h-12l-111 -154h-90v5l152 210h144z" />
    <glyph glyph-name="two.tosf" 
d="M193 465.5q71 36.5 159 36.5q94 0 149 -43t55 -114q0 -56 -28.5 -89.5t-81.5 -51.5t-138 -29q-60 -7 -93.5 -18.5t-49 -31t-17.5 -52.5h409v-73h-492v43q0 90 52.5 135.5t170.5 61.5q67 9 106 20t59.5 30.5t20.5 52.5q0 42 -35.5 64t-94.5 22q-65 0 -122 -31.5t-95 -86.5
l-64 47q59 71 130 107.5z" />
    <glyph glyph-name="three.tosf" 
d="M181.5 -96q46.5 -41 126.5 -41q49 0 86 20t57 54.5t20 76.5q0 68 -45 104.5t-115 36.5h-100v71l224 188h-367v74h480v-71l-225 -186v-12h16q60 0 108.5 -24.5t77 -71t28.5 -109.5q0 -65 -31.5 -116t-87.5 -79t-126 -28q-113 0 -181.5 58t-74.5 162l81 12q2 -78 48.5 -119
z" />
    <glyph glyph-name="four.tosf" 
d="M474 488v-415h120v-73h-120v-200h-81v200h-363v69l309 419h135zM118 73h275v350h-12z" />
    <glyph glyph-name="five.tosf" 
d="M192.5 -99.5q45.5 -42.5 121.5 -42.5q78 0 122.5 47.5t44.5 129.5q0 75 -41 119t-109 44q-88 0 -128 -78h-115v368h457v-73h-376v-242h12q19 39 59.5 66.5t110.5 27.5q59 0 107.5 -28t77 -80.5t28.5 -121.5q0 -73 -30.5 -130t-87 -89t-131.5 -32q-72 0 -128 28t-88 79
t-34 119l80 9q2 -78 47.5 -120.5z" />
    <glyph glyph-name="six.tosf" 
d="M556 524q-9 84 -72 137t-165 53q-77 0 -134.5 -30t-89 -85.5t-31.5 -130.5v-243q0 -71 32.5 -125t88.5 -84t126 -30t126.5 31t89 86t32.5 126q0 69 -30 123t-82 84t-115 30q-69 0 -112 -26t-63 -63h-12v98q0 79 46 123t128 44q71 0 111 -34t45 -94zM431.5 353.5
q46.5 -47.5 46.5 -124.5t-46 -123.5t-121 -46.5q-74 0 -120 46.5t-46 123.5t46 124.5t120 47.5t120.5 -47.5z" />
    <glyph glyph-name="seven.tosf" 
d="M575 488v-70l-319 -618h-91l317 614h-450v74h543z" />
    <glyph glyph-name="eight.tosf" 
d="M99.5 623q29.5 43 84 67t126.5 24t126.5 -24t84 -67t29.5 -97q0 -63 -36 -102t-86 -56v-12q31 -6 62 -26.5t52 -57t21 -86.5q0 -59 -32 -104.5t-89.5 -70.5t-131.5 -25t-131.5 25t-89.5 70.5t-32 104.5q0 50 21 86.5t52 57t62 26.5v12q-50 17 -86 56t-36 102
q0 54 29.5 97zM195.5 429.5q44.5 -32.5 114.5 -32.5t114.5 32.5t44.5 89.5t-44.5 90t-114.5 33t-114.5 -33t-44.5 -90t44.5 -89.5zM185 93.5q47 -34.5 125 -34.5t125 34.5t47 98.5q0 63 -47 98t-125 35t-125 -35t-47 -98q0 -64 47 -98.5z" />
    <glyph glyph-name="nine.tosf" 
d="M196 -109.5q39 -32.5 107 -32.5q81 0 126 44t45 123v87h-12q-20 -37 -62.5 -63t-111.5 -26q-64 0 -116 30t-82 84t-30 123q0 71 33 126.5t90 85.5t128 30q69 0 125 -30t88 -84t32 -124v-232q0 -75 -31.5 -130.5t-88.5 -85.5t-133 -30q-100 0 -161.5 50t-72.5 132l81 11
q7 -56 46 -88.5zM428 135q46 48 46 125t-46 123.5t-120 46.5t-120 -46.5t-46 -123.5t46 -125t120 -48t120 48z" />
    <glyph glyph-name="one.tosf.ss03" 
d="M400 488v-415h183v-73h-528v73h262v375h-12l-111 -175h-90l140 215h156z" />
    <glyph glyph-name="zero.tosf.zero" 
d="M443 469q58 -33 90.5 -91.5t32.5 -133.5t-32.5 -133.5t-90.5 -91.5t-133 -33t-133 33t-90.5 91.5t-32.5 133.5t32.5 133.5t90.5 91.5t133 33t133 -33zM219.5 405.5q-39.5 -24.5 -61.5 -67t-22 -94.5q0 -42 13 -75l292 202q-24 28 -57 43.5t-74 15.5q-51 0 -90.5 -24.5z
M400.5 83q39.5 24 61.5 66t22 95q0 42 -13 75l-292 -202q23 -28 56.5 -43t74.5 -15q51 0 90.5 24z" />
    <glyph glyph-name="zero.zero" horiz-adv-x="614" 
d="M494.5 640q67.5 -74 67.5 -211v-158q0 -139 -67 -212t-188 -73t-188 73t-67 212v158q0 137 67.5 211t187.5 74t187.5 -74zM133 266v-1l341 239q-14 66 -56.5 102t-110.5 36q-84 0 -129 -55t-45 -153v-168zM481 434v1l-341 -239q14 -66 56 -101.5t111 -35.5
q87 0 130.5 54.5t43.5 152.5v168z" />
    <glyph glyph-name="zero.subs" horiz-adv-x="370" 
d="M67.5 121q42.5 42 117.5 42q74 0 117 -42.5t43 -116.5v-59q0 -74 -42 -116t-118 -42t-118 42t-42 116v59q0 75 42.5 117zM91 -60q0 -44 24.5 -70.5t69.5 -26.5t69.5 26t24.5 71v70q0 45 -24.5 71t-69.5 26t-69.5 -26.5t-24.5 -70.5v-70z" />
    <glyph glyph-name="one.subs" horiz-adv-x="250" 
d="M202 150v-350h-66v268h-10l-50 -74h-63v10l98 146h91z" />
    <glyph glyph-name="two.subs" horiz-adv-x="357" 
d="M291.5 130.5q41.5 -32.5 41.5 -86.5q0 -52 -33 -79.5t-101 -42.5q-55 -13 -79.5 -27.5t-28.5 -39.5h240v-55h-308v30q0 54 34.5 88t105.5 51q56 12 80 28.5t24 46.5q0 29 -23.5 46.5t-60.5 17.5q-42 0 -67 -22t-26 -62h-65q1 65 45 102t114 37q66 0 107.5 -32.5z" />
    <glyph glyph-name="three.subs" horiz-adv-x="361" 
d="M336 150v-46l-122 -81v-10q54 -2 89 -28.5t35 -75.5q0 -53 -45 -87.5t-111 -34.5q-73 0 -116.5 35t-44.5 98h65q1 -36 26.5 -56.5t67.5 -20.5q41 0 66.5 19t25.5 49q0 29 -24 45t-68 16h-61v45l113 78h-204v55h308z" />
    <glyph glyph-name="four.subs" horiz-adv-x="379" 
d="M296 150v-213h78v-54h-78v-83h-66v83h-216v50l180 217h102zM89 -63h141v155h-9z" />
    <glyph glyph-name="five.subs" horiz-adv-x="359" 
d="M328 150v-55h-229v-92h10q20 14 41 23.5t58 9.5q57 0 94.5 -32t37.5 -86v-4q0 -56 -42.5 -91.5t-112.5 -35.5q-68 0 -110.5 34t-51.5 89h67q6 -29 31 -48.5t64 -19.5q41 0 65 20.5t24 52.5q0 31 -23 49.5t-58 18.5q-48 0 -78 -33h-80v200h293z" />
    <glyph glyph-name="six.subs" horiz-adv-x="364" 
d="M71 125.5q46 37.5 116 37.5q65 0 106 -30.5t45 -79.5h-66q-3 24 -24 39.5t-60 15.5q-44 0 -70.5 -22t-26.5 -57v-31h10q16 14 38.5 24t61.5 10q61 0 101.5 -31.5t40.5 -87.5q0 -57 -44.5 -91.5t-114.5 -34.5t-114.5 35t-44.5 91v116q0 59 46 96.5zM116.5 -139
q25.5 -20 67.5 -20t67.5 20t25.5 51q0 30 -25.5 49.5t-67.5 19.5t-67.5 -19.5t-25.5 -49.5q0 -31 25.5 -51z" />
    <glyph glyph-name="seven.subs" horiz-adv-x="317" 
d="M309 150v-51l-154 -299h-72l152 295h-228v55h302z" />
    <glyph glyph-name="eight.subs" horiz-adv-x="365" 
d="M72 136q43 27 111 27t111 -27t43 -70v-3q0 -33 -20 -52t-44 -26v-10q26 -6 48 -26.5t22 -56.5v-2q0 -45 -43.5 -74t-116.5 -29t-116.5 29t-43.5 74v2q0 36 21.5 56.5t48.5 26.5v10q-25 7 -44.5 26t-19.5 52v3q0 43 43 70zM118.5 20.5q23.5 -14.5 64.5 -14.5
q40 0 63.5 14.5t23.5 38.5q0 23 -23.5 36.5t-63.5 13.5q-41 0 -64.5 -13.5t-23.5 -36.5q0 -24 23.5 -38.5zM114 -144.5q25 -14.5 69 -14.5q43 0 68 14.5t25 41.5t-25 41t-68 14q-44 0 -69 -14t-25 -41t25 -41.5z" />
    <glyph glyph-name="nine.subs" horiz-adv-x="364" 
d="M294.5 -175.5q-44.5 -37.5 -113.5 -37.5q-62 0 -103 28.5t-51 76.5h69q6 -22 26.5 -36t58.5 -14q42 0 67 22t25 57v31h-10q-16 -14 -38.5 -24t-61.5 -10q-60 0 -101 32t-41 87q0 57 44.5 91.5t114.5 34.5t114.5 -35t44.5 -91v-116q0 -59 -44.5 -96.5zM247.5 89
q-25.5 20 -67.5 20t-67.5 -20t-25.5 -51q0 -30 25.5 -49.5t67.5 -19.5t67.5 19.5t25.5 49.5q0 31 -25.5 51z" />
    <glyph glyph-name="zero.dnom" horiz-adv-x="370" 
d="M67.5 321q42.5 42 117.5 42q74 0 117 -42.5t43 -116.5v-59q0 -74 -42 -116t-118 -42t-118 42t-42 116v59q0 75 42.5 117zM91 140q0 -44 24.5 -70.5t69.5 -26.5t69.5 26t24.5 71v70q0 45 -24.5 71t-69.5 26t-69.5 -26.5t-24.5 -70.5v-70z" />
    <glyph glyph-name="one.dnom" horiz-adv-x="250" 
d="M202 350v-350h-66v268h-10l-50 -74h-63v10l98 146h91z" />
    <glyph glyph-name="two.dnom" horiz-adv-x="357" 
d="M291.5 330.5q41.5 -32.5 41.5 -86.5q0 -52 -33 -79.5t-101 -42.5q-55 -13 -79.5 -27.5t-28.5 -39.5h240v-55h-308v30q0 54 34.5 88t105.5 51q56 12 80 28.5t24 46.5q0 29 -23.5 46.5t-60.5 17.5q-42 0 -67 -22t-26 -62h-65q1 65 45 102t114 37q66 0 107.5 -32.5z" />
    <glyph glyph-name="three.dnom" horiz-adv-x="361" 
d="M336 350v-46l-122 -81v-10q54 -2 89 -28.5t35 -75.5q0 -53 -45 -87.5t-111 -34.5q-73 0 -116.5 35t-44.5 98h65q1 -36 26.5 -56.5t67.5 -20.5q41 0 66.5 19t25.5 49q0 29 -24 45t-68 16h-61v45l113 78h-204v55h308z" />
    <glyph glyph-name="four.dnom" horiz-adv-x="379" 
d="M296 350v-213h78v-54h-78v-83h-66v83h-216v50l180 217h102zM89 137h141v155h-9z" />
    <glyph glyph-name="five.dnom" horiz-adv-x="359" 
d="M328 350v-55h-229v-92h10q20 14 41 23.5t58 9.5q57 0 94.5 -32t37.5 -86v-4q0 -56 -42.5 -91.5t-112.5 -35.5q-68 0 -110.5 34t-51.5 89h67q6 -29 31 -48.5t64 -19.5q41 0 65 20.5t24 52.5q0 31 -23 49.5t-58 18.5q-48 0 -78 -33h-80v200h293z" />
    <glyph glyph-name="six.dnom" horiz-adv-x="364" 
d="M71 325.5q46 37.5 116 37.5q65 0 106 -30.5t45 -79.5h-66q-3 24 -24 39.5t-60 15.5q-44 0 -70.5 -22t-26.5 -57v-31h10q16 14 38.5 24t61.5 10q61 0 101.5 -31.5t40.5 -87.5q0 -57 -44.5 -91.5t-114.5 -34.5t-114.5 35t-44.5 91v116q0 59 46 96.5zM116.5 61
q25.5 -20 67.5 -20t67.5 20t25.5 51q0 30 -25.5 49.5t-67.5 19.5t-67.5 -19.5t-25.5 -49.5q0 -31 25.5 -51z" />
    <glyph glyph-name="seven.dnom" horiz-adv-x="317" 
d="M309 350v-51l-154 -299h-72l152 295h-228v55h302z" />
    <glyph glyph-name="eight.dnom" horiz-adv-x="365" 
d="M72 336q43 27 111 27t111 -27t43 -70v-3q0 -33 -20 -52t-44 -26v-10q26 -6 48 -26.5t22 -56.5v-2q0 -45 -43.5 -74t-116.5 -29t-116.5 29t-43.5 74v2q0 36 21.5 56.5t48.5 26.5v10q-25 7 -44.5 26t-19.5 52v3q0 43 43 70zM118.5 220.5q23.5 -14.5 64.5 -14.5
q40 0 63.5 14.5t23.5 38.5q0 23 -23.5 36.5t-63.5 13.5q-41 0 -64.5 -13.5t-23.5 -36.5q0 -24 23.5 -38.5zM114 55.5q25 -14.5 69 -14.5q43 0 68 14.5t25 41.5t-25 41t-68 14q-44 0 -69 -14t-25 -41t25 -41.5z" />
    <glyph glyph-name="nine.dnom" horiz-adv-x="364" 
d="M294.5 24.5q-44.5 -37.5 -113.5 -37.5q-62 0 -103 28.5t-51 76.5h69q6 -22 26.5 -36t58.5 -14q42 0 67 22t25 57v31h-10q-16 -14 -38.5 -24t-61.5 -10q-60 0 -101 32t-41 87q0 57 44.5 91.5t114.5 34.5t114.5 -35t44.5 -91v-116q0 -59 -44.5 -96.5zM247.5 289
q-25.5 20 -67.5 20t-67.5 -20t-25.5 -51q0 -30 25.5 -49.5t67.5 -19.5t67.5 19.5t25.5 49.5q0 31 -25.5 51z" />
    <glyph glyph-name="zero.numr" horiz-adv-x="370" 
d="M67.5 671q42.5 42 117.5 42q74 0 117 -42.5t43 -116.5v-59q0 -74 -42 -116t-118 -42t-118 42t-42 116v59q0 75 42.5 117zM91 490q0 -44 24.5 -70.5t69.5 -26.5t69.5 26t24.5 71v70q0 45 -24.5 71t-69.5 26t-69.5 -26.5t-24.5 -70.5v-70z" />
    <glyph glyph-name="one.numr" horiz-adv-x="250" 
d="M202 700v-350h-66v268h-10l-50 -74h-63v10l98 146h91z" />
    <glyph glyph-name="two.numr" horiz-adv-x="357" 
d="M291.5 680.5q41.5 -32.5 41.5 -86.5q0 -52 -33 -79.5t-101 -42.5q-55 -13 -79.5 -27.5t-28.5 -39.5h240v-55h-308v30q0 54 34.5 88t105.5 51q56 12 80 28.5t24 46.5q0 29 -23.5 46.5t-60.5 17.5q-42 0 -67 -22t-26 -62h-65q1 65 45 102t114 37q66 0 107.5 -32.5z" />
    <glyph glyph-name="three.numr" horiz-adv-x="361" 
d="M336 700v-46l-122 -81v-10q54 -2 89 -28.5t35 -75.5q0 -53 -45 -87.5t-111 -34.5q-73 0 -116.5 35t-44.5 98h65q1 -36 26.5 -56.5t67.5 -20.5q41 0 66.5 19t25.5 49q0 29 -24 45t-68 16h-61v45l113 78h-204v55h308z" />
    <glyph glyph-name="four.numr" horiz-adv-x="379" 
d="M296 700v-213h78v-54h-78v-83h-66v83h-216v50l180 217h102zM89 487h141v155h-9z" />
    <glyph glyph-name="five.numr" horiz-adv-x="359" 
d="M328 700v-55h-229v-92h10q20 14 41 23.5t58 9.5q57 0 94.5 -32t37.5 -86v-4q0 -56 -42.5 -91.5t-112.5 -35.5q-68 0 -110.5 34t-51.5 89h67q6 -29 31 -48.5t64 -19.5q41 0 65 20.5t24 52.5q0 31 -23 49.5t-58 18.5q-48 0 -78 -33h-80v200h293z" />
    <glyph glyph-name="six.numr" horiz-adv-x="364" 
d="M71 675.5q46 37.5 116 37.5q65 0 106 -30.5t45 -79.5h-66q-3 24 -24 39.5t-60 15.5q-44 0 -70.5 -22t-26.5 -57v-31h10q16 14 38.5 24t61.5 10q61 0 101.5 -31.5t40.5 -87.5q0 -57 -44.5 -91.5t-114.5 -34.5t-114.5 35t-44.5 91v116q0 59 46 96.5zM116.5 411
q25.5 -20 67.5 -20t67.5 20t25.5 51q0 30 -25.5 49.5t-67.5 19.5t-67.5 -19.5t-25.5 -49.5q0 -31 25.5 -51z" />
    <glyph glyph-name="seven.numr" horiz-adv-x="317" 
d="M309 700v-51l-154 -299h-72l152 295h-228v55h302z" />
    <glyph glyph-name="eight.numr" horiz-adv-x="365" 
d="M72 686q43 27 111 27t111 -27t43 -70v-3q0 -33 -20 -52t-44 -26v-10q26 -6 48 -26.5t22 -56.5v-2q0 -45 -43.5 -74t-116.5 -29t-116.5 29t-43.5 74v2q0 36 21.5 56.5t48.5 26.5v10q-25 7 -44.5 26t-19.5 52v3q0 43 43 70zM118.5 570.5q23.5 -14.5 64.5 -14.5
q40 0 63.5 14.5t23.5 38.5q0 23 -23.5 36.5t-63.5 13.5q-41 0 -64.5 -13.5t-23.5 -36.5q0 -24 23.5 -38.5zM114 405.5q25 -14.5 69 -14.5q43 0 68 14.5t25 41.5t-25 41t-68 14q-44 0 -69 -14t-25 -41t25 -41.5z" />
    <glyph glyph-name="nine.numr" horiz-adv-x="380" 
d="M303.5 374.5q-44.5 -37.5 -113.5 -37.5q-62 0 -103 28.5t-51 76.5h69q6 -22 26.5 -36t58.5 -14q42 0 67 22t25 57v31h-10q-37 -34 -100 -34q-60 0 -101 32t-41 87q0 57 44.5 91.5t114.5 34.5t114.5 -35t44.5 -91v-116q0 -59 -44.5 -96.5zM257 639q-25 20 -68 20
q-42 0 -67 -20t-25 -51q0 -30 25 -49.5t67 -19.5q43 0 68 19t25 50t-25 51z" />
    <glyph glyph-name="zero.sups" horiz-adv-x="370" 
d="M67.5 671q42.5 42 117.5 42q74 0 117 -42.5t43 -116.5v-59q0 -74 -42 -116t-118 -42t-118 42t-42 116v59q0 75 42.5 117zM91 490q0 -44 24.5 -70.5t69.5 -26.5t69.5 26t24.5 71v70q0 45 -24.5 71t-69.5 26t-69.5 -26.5t-24.5 -70.5v-70z" />
    <glyph glyph-name="one.sups" horiz-adv-x="250" 
d="M202 700v-350h-66v268h-10l-50 -74h-63v10l98 146h91z" />
    <glyph glyph-name="two.sups" horiz-adv-x="357" 
d="M291.5 680.5q41.5 -32.5 41.5 -86.5q0 -52 -33 -79.5t-101 -42.5q-55 -13 -79.5 -27.5t-28.5 -39.5h240v-55h-308v30q0 54 34.5 88t105.5 51q56 12 80 28.5t24 46.5q0 29 -23.5 46.5t-60.5 17.5q-42 0 -67 -22t-26 -62h-65q1 65 45 102t114 37q66 0 107.5 -32.5z" />
    <glyph glyph-name="three.sups" horiz-adv-x="361" 
d="M336 700v-46l-122 -81v-10q54 -2 89 -28.5t35 -75.5q0 -53 -45 -87.5t-111 -34.5q-73 0 -116.5 35t-44.5 98h65q1 -36 26.5 -56.5t67.5 -20.5q41 0 66.5 19t25.5 49q0 29 -24 45t-68 16h-61v45l113 78h-204v55h308z" />
    <glyph glyph-name="four.sups" horiz-adv-x="379" 
d="M296 700v-213h78v-54h-78v-83h-66v83h-216v50l180 217h102zM89 487h141v155h-9z" />
    <glyph glyph-name="five.sups" horiz-adv-x="359" 
d="M328 700v-55h-229v-92h10q20 14 41 23.5t58 9.5q57 0 94.5 -32t37.5 -86v-4q0 -56 -42.5 -91.5t-112.5 -35.5q-68 0 -110.5 34t-51.5 89h67q6 -29 31 -48.5t64 -19.5q41 0 65 20.5t24 52.5q0 31 -23 49.5t-58 18.5q-48 0 -78 -33h-80v200h293z" />
    <glyph glyph-name="six.sups" horiz-adv-x="364" 
d="M71 675.5q46 37.5 116 37.5q65 0 106 -30.5t45 -79.5h-66q-3 24 -24 39.5t-60 15.5q-44 0 -70.5 -22t-26.5 -57v-31h10q16 14 38.5 24t61.5 10q61 0 101.5 -31.5t40.5 -87.5q0 -57 -44.5 -91.5t-114.5 -34.5t-114.5 35t-44.5 91v116q0 59 46 96.5zM116.5 411
q25.5 -20 67.5 -20t67.5 20t25.5 51q0 30 -25.5 49.5t-67.5 19.5t-67.5 -19.5t-25.5 -49.5q0 -31 25.5 -51z" />
    <glyph glyph-name="seven.sups" horiz-adv-x="317" 
d="M309 700v-51l-154 -299h-72l152 295h-228v55h302z" />
    <glyph glyph-name="eight.sups" horiz-adv-x="365" 
d="M72 686q43 27 111 27t111 -27t43 -70v-3q0 -33 -20 -52t-44 -26v-10q26 -6 48 -26.5t22 -56.5v-2q0 -45 -43.5 -74t-116.5 -29t-116.5 29t-43.5 74v2q0 36 21.5 56.5t48.5 26.5v10q-25 7 -44.5 26t-19.5 52v3q0 43 43 70zM118.5 570.5q23.5 -14.5 64.5 -14.5
q40 0 63.5 14.5t23.5 38.5q0 23 -23.5 36.5t-63.5 13.5q-41 0 -64.5 -13.5t-23.5 -36.5q0 -24 23.5 -38.5zM114 405.5q25 -14.5 69 -14.5q43 0 68 14.5t25 41.5t-25 41t-68 14q-44 0 -69 -14t-25 -41t25 -41.5z" />
    <glyph glyph-name="nine.sups" horiz-adv-x="380" 
d="M303.5 374.5q-44.5 -37.5 -113.5 -37.5q-62 0 -103 28.5t-51 76.5h69q6 -22 26.5 -36t58.5 -14q42 0 67 22t25 57v31h-10q-37 -34 -100 -34q-60 0 -101 32t-41 87q0 57 44.5 91.5t114.5 34.5t114.5 -35t44.5 -91v-116q0 -59 -44.5 -96.5zM257 639q-25 20 -68 20
q-42 0 -67 -20t-25 -51q0 -30 25 -49.5t67 -19.5q43 0 68 19t25 50t-25 51z" />
    <glyph glyph-name="zero.subs.zero" horiz-adv-x="370" 
d="M302 120.5q43 -42.5 43 -116.5v-59q0 -74 -42 -116t-118 -42t-118 42t-42 116v59q0 75 42.5 117t117.5 42q74 0 117 -42.5zM115.5 80.5q-24.5 -26.5 -24.5 -70.5v-67l178 116q-10 23 -31.5 35.5t-52.5 12.5q-45 0 -69.5 -26.5zM279 10v1l-179 -117q10 -24 31.5 -37.5
t53.5 -13.5q45 0 69.5 26t24.5 71v70z" />
    <glyph glyph-name="zero.dnom.zero" horiz-adv-x="370" 
d="M302 320.5q43 -42.5 43 -116.5v-59q0 -74 -42 -116t-118 -42t-118 42t-42 116v59q0 75 42.5 117t117.5 42q74 0 117 -42.5zM115.5 280.5q-24.5 -26.5 -24.5 -70.5v-67l178 116q-10 23 -31.5 35.5t-52.5 12.5q-45 0 -69.5 -26.5zM279 210v1l-179 -117q10 -24 31.5 -37.5
t53.5 -13.5q45 0 69.5 26t24.5 71v70z" />
    <glyph glyph-name="zero.numr.zero" horiz-adv-x="370" 
d="M302 670.5q43 -42.5 43 -116.5v-59q0 -74 -42 -116t-118 -42t-118 42t-42 116v59q0 75 42.5 117t117.5 42q74 0 117 -42.5zM115.5 630.5q-24.5 -26.5 -24.5 -70.5v-67l178 116q-10 23 -31.5 35.5t-52.5 12.5q-45 0 -69.5 -26.5zM279 560v1l-179 -117q10 -24 31.5 -37.5
t53.5 -13.5q45 0 69.5 26t24.5 71v70z" />
    <glyph glyph-name="zero.sups.zero" horiz-adv-x="370" 
d="M302 670.5q43 -42.5 43 -116.5v-59q0 -74 -42 -116t-118 -42t-118 42t-42 116v59q0 75 42.5 117t117.5 42q74 0 117 -42.5zM115.5 630.5q-24.5 -26.5 -24.5 -70.5v-67l178 116q-10 23 -31.5 35.5t-52.5 12.5q-45 0 -69.5 -26.5zM279 560v1l-179 -117q10 -24 31.5 -37.5
t53.5 -13.5q45 0 69.5 26t24.5 71v70z" />
    <glyph glyph-name="exclamdown.case" horiz-adv-x="243" 
d="M72.5 680.5q19.5 19.5 49.5 19.5q29 0 49 -19.5t20 -49.5t-20 -49.5t-49 -19.5q-30 0 -49.5 19.5t-19.5 49.5t19.5 49.5zM81 499h81v-513h-81v513z" />
    <glyph glyph-name="questiondown.case" horiz-adv-x="610" 
d="M367 595.5q-20 -19.5 -49 -19.5q-30 0 -49.5 19.5t-19.5 49.5t19.5 49.5t49.5 19.5q29 0 49 -19.5t20 -49.5t-20 -49.5zM521.5 84q-31.5 -48 -88 -73t-128.5 -25q-70 0 -125.5 25.5t-86.5 70.5t-31 101v7q0 75 40.5 120.5t110.5 74.5l29 12q20 9 27.5 22t7.5 38v56h81
v-58q0 -48 -15.5 -74.5t-59.5 -45.5l-28 -12q-58 -24 -84.5 -53.5t-26.5 -81.5q0 -60 45.5 -93.5t115.5 -33.5q73 0 120 36t47 105v36h81v-40q0 -66 -31.5 -114z" />
    <glyph glyph-name="slash.case" horiz-adv-x="440" 
d="M391 737l-260 -778h-82l260 778h82z" />
    <glyph glyph-name="backslash.case" horiz-adv-x="440" 
d="M391 -41h-82l-260 778h82z" />
    <glyph glyph-name="parenleft.case" horiz-adv-x="401" 
d="M136 587q0 136 65 200.5t180 64.5v-73q-84 -2 -124 -50.5t-40 -148.5v-469q0 -100 40.5 -148.5t123.5 -50.5v-73q-115 0 -180 64.5t-65 200.5v483z" />
    <glyph glyph-name="parenright.case" horiz-adv-x="401" 
d="M200 -96.5q-65 -64.5 -180 -64.5v73q84 2 124.5 50.5t40.5 148.5v469q0 100 -40.5 148.5t-124.5 50.5v73q115 0 180 -64.5t65 -200.5v-483q0 -136 -65 -200.5z" />
    <glyph glyph-name="braceleft.case" horiz-adv-x="381" 
d="M137 393q27 0 27 29v351q0 33 22 55t55 22h107v-73h-76q-27 0 -27 -30v-320q0 -34 -19 -55t-52 -21h-9v-11h9q33 0 52 -21t19 -55v-320q0 -30 27 -30h76v-73h-107q-33 0 -55 22t-22 55v351q0 29 -27 29h-57v95h57z" />
    <glyph glyph-name="braceright.case" horiz-adv-x="381" 
d="M302 298h-58q-27 0 -27 -29v-351q0 -33 -21.5 -55t-55.5 -22h-107v73h76q27 0 27 30v320q0 34 19 55t53 21h9v11h-9q-34 0 -53 21t-19 55v320q0 30 -27 30h-76v73h107q34 0 55.5 -22t21.5 -55v-351q0 -29 27 -29h58v-95z" />
    <glyph glyph-name="bracketleft.case" horiz-adv-x="353" 
d="M157.5 828q21.5 22 55.5 22h107v-73h-76q-27 0 -27 -30v-803q0 -30 27 -30h76v-73h-107q-34 0 -55.5 22t-21.5 55v855q0 33 21.5 55z" />
    <glyph glyph-name="bracketright.case" horiz-adv-x="353" 
d="M217 -82q0 -33 -21.5 -55t-55.5 -22h-107v73h76q27 0 27 30v803q0 30 -27 30h-76v73h107q34 0 55.5 -22t21.5 -55v-855z" />
    <glyph glyph-name="hyphen.case" horiz-adv-x="460" 
d="M82 385h296v-71h-296v71z" />
    <glyph glyph-name="endash.case" horiz-adv-x="612" 
d="M82 385h448v-71h-448v71z" />
    <glyph glyph-name="emdash.case" horiz-adv-x="916" 
d="M82 385h752v-71h-752v71z" />
    <glyph glyph-name="guillemotleft.case" horiz-adv-x="780" 
d="M382 564h6v-87l-243 -133v-12l243 -133v-87h-6l-314 183v86zM702 564h6v-87l-244 -133v-12l244 -133v-87h-6l-314 183v86z" />
    <glyph glyph-name="guillemotright.case" horiz-adv-x="780" 
d="M388 295l-314 -183h-6v87l244 133v12l-244 133v87h6l314 -183v-86zM708 295l-314 -183h-6v87l243 133v12l-243 133v87h6l314 -183v-86z" />
    <glyph glyph-name="guilsinglleft.case" horiz-adv-x="480" 
d="M402 564h6v-87l-267 -133v-12l267 -133v-87h-6l-334 181v90z" />
    <glyph glyph-name="guilsinglright.case" horiz-adv-x="480" 
d="M412 293l-334 -181h-6v87l268 133v12l-268 133v87h6l334 -181v-90z" />
    <glyph glyph-name="uni2197.case" horiz-adv-x="613" 
d="M501 700l43 -43v-336l-74 1v211l6 37l-8 4l-24 -29l-354 -354l-55 55l354 355l29 24l-5 8l-36 -6h-212v73h336z" />
    <glyph glyph-name="arrowright.case" horiz-adv-x="800" 
d="M750 381v-62l-237 -237l-53 52l151 151l30 22l-3 9l-37 -4h-551v75h551l37 -3l3 9l-30 21l-151 151l53 53z" />
    <glyph glyph-name="arrowleft.case" horiz-adv-x="800" 
d="M340 565l-151 -151l-30 -21l3 -9l37 3h551v-75h-551l-37 4l-3 -9l30 -22l151 -151l-53 -52l-237 237v62l237 237z" />
    <glyph glyph-name="uni2196.case" horiz-adv-x="607" 
d="M455 627h-212l-36 6l-5 -8l29 -24l354 -355l-55 -55l-354 354l-24 29l-8 -4l6 -37v-211l-73 -1v336l43 43h335v-73z" />
    <glyph glyph-name="arrowboth.case" horiz-adv-x="800" 
d="M750 381v-62l-234 -234l-53 53l148 147l30 22l-3 9l-37 -4h-402l-37 4l-3 -9l30 -22l148 -147l-53 -53l-234 234v62l234 234l53 -53l-148 -148l-30 -21l3 -9l37 3h402l37 -3l3 9l-30 21l-148 148l53 53z" />
    <glyph glyph-name="at.case" horiz-adv-x="1007" 
d="M89 577q0 95 50.5 145t144.5 50h449q92 0 140 -47.5t48 -139.5v-382q0 -43 -23.5 -66.5t-66.5 -23.5h-116q-33 0 -52 18.5t-19 49.5v17h-12q-15 -40 -51 -69.5t-99 -29.5q-59 0 -106 32t-74 87.5t-27 123.5v17q0 69 26.5 124.5t73 87t104.5 31.5q62 0 97 -28.5t52 -67.5
h13v82h74v-382q0 -25 24 -25h66q21 0 30.5 9.5t9.5 31.5v367q0 56 -29 84.5t-85 28.5h-438q-128 0 -128 -127v-450q0 -127 128 -127h611v-70h-620q-94 0 -144.5 50.5t-50.5 144.5v454zM392 483.5q-40 -47.5 -40 -126.5v-12q0 -79 40 -127t104 -48t104 47.5t40 127.5v11
q0 80 -40 127.5t-104 47.5t-104 -47.5z" />
    <glyph glyph-name="bar.case" horiz-adv-x="224" 
d="M150 -156h-76v1012h76v-1012z" />
    <glyph glyph-name="brokenbar.case" horiz-adv-x="224" 
d="M74 436v420h76v-420h-76zM150 264v-420h-76v420h76z" />
    <glyph glyph-name="uni0308.case" horiz-adv-x="0" 
d="M-347 863q18 18 46 18t46.5 -18t18.5 -45q0 -28 -18.5 -46t-46.5 -18t-46 18t-18 46q0 27 18 45zM-164 863q18 18 46 18t46.5 -18t18.5 -45q0 -28 -18.5 -46t-46.5 -18t-46 18t-18 46q0 27 18 45z" />
    <glyph glyph-name="uni0307.case" horiz-adv-x="0" 
d="M-164 863q18 18 46 18t46.5 -18t18.5 -45q0 -28 -18.5 -46t-46.5 -18t-46 18t-18 46q0 27 18 45z" />
    <glyph glyph-name="gravecomb.case" horiz-adv-x="0" 
d="M-53 767h-75l-83 113h94z" />
    <glyph glyph-name="acutecomb.case" horiz-adv-x="0" 
d="M-55 880l-79 -113h-74l57 113h96z" />
    <glyph glyph-name="uni030B.case" horiz-adv-x="0" 
d="M-183 880l-83 -113h-73l64 113h92zM-53 880l-83 -113h-73l63 113h93z" />
    <glyph glyph-name="uni0302.case" horiz-adv-x="0" 
d="M-196 834h-10l-58 -67h-85l100 113h96l100 -113h-85z" />
    <glyph glyph-name="uni030C.case" horiz-adv-x="0" 
d="M-53 881l-100 -113h-96l-100 113h85l58 -67h10l58 67h85z" />
    <glyph glyph-name="uni0306.case" horiz-adv-x="0" 
d="M-53 880v-11q0 -51 -32.5 -80.5t-84.5 -29.5t-84.5 29.5t-32.5 80.5v11h63v-5q0 -24 14 -39t40 -15t40 15t14 39v5h63z" />
    <glyph glyph-name="uni030A.case" horiz-adv-x="0" 
d="M-224.5 907.5q28.5 27.5 71.5 27.5t71.5 -27.5t28.5 -69.5t-29 -69.5t-71 -27.5t-71 27.5t-29 69.5t28.5 69.5zM-184 806.5q12 -12.5 31 -12.5t31.5 12.5t12.5 31.5q0 20 -12.5 32t-31.5 12t-31 -12t-12 -32q0 -19 12 -31.5z" />
    <glyph glyph-name="tildecomb.case" horiz-adv-x="0" 
d="M-339 853q14 21 30.5 31.5t39.5 10.5q22 0 39 -11t34 -34q12 -17 18 -22.5t16 -5.5q11 0 17.5 5t14.5 17l26 38l51 -37l-35 -49q-14 -21 -30 -31.5t-40 -10.5q-22 0 -39 11t-34 33q-12 17 -18.5 22.5t-16.5 5.5t-16.5 -5t-14.5 -16l-27 -38l-50 36z" />
    <glyph glyph-name="uni0304.case" horiz-adv-x="0" 
d="M-53 767h-282v64h282v-64z" />
    <glyph glyph-name="ringacutecomb" horiz-adv-x="306" 
d="M244.5 679q8.5 -19 8.5 -40q0 -42 -29 -69.5t-71 -27.5t-71 27.5t-29 69.5t28.5 69.5t71.5 27.5h3l41 94h95l-70 -119q14 -13 22.5 -32zM184.5 607.5q12.5 12.5 12.5 31.5t-12.5 31.5t-31.5 12.5t-31 -12.5t-12 -31.5t12 -31.5t31 -12.5t31.5 12.5z" />
    <glyph glyph-name="Omega" 
d="M93.5 580.5q29.5 63.5 85.5 98.5t131 35q76 0 131.5 -35t85 -98.5t29.5 -146.5v-151q0 -75 -23 -124.5t-63 -69.5v-12h98v-77h-215v83q67 21 93.5 71t26.5 135v137q0 97 -41.5 154t-121.5 57t-121.5 -58.5t-41.5 -152.5v-137q0 -85 27 -135t94 -71v-83h-216v77h99v12
q-41 21 -64 70t-23 124v151q0 83 29.5 146.5z" />
    <glyph glyph-name="Delta" 
d="M237 700h146l219 -700h-584zM490 77l-174 564h-12l-174 -564h360z" />
    </font>
</defs>
</svg>
